{"glyphs":{"0":{"ha":639,"x_min":50,"x_max":589,"o":"m 319 -12 q 178 56 239 -12 q 83 240 117 124 q 50 501 50 357 q 83 762 50 646 q 178 946 117 878 q 319 1014 239 1014 q 460 946 400 1014 q 555 762 521 878 q 589 501 589 646 q 555 240 589 357 q 460 56 521 124 q 319 -12 400 -12 m 319 25 q 448 143 407 25 q 489 501 489 261 q 448 859 489 742 q 319 976 407 976 q 191 859 232 976 q 150 501 150 742 q 191 143 150 261 q 319 25 232 25 z "},"1":{"ha":346,"x_min":7,"x_max":332,"o":"m 28 0 q 7 15 7 0 q 25 32 7 31 l 79 38 q 119 51 108 40 q 129 92 129 63 l 129 917 q 116 948 129 940 q 82 953 103 956 l 32 947 q 7 965 7 946 q 29 985 7 981 q 138 1009 103 997 q 189 1021 172 1021 q 218 990 218 1021 l 218 92 q 228 51 218 63 q 268 38 239 40 l 314 32 q 332 15 332 31 q 311 0 332 0 l 28 0 z "},"2":{"ha":561,"x_min":28,"x_max":528,"o":"m 53 0 q 28 18 28 0 q 38 43 28 28 l 204 297 q 355 570 308 456 q 401 781 401 685 q 366 913 401 867 q 264 958 331 958 q 143 912 197 958 q 74 764 89 865 q 53 742 69 742 q 35 769 32 742 q 83 915 44 861 q 175 991 121 968 q 285 1014 229 1014 q 441 956 381 1014 q 501 796 501 899 q 467 648 501 724 q 374 483 433 572 q 239 278 315 393 l 131 114 q 130 92 122 101 q 151 83 138 83 l 300 83 q 388 95 353 83 q 443 140 422 107 q 475 233 464 172 l 488 299 q 508 317 492 317 q 525 293 528 317 l 508 32 q 474 0 506 0 l 53 0 z "},"3":{"ha":515,"x_min":28,"x_max":474,"o":"m 188 -12 q 72 14 115 -12 q 28 83 28 40 q 42 120 28 107 q 78 133 56 133 q 113 117 104 133 q 125 79 121 100 q 144 42 129 58 q 196 25 158 25 q 324 99 275 25 q 374 294 374 174 q 221 563 374 563 q 126 536 165 563 q 93 532 104 519 q 104 565 85 546 l 204 660 q 293 764 265 717 q 321 858 321 811 q 298 938 321 910 q 235 967 275 967 q 146 928 182 967 q 99 821 110 889 q 78 800 96 800 q 61 825 58 800 q 126 963 71 911 q 261 1014 181 1014 q 373 976 331 1014 q 415 874 415 938 q 236 640 415 764 l 204 618 q 201 609 199 614 q 210 606 203 604 q 257 613 233 613 q 369 576 321 613 q 446 476 418 540 q 474 328 474 411 q 450 200 474 261 q 386 91 426 139 q 294 15 346 43 q 188 -12 243 -12 z "},"4":{"ha":546,"x_min":14,"x_max":526,"o":"m 236 0 q 215 15 215 0 q 233 32 215 31 l 293 40 q 331 55 322 44 q 340 92 340 65 l 340 272 q 321 292 340 292 l 40 292 q 14 315 14 292 q 17 330 14 322 q 26 350 21 338 l 360 986 q 382 1000 365 1000 l 410 1000 q 422 976 435 1000 l 89 389 q 100 369 79 369 l 321 369 q 340 389 340 369 l 340 661 q 354 683 340 674 l 406 713 q 422 715 415 718 q 429 700 429 711 l 429 389 q 449 369 429 369 l 510 369 q 526 353 526 369 l 526 308 q 510 292 526 292 l 449 292 q 429 272 429 292 l 429 92 q 438 53 429 63 q 476 38 447 43 l 508 32 q 526 15 526 28 q 506 0 526 0 l 236 0 z "},"5":{"ha":531,"x_min":14,"x_max":490,"o":"m 183 -12 q 106 -1 146 -12 q 40 32 67 10 q 14 86 14 54 q 26 120 14 107 q 60 133 39 133 q 94 117 83 133 q 113 79 104 100 q 140 42 121 58 q 199 25 158 25 q 285 51 243 25 q 356 135 328 76 q 385 289 385 193 q 322 492 385 421 q 110 576 260 564 q 93 599 89 579 l 167 982 q 188 1000 171 1000 l 406 1000 q 440 1009 429 1000 q 457 1026 450 1018 q 475 1035 464 1035 q 488 1026 486 1035 q 488 1006 490 1017 l 467 933 q 446 917 463 917 l 217 917 q 196 899 200 917 l 156 686 q 172 665 151 667 q 351 603 282 653 q 452 480 419 554 q 485 318 485 406 q 440 140 485 214 q 326 26 394 65 q 183 -12 257 -12 z "},"6":{"ha":561,"x_min":50,"x_max":522,"o":"m 286 -12 q 163 35 217 -12 q 80 167 110 82 q 50 363 50 251 q 83 584 50 476 q 174 781 115 692 q 309 931 232 869 q 475 1013 386 992 q 495 1010 489 1015 q 501 996 501 1004 q 486 978 501 982 q 289 848 364 938 q 178 614 214 758 q 180 601 175 604 q 193 603 185 597 q 294 633 236 633 q 411 592 360 633 q 492 481 463 551 q 522 318 522 410 q 490 152 522 228 q 405 32 458 76 q 286 -12 351 -12 m 283 25 q 388 95 354 25 q 422 311 422 165 q 390 529 422 460 q 289 599 358 599 q 142 303 142 599 q 283 25 142 25 z "},"7":{"ha":506,"x_min":24,"x_max":500,"o":"m 138 0 q 122 21 115 0 l 432 894 q 417 917 439 917 l 108 917 q 75 908 86 917 q 57 891 64 900 q 39 882 50 882 q 26 891 28 882 q 26 911 24 900 l 47 983 q 68 1000 51 1000 l 481 1000 q 500 983 500 1000 q 489 938 500 972 l 192 15 q 172 0 188 0 l 138 0 z "},"8":{"ha":601,"x_min":39,"x_max":563,"o":"m 299 -12 q 160 24 218 -12 q 70 119 101 61 q 39 239 39 176 q 88 392 39 325 q 225 507 136 460 q 233 517 233 511 q 226 529 233 524 q 111 649 149 582 q 74 783 74 717 q 108 904 74 853 q 197 985 142 956 q 318 1014 253 1014 q 431 985 381 1014 q 510 908 481 957 q 539 796 539 858 q 494 662 539 724 q 376 560 450 600 q 368 549 368 556 q 376 538 368 543 q 520 406 478 474 q 563 258 563 339 q 528 119 563 181 q 433 23 493 58 q 299 -12 374 -12 m 314 576 q 350 578 332 564 q 430 674 403 615 q 457 800 457 732 q 422 928 457 881 q 315 976 386 976 q 199 933 243 976 q 156 819 156 890 q 167 738 156 778 q 214 658 179 697 q 314 576 249 618 m 301 25 q 433 75 385 25 q 481 210 481 125 q 455 331 481 281 q 386 420 429 382 q 288 490 343 458 q 251 490 269 503 q 124 235 124 403 q 140 133 124 182 q 196 55 157 85 q 301 25 235 25 z "},"9":{"ha":558,"x_min":36,"x_max":508,"o":"m 125 -11 q 105 -8 111 -14 q 99 6 99 -3 q 114 25 99 18 q 290 160 221 65 q 386 419 360 256 q 383 433 389 431 q 369 429 378 436 q 264 396 326 396 q 147 436 199 396 q 66 545 96 476 q 36 697 36 614 q 68 853 36 782 q 153 969 100 925 q 272 1014 207 1014 q 396 967 343 1014 q 478 835 449 919 q 508 639 508 751 q 456 330 508 467 q 317 106 404 193 q 125 -11 231 18 m 136 704 q 265 431 136 431 q 372 504 336 431 q 408 713 408 578 q 374 909 408 842 q 271 976 340 976 q 136 704 136 976 z "},"A":{"ha":635,"x_min":-25,"x_max":660,"o":"m -4 0 q -25 14 -25 0 q -6 32 -25 28 l 15 36 q 57 63 43 42 q 81 124 71 85 l 296 992 q 305 1010 299 1006 q 317 1014 311 1014 q 330 1010 324 1014 q 339 992 336 1006 l 558 111 q 581 57 568 72 q 619 36 593 42 l 640 32 q 660 14 660 28 q 639 0 660 0 l 401 0 q 382 15 382 0 q 406 32 382 31 l 432 35 q 462 50 456 38 q 461 93 468 63 l 408 308 q 363 344 400 344 l 217 344 q 171 308 181 344 l 124 122 q 165 35 103 43 l 186 32 q 210 15 210 28 q 190 0 210 0 l -4 0 m 213 386 l 365 386 q 383 410 388 386 l 294 782 l 288 782 l 194 410 q 213 386 190 386 z "},"Á":{"ha":635,"x_min":-25,"x_max":660,"o":"m -4 0 q -25 14 -25 0 q -6 32 -25 28 l 15 36 q 57 63 43 42 q 81 124 71 85 l 296 992 q 305 1010 299 1006 q 317 1014 311 1014 q 330 1010 324 1014 q 339 992 336 1006 l 558 111 q 581 57 568 72 q 619 36 593 42 l 640 32 q 660 14 660 28 q 639 0 660 0 l 401 0 q 382 15 382 0 q 406 32 382 31 l 432 35 q 462 50 456 38 q 461 93 468 63 l 408 308 q 363 344 400 344 l 217 344 q 171 308 181 344 l 124 122 q 165 35 103 43 l 186 32 q 210 15 210 28 q 190 0 210 0 l -4 0 m 213 386 l 365 386 q 383 410 388 386 l 294 782 l 288 782 l 194 410 q 213 386 190 386 m 190 1106 q 158 1111 167 1096 q 171 1142 149 1126 l 371 1297 q 397 1314 385 1308 q 428 1319 410 1319 q 467 1305 453 1319 q 481 1274 481 1290 q 472 1242 481 1256 q 438 1218 463 1229 l 190 1106 z "},"Ă":{"ha":635,"x_min":-25,"x_max":660,"o":"m -4 0 q -25 14 -25 0 q -6 32 -25 28 l 15 36 q 57 63 43 42 q 81 124 71 85 l 296 992 q 305 1010 299 1006 q 317 1014 311 1014 q 330 1010 324 1014 q 339 992 336 1006 l 558 111 q 581 57 568 72 q 619 36 593 42 l 640 32 q 660 14 660 28 q 639 0 660 0 l 401 0 q 382 15 382 0 q 406 32 382 31 l 432 35 q 462 50 456 38 q 461 93 468 63 l 408 308 q 363 344 400 344 l 217 344 q 171 308 181 344 l 124 122 q 165 35 103 43 l 186 32 q 210 15 210 28 q 190 0 210 0 l -4 0 m 213 386 l 365 386 q 383 410 388 386 l 294 782 l 288 782 l 194 410 q 213 386 190 386 m 318 1096 q 190 1145 244 1096 q 119 1281 135 1194 q 133 1306 115 1306 q 153 1289 149 1306 q 213 1202 168 1229 q 318 1175 257 1175 q 424 1202 379 1175 q 483 1289 468 1229 q 503 1306 488 1306 q 517 1281 521 1306 q 447 1145 501 1194 q 318 1096 392 1096 z "},"Ǎ":{"ha":635,"x_min":-25,"x_max":660,"o":"m -4 0 q -25 14 -25 0 q -6 32 -25 28 l 15 36 q 57 63 43 42 q 81 124 71 85 l 296 992 q 305 1010 299 1006 q 317 1014 311 1014 q 330 1010 324 1014 q 339 992 336 1006 l 558 111 q 581 57 568 72 q 619 36 593 42 l 640 32 q 660 14 660 28 q 639 0 660 0 l 401 0 q 382 15 382 0 q 406 32 382 31 l 432 35 q 462 50 456 38 q 461 93 468 63 l 408 308 q 363 344 400 344 l 217 344 q 171 308 181 344 l 124 122 q 165 35 103 43 l 186 32 q 210 15 210 28 q 190 0 210 0 l -4 0 m 213 386 l 365 386 q 383 410 388 386 l 294 782 l 288 782 l 194 410 q 213 386 190 386 m 304 1101 q 269 1117 285 1101 l 108 1286 q 104 1313 94 1301 q 132 1315 115 1326 l 317 1189 l 503 1314 q 531 1313 522 1326 q 526 1286 540 1301 l 365 1117 q 331 1101 350 1101 l 304 1101 z "},"Â":{"ha":635,"x_min":-25,"x_max":660,"o":"m -4 0 q -25 14 -25 0 q -6 32 -25 28 l 15 36 q 57 63 43 42 q 81 124 71 85 l 296 992 q 305 1010 299 1006 q 317 1014 311 1014 q 330 1010 324 1014 q 339 992 336 1006 l 558 111 q 581 57 568 72 q 619 36 593 42 l 640 32 q 660 14 660 28 q 639 0 660 0 l 401 0 q 382 15 382 0 q 406 32 382 31 l 432 35 q 462 50 456 38 q 461 93 468 63 l 408 308 q 363 344 400 344 l 217 344 q 171 308 181 344 l 124 122 q 165 35 103 43 l 186 32 q 210 15 210 28 q 190 0 210 0 l -4 0 m 213 386 l 365 386 q 383 410 388 386 l 294 782 l 288 782 l 194 410 q 213 386 190 386 m 132 1106 q 104 1108 115 1094 q 108 1135 94 1119 l 269 1304 q 304 1319 285 1319 l 331 1319 q 365 1304 350 1319 l 526 1135 q 531 1108 540 1119 q 503 1107 522 1094 l 317 1232 l 132 1106 z "},"Ä":{"ha":635,"x_min":-25,"x_max":660,"o":"m -4 0 q -25 14 -25 0 q -6 32 -25 28 l 15 36 q 57 63 43 42 q 81 124 71 85 l 296 992 q 305 1010 299 1006 q 317 1014 311 1014 q 330 1010 324 1014 q 339 992 336 1006 l 558 111 q 581 57 568 72 q 619 36 593 42 l 640 32 q 660 14 660 28 q 639 0 660 0 l 401 0 q 382 15 382 0 q 406 32 382 31 l 432 35 q 462 50 456 38 q 461 93 468 63 l 408 308 q 363 344 400 344 l 217 344 q 171 308 181 344 l 124 122 q 165 35 103 43 l 186 32 q 210 15 210 28 q 190 0 210 0 l -4 0 m 213 386 l 365 386 q 383 410 388 386 l 294 782 l 288 782 l 194 410 q 213 386 190 386 m 186 1132 q 137 1152 157 1132 q 117 1203 117 1172 q 137 1253 117 1233 q 186 1272 157 1272 q 235 1253 215 1272 q 254 1203 254 1233 q 235 1152 254 1172 q 186 1132 215 1132 m 450 1132 q 401 1152 421 1132 q 381 1203 381 1172 q 401 1253 381 1233 q 450 1272 421 1272 q 499 1253 479 1272 q 518 1203 518 1233 q 499 1152 518 1172 q 450 1132 479 1132 z "},"À":{"ha":635,"x_min":-25,"x_max":660,"o":"m -4 0 q -25 14 -25 0 q -6 32 -25 28 l 15 36 q 57 63 43 42 q 81 124 71 85 l 296 992 q 305 1010 299 1006 q 317 1014 311 1014 q 330 1010 324 1014 q 339 992 336 1006 l 558 111 q 581 57 568 72 q 619 36 593 42 l 640 32 q 660 14 660 28 q 639 0 660 0 l 401 0 q 382 15 382 0 q 406 32 382 31 l 432 35 q 462 50 456 38 q 461 93 468 63 l 408 308 q 363 344 400 344 l 217 344 q 171 308 181 344 l 124 122 q 165 35 103 43 l 186 32 q 210 15 210 28 q 190 0 210 0 l -4 0 m 213 386 l 365 386 q 383 410 388 386 l 294 782 l 288 782 l 194 410 q 213 386 190 386 m 444 1106 l 197 1218 q 163 1242 172 1229 q 154 1274 154 1256 q 168 1305 154 1290 q 207 1319 182 1319 q 238 1314 225 1319 q 264 1297 250 1308 l 464 1142 q 476 1111 486 1126 q 444 1106 468 1096 z "},"Ā":{"ha":635,"x_min":-25,"x_max":660,"o":"m -4 0 q -25 14 -25 0 q -6 32 -25 28 l 15 36 q 57 63 43 42 q 81 124 71 85 l 296 992 q 305 1010 299 1006 q 317 1014 311 1014 q 330 1010 324 1014 q 339 992 336 1006 l 558 111 q 581 57 568 72 q 619 36 593 42 l 640 32 q 660 14 660 28 q 639 0 660 0 l 401 0 q 382 15 382 0 q 406 32 382 31 l 432 35 q 462 50 456 38 q 461 93 468 63 l 408 308 q 363 344 400 344 l 217 344 q 171 308 181 344 l 124 122 q 165 35 103 43 l 186 32 q 210 15 210 28 q 190 0 210 0 l -4 0 m 213 386 l 365 386 q 383 410 388 386 l 294 782 l 288 782 l 194 410 q 213 386 190 386 m 132 1175 q 115 1192 115 1175 l 115 1213 q 132 1229 115 1229 l 503 1229 q 519 1213 519 1229 l 519 1192 q 503 1175 519 1175 l 132 1175 z "},"Ą":{"ha":635,"x_min":-25,"x_max":660,"o":"m -4 0 q -25 14 -25 0 q -6 32 -25 28 l 15 36 q 57 63 43 42 q 81 124 71 85 l 296 992 q 305 1010 299 1006 q 317 1014 311 1014 q 330 1010 324 1014 q 339 992 336 1006 l 558 111 q 581 57 568 72 q 619 36 593 42 l 640 32 q 660 14 660 28 q 639 0 660 0 l 401 0 q 382 15 382 0 q 406 32 382 31 l 432 35 q 462 50 456 38 q 461 93 468 63 l 408 308 q 363 344 400 344 l 217 344 q 171 308 181 344 l 124 122 q 165 35 103 43 l 186 32 q 210 15 210 28 q 190 0 210 0 l -4 0 m 213 386 l 365 386 q 383 410 388 386 l 294 782 l 288 782 l 194 410 q 213 386 190 386 m 501 -300 q 431 -275 463 -300 q 399 -199 399 -250 q 422 -118 399 -160 q 483 -41 444 -76 q 571 14 522 -6 l 585 0 q 493 -83 524 -35 q 463 -185 463 -132 q 478 -242 463 -225 q 517 -258 493 -258 q 575 -229 550 -258 q 603 -225 590 -210 q 596 -254 611 -237 q 554 -288 576 -276 q 501 -300 532 -300 z "},"Å":{"ha":635,"x_min":-25,"x_max":660,"o":"m -4 0 q -25 14 -25 0 q -6 32 -25 28 l 15 36 q 57 63 43 42 q 81 124 71 85 l 296 992 q 305 1010 299 1006 q 317 1014 311 1014 q 330 1010 324 1014 q 339 992 336 1006 l 558 111 q 581 57 568 72 q 619 36 593 42 l 640 32 q 660 14 660 28 q 639 0 660 0 l 401 0 q 382 15 382 0 q 406 32 382 31 l 432 35 q 462 50 456 38 q 461 93 468 63 l 408 308 q 363 344 400 344 l 217 344 q 171 308 181 344 l 124 122 q 165 35 103 43 l 186 32 q 210 15 210 28 q 190 0 210 0 l -4 0 m 213 386 l 365 386 q 383 410 388 386 l 294 782 l 288 782 l 194 410 q 213 386 190 386 m 318 1071 q 211 1115 254 1071 q 168 1221 168 1158 q 211 1326 168 1282 q 318 1369 254 1369 q 424 1326 382 1369 q 467 1221 467 1282 q 424 1115 467 1158 q 318 1071 382 1071 m 318 1108 q 395 1141 365 1108 q 425 1221 425 1174 q 395 1299 425 1267 q 318 1332 365 1332 q 240 1299 271 1332 q 210 1221 210 1267 q 240 1141 210 1174 q 318 1108 271 1108 z "},"Ã":{"ha":635,"x_min":-25,"x_max":660,"o":"m -4 0 q -25 14 -25 0 q -6 32 -25 28 l 15 36 q 57 63 43 42 q 81 124 71 85 l 296 992 q 305 1010 299 1006 q 317 1014 311 1014 q 330 1010 324 1014 q 339 992 336 1006 l 558 111 q 581 57 568 72 q 619 36 593 42 l 640 32 q 660 14 660 28 q 639 0 660 0 l 401 0 q 382 15 382 0 q 406 32 382 31 l 432 35 q 462 50 456 38 q 461 93 468 63 l 408 308 q 363 344 400 344 l 217 344 q 171 308 181 344 l 124 122 q 165 35 103 43 l 186 32 q 210 15 210 28 q 190 0 210 0 l -4 0 m 213 386 l 365 386 q 383 410 388 386 l 294 782 l 288 782 l 194 410 q 213 386 190 386 m 406 1121 q 345 1135 369 1121 q 301 1166 321 1149 q 261 1197 282 1183 q 211 1211 240 1211 q 157 1194 176 1211 q 125 1140 138 1176 q 106 1124 119 1124 q 92 1144 88 1124 q 142 1252 106 1215 q 231 1289 179 1289 q 290 1275 265 1289 q 335 1244 314 1261 q 377 1213 356 1226 q 425 1199 399 1199 q 479 1216 460 1199 q 511 1269 499 1233 q 531 1286 518 1286 q 544 1265 549 1286 q 494 1158 531 1194 q 406 1121 458 1121 z "},"Æ":{"ha":1081,"x_min":-25,"x_max":1038,"o":"m -4 0 q -25 15 -25 0 q -6 32 -25 28 l 15 36 q 108 124 71 47 l 500 908 q 506 947 515 938 q 467 961 496 956 l 435 968 q 417 985 417 972 q 438 1000 417 1000 l 965 1000 q 1000 968 997 1000 l 1011 738 q 993 714 1014 714 q 974 732 976 714 l 965 783 q 903 922 950 878 q 772 965 856 965 q 695 949 717 965 q 674 893 674 933 l 674 558 q 693 539 674 539 l 763 539 q 838 604 824 539 l 851 674 q 875 692 857 694 q 890 668 890 689 l 890 356 q 875 332 890 335 q 851 350 857 329 l 838 418 q 810 482 828 467 q 761 497 793 497 l 693 497 q 674 478 674 497 l 674 129 q 699 57 674 79 q 793 35 725 35 q 912 70 863 35 q 981 203 961 106 l 997 285 q 1018 303 1001 303 q 1035 279 1038 303 l 1021 32 q 986 0 1018 0 l 499 0 q 478 15 478 0 q 496 32 478 28 l 528 38 q 566 53 557 43 q 575 92 575 63 l 575 478 q 556 497 575 497 l 357 497 q 335 483 340 497 l 154 122 q 142 63 136 86 q 181 35 149 39 l 203 32 q 226 15 226 28 q 204 0 226 0 l -4 0 m 374 563 q 374 546 369 553 q 388 539 378 539 l 556 539 q 575 558 575 539 l 575 922 q 568 936 575 935 q 556 926 561 938 l 374 563 z "},"B":{"ha":664,"x_min":26,"x_max":625,"o":"m 47 0 q 26 15 26 0 q 44 32 26 28 l 76 38 q 115 53 106 43 q 124 92 124 63 l 124 908 q 115 947 124 938 q 76 963 106 957 l 44 968 q 26 985 26 972 q 47 1000 26 1000 l 329 1000 q 453 971 399 1000 q 538 892 507 942 q 569 778 569 842 q 533 662 569 715 q 426 572 496 608 q 418 561 418 568 q 428 551 418 554 q 574 449 522 519 q 625 283 625 379 q 588 137 625 201 q 484 36 550 72 q 335 0 418 0 l 47 0 m 296 571 q 419 628 369 571 q 468 772 468 686 q 421 912 468 858 q 296 965 374 965 q 222 910 222 965 l 222 647 q 240 589 222 607 q 296 571 257 571 m 317 35 q 464 103 407 35 q 521 288 521 172 q 463 469 521 403 q 308 536 406 536 q 222 468 222 536 l 222 131 q 317 35 222 35 z "},"C":{"ha":667,"x_min":56,"x_max":611,"o":"m 397 -12 q 217 51 294 -12 q 98 231 140 115 q 56 506 56 347 q 102 773 56 658 q 227 951 149 888 q 401 1014 306 1014 q 501 1003 458 1014 q 578 976 544 993 q 594 947 594 967 l 599 736 q 582 713 599 713 q 563 731 567 713 l 549 782 q 481 932 519 890 q 390 974 443 974 q 228 853 293 974 q 164 506 164 733 q 197 243 164 350 q 281 82 229 136 q 392 28 333 28 q 492 67 454 28 q 557 217 531 106 l 574 285 q 596 303 578 306 q 611 279 611 300 l 606 54 q 588 25 606 35 q 509 -2 554 8 q 397 -12 464 -12 z "},"Ć":{"ha":667,"x_min":56,"x_max":611,"o":"m 397 -12 q 217 51 294 -12 q 98 231 140 115 q 56 506 56 347 q 102 773 56 658 q 227 951 149 888 q 401 1014 306 1014 q 501 1003 458 1014 q 578 976 544 993 q 594 947 594 967 l 599 736 q 582 713 599 713 q 563 731 567 713 l 549 782 q 481 932 519 890 q 390 974 443 974 q 228 853 293 974 q 164 506 164 733 q 197 243 164 350 q 281 82 229 136 q 392 28 333 28 q 492 67 454 28 q 557 217 531 106 l 574 285 q 596 303 578 306 q 611 279 611 300 l 606 54 q 588 25 606 35 q 509 -2 554 8 q 397 -12 464 -12 m 261 1106 q 229 1111 238 1096 q 242 1142 219 1126 l 442 1297 q 468 1314 456 1308 q 499 1319 481 1319 q 538 1305 524 1319 q 551 1274 551 1290 q 542 1242 551 1256 q 508 1218 533 1229 l 261 1106 z "},"Č":{"ha":667,"x_min":56,"x_max":611,"o":"m 397 -12 q 217 51 294 -12 q 98 231 140 115 q 56 506 56 347 q 102 773 56 658 q 227 951 149 888 q 401 1014 306 1014 q 501 1003 458 1014 q 578 976 544 993 q 594 947 594 967 l 599 736 q 582 713 599 713 q 563 731 567 713 l 549 782 q 481 932 519 890 q 390 974 443 974 q 228 853 293 974 q 164 506 164 733 q 197 243 164 350 q 281 82 229 136 q 392 28 333 28 q 492 67 454 28 q 557 217 531 106 l 574 285 q 596 303 578 306 q 611 279 611 300 l 606 54 q 588 25 606 35 q 509 -2 554 8 q 397 -12 464 -12 m 375 1101 q 340 1117 356 1101 l 179 1286 q 175 1313 165 1301 q 203 1315 186 1326 l 388 1189 l 574 1314 q 601 1313 593 1326 q 597 1286 611 1301 l 436 1117 q 401 1101 421 1101 l 375 1101 z "},"Ç":{"ha":667,"x_min":56,"x_max":611,"o":"m 397 -12 q 217 51 294 -12 q 98 231 140 115 q 56 506 56 347 q 102 773 56 658 q 227 951 149 888 q 401 1014 306 1014 q 501 1003 458 1014 q 578 976 544 993 q 594 947 594 967 l 599 736 q 582 713 599 713 q 563 731 567 713 l 549 782 q 481 932 519 890 q 390 974 443 974 q 228 853 293 974 q 164 506 164 733 q 197 243 164 350 q 281 82 229 136 q 392 28 333 28 q 492 67 454 28 q 557 217 531 106 l 574 285 q 596 303 578 306 q 611 279 611 300 l 606 54 q 588 25 606 35 q 509 -2 554 8 q 397 -12 464 -12 m 406 17 l 392 -60 q 397 -68 390 -68 q 478 -111 453 -78 q 504 -185 504 -144 q 465 -269 504 -239 q 374 -299 426 -299 q 286 -274 319 -299 q 253 -217 253 -249 q 261 -192 253 -201 q 285 -182 269 -182 q 313 -195 306 -182 q 324 -226 319 -208 q 340 -258 329 -244 q 376 -271 350 -271 q 425 -248 410 -271 q 440 -192 440 -225 q 421 -141 440 -161 q 364 -117 401 -121 q 353 -99 351 -114 l 374 17 l 406 17 z "},"Ċ":{"ha":667,"x_min":56,"x_max":611,"o":"m 397 -12 q 217 51 294 -12 q 98 231 140 115 q 56 506 56 347 q 102 773 56 658 q 227 951 149 888 q 401 1014 306 1014 q 501 1003 458 1014 q 578 976 544 993 q 594 947 594 967 l 599 736 q 582 713 599 713 q 563 731 567 713 l 549 782 q 481 932 519 890 q 390 974 443 974 q 228 853 293 974 q 164 506 164 733 q 197 243 164 350 q 281 82 229 136 q 392 28 333 28 q 492 67 454 28 q 557 217 531 106 l 574 285 q 596 303 578 306 q 611 279 611 300 l 606 54 q 588 25 606 35 q 509 -2 554 8 q 397 -12 464 -12 m 389 1132 q 340 1153 360 1132 q 319 1206 319 1174 q 340 1258 319 1238 q 389 1278 360 1278 q 438 1258 418 1278 q 457 1206 457 1238 q 438 1153 457 1174 q 389 1132 418 1132 z "},"D":{"ha":736,"x_min":26,"x_max":681,"o":"m 47 0 q 26 15 26 0 q 44 32 26 28 l 76 38 q 124 92 124 46 l 124 908 q 115 947 124 938 q 76 963 106 957 l 44 968 q 26 985 26 972 q 47 1000 26 1000 l 328 1000 q 515 937 436 1000 q 638 760 594 874 q 681 496 681 646 q 635 233 681 344 q 508 61 590 122 q 314 0 426 0 l 47 0 m 319 36 q 508 154 443 36 q 572 496 572 272 q 510 841 572 718 q 328 964 449 964 q 222 863 222 964 l 222 138 q 245 59 222 82 q 319 36 268 36 z "},"Ð":{"ha":736,"x_min":26,"x_max":681,"o":"m 47 0 q 26 15 26 0 q 44 32 26 28 l 76 38 q 124 92 124 46 l 124 497 l 40 497 q 26 511 26 497 l 26 522 q 40 536 26 536 l 124 536 l 124 908 q 115 947 124 938 q 76 963 106 957 l 44 968 q 26 985 26 972 q 47 1000 26 1000 l 328 1000 q 515 937 436 1000 q 638 760 594 874 q 681 496 681 646 q 635 233 681 344 q 508 61 590 122 q 314 0 426 0 l 47 0 m 319 36 q 508 154 443 36 q 572 496 572 272 q 510 841 572 718 q 328 964 449 964 q 222 863 222 964 l 222 536 l 394 536 q 408 522 408 536 l 408 511 q 394 497 408 497 l 222 497 l 222 138 q 245 59 222 82 q 319 36 268 36 z "},"Ď":{"ha":736,"x_min":26,"x_max":681,"o":"m 47 0 q 26 15 26 0 q 44 32 26 28 l 76 38 q 124 92 124 46 l 124 908 q 115 947 124 938 q 76 963 106 957 l 44 968 q 26 985 26 972 q 47 1000 26 1000 l 328 1000 q 515 937 436 1000 q 638 760 594 874 q 681 496 681 646 q 635 233 681 344 q 508 61 590 122 q 314 0 426 0 l 47 0 m 319 36 q 508 154 443 36 q 572 496 572 272 q 510 841 572 718 q 328 964 449 964 q 222 863 222 964 l 222 138 q 245 59 222 82 q 319 36 268 36 m 340 1101 q 306 1117 321 1101 l 144 1286 q 140 1313 131 1301 q 168 1315 151 1326 l 353 1189 l 539 1314 q 567 1313 558 1326 q 563 1286 576 1301 l 401 1117 q 367 1101 386 1101 l 340 1101 z "},"Đ":{"ha":736,"x_min":26,"x_max":681,"o":"m 47 0 q 26 15 26 0 q 44 32 26 28 l 76 38 q 124 92 124 46 l 124 497 l 40 497 q 26 511 26 497 l 26 522 q 40 536 26 536 l 124 536 l 124 908 q 115 947 124 938 q 76 963 106 957 l 44 968 q 26 985 26 972 q 47 1000 26 1000 l 328 1000 q 515 937 436 1000 q 638 760 594 874 q 681 496 681 646 q 635 233 681 344 q 508 61 590 122 q 314 0 426 0 l 47 0 m 319 36 q 508 154 443 36 q 572 496 572 272 q 510 841 572 718 q 328 964 449 964 q 222 863 222 964 l 222 536 l 394 536 q 408 522 408 536 l 408 511 q 394 497 408 497 l 222 497 l 222 138 q 245 59 222 82 q 319 36 268 36 z "},"E":{"ha":629,"x_min":26,"x_max":586,"o":"m 47 0 q 26 15 26 0 q 44 32 26 28 l 76 38 q 115 53 106 43 q 124 92 124 63 l 124 908 q 115 947 124 938 q 76 963 106 957 l 44 968 q 26 985 26 972 q 47 1000 26 1000 l 514 1000 q 549 968 546 1000 l 560 738 q 542 714 563 714 q 522 732 525 714 l 514 783 q 451 922 499 878 q 321 965 404 965 q 244 949 265 965 q 222 893 222 933 l 222 558 q 242 539 222 539 l 311 539 q 386 604 372 539 l 400 674 q 424 692 406 694 q 439 668 439 689 l 439 356 q 424 332 439 335 q 400 350 406 329 l 386 418 q 359 482 376 467 q 310 497 342 497 l 242 497 q 222 478 222 497 l 222 129 q 248 57 222 79 q 342 35 274 35 q 460 70 411 35 q 529 203 510 106 l 546 285 q 567 303 550 303 q 583 279 586 303 l 569 32 q 535 0 567 0 l 47 0 z "},"É":{"ha":629,"x_min":26,"x_max":586,"o":"m 47 0 q 26 15 26 0 q 44 32 26 28 l 76 38 q 115 53 106 43 q 124 92 124 63 l 124 908 q 115 947 124 938 q 76 963 106 957 l 44 968 q 26 985 26 972 q 47 1000 26 1000 l 514 1000 q 549 968 546 1000 l 560 738 q 542 714 563 714 q 522 732 525 714 l 514 783 q 451 922 499 878 q 321 965 404 965 q 244 949 265 965 q 222 893 222 933 l 222 558 q 242 539 222 539 l 311 539 q 386 604 372 539 l 400 674 q 424 692 406 694 q 439 668 439 689 l 439 356 q 424 332 439 335 q 400 350 406 329 l 386 418 q 359 482 376 467 q 310 497 342 497 l 242 497 q 222 478 222 497 l 222 129 q 248 57 222 79 q 342 35 274 35 q 460 70 411 35 q 529 203 510 106 l 546 285 q 567 303 550 303 q 583 279 586 303 l 569 32 q 535 0 567 0 l 47 0 m 188 1106 q 156 1111 164 1096 q 168 1142 146 1126 l 368 1297 q 394 1314 382 1308 q 425 1319 407 1319 q 464 1305 450 1319 q 478 1274 478 1290 q 469 1242 478 1256 q 435 1218 460 1229 l 188 1106 z "},"Ě":{"ha":629,"x_min":26,"x_max":586,"o":"m 47 0 q 26 15 26 0 q 44 32 26 28 l 76 38 q 115 53 106 43 q 124 92 124 63 l 124 908 q 115 947 124 938 q 76 963 106 957 l 44 968 q 26 985 26 972 q 47 1000 26 1000 l 514 1000 q 549 968 546 1000 l 560 738 q 542 714 563 714 q 522 732 525 714 l 514 783 q 451 922 499 878 q 321 965 404 965 q 244 949 265 965 q 222 893 222 933 l 222 558 q 242 539 222 539 l 311 539 q 386 604 372 539 l 400 674 q 424 692 406 694 q 439 668 439 689 l 439 356 q 424 332 439 335 q 400 350 406 329 l 386 418 q 359 482 376 467 q 310 497 342 497 l 242 497 q 222 478 222 497 l 222 129 q 248 57 222 79 q 342 35 274 35 q 460 70 411 35 q 529 203 510 106 l 546 285 q 567 303 550 303 q 583 279 586 303 l 569 32 q 535 0 567 0 l 47 0 m 301 1101 q 267 1117 282 1101 l 106 1286 q 101 1313 92 1301 q 129 1315 113 1326 l 314 1189 l 500 1314 q 528 1313 519 1326 q 524 1286 538 1301 l 363 1117 q 328 1101 347 1101 l 301 1101 z "},"Ê":{"ha":629,"x_min":26,"x_max":586,"o":"m 47 0 q 26 15 26 0 q 44 32 26 28 l 76 38 q 115 53 106 43 q 124 92 124 63 l 124 908 q 115 947 124 938 q 76 963 106 957 l 44 968 q 26 985 26 972 q 47 1000 26 1000 l 514 1000 q 549 968 546 1000 l 560 738 q 542 714 563 714 q 522 732 525 714 l 514 783 q 451 922 499 878 q 321 965 404 965 q 244 949 265 965 q 222 893 222 933 l 222 558 q 242 539 222 539 l 311 539 q 386 604 372 539 l 400 674 q 424 692 406 694 q 439 668 439 689 l 439 356 q 424 332 439 335 q 400 350 406 329 l 386 418 q 359 482 376 467 q 310 497 342 497 l 242 497 q 222 478 222 497 l 222 129 q 248 57 222 79 q 342 35 274 35 q 460 70 411 35 q 529 203 510 106 l 546 285 q 567 303 550 303 q 583 279 586 303 l 569 32 q 535 0 567 0 l 47 0 m 129 1106 q 101 1108 113 1094 q 106 1135 92 1119 l 267 1304 q 301 1319 282 1319 l 328 1319 q 363 1304 347 1319 l 524 1135 q 528 1108 538 1119 q 500 1107 519 1094 l 314 1232 l 129 1106 z "},"Ë":{"ha":629,"x_min":26,"x_max":586,"o":"m 47 0 q 26 15 26 0 q 44 32 26 28 l 76 38 q 115 53 106 43 q 124 92 124 63 l 124 908 q 115 947 124 938 q 76 963 106 957 l 44 968 q 26 985 26 972 q 47 1000 26 1000 l 514 1000 q 549 968 546 1000 l 560 738 q 542 714 563 714 q 522 732 525 714 l 514 783 q 451 922 499 878 q 321 965 404 965 q 244 949 265 965 q 222 893 222 933 l 222 558 q 242 539 222 539 l 311 539 q 386 604 372 539 l 400 674 q 424 692 406 694 q 439 668 439 689 l 439 356 q 424 332 439 335 q 400 350 406 329 l 386 418 q 359 482 376 467 q 310 497 342 497 l 242 497 q 222 478 222 497 l 222 129 q 248 57 222 79 q 342 35 274 35 q 460 70 411 35 q 529 203 510 106 l 546 285 q 567 303 550 303 q 583 279 586 303 l 569 32 q 535 0 567 0 l 47 0 m 183 1132 q 134 1152 154 1132 q 114 1203 114 1172 q 134 1253 114 1233 q 183 1272 154 1272 q 232 1253 213 1272 q 251 1203 251 1233 q 232 1152 251 1172 q 183 1132 213 1132 m 447 1132 q 398 1152 418 1132 q 378 1203 378 1172 q 398 1253 378 1233 q 447 1272 418 1272 q 496 1253 476 1272 q 515 1203 515 1233 q 496 1152 515 1172 q 447 1132 476 1132 z "},"Ė":{"ha":629,"x_min":26,"x_max":586,"o":"m 47 0 q 26 15 26 0 q 44 32 26 28 l 76 38 q 115 53 106 43 q 124 92 124 63 l 124 908 q 115 947 124 938 q 76 963 106 957 l 44 968 q 26 985 26 972 q 47 1000 26 1000 l 514 1000 q 549 968 546 1000 l 560 738 q 542 714 563 714 q 522 732 525 714 l 514 783 q 451 922 499 878 q 321 965 404 965 q 244 949 265 965 q 222 893 222 933 l 222 558 q 242 539 222 539 l 311 539 q 386 604 372 539 l 400 674 q 424 692 406 694 q 439 668 439 689 l 439 356 q 424 332 439 335 q 400 350 406 329 l 386 418 q 359 482 376 467 q 310 497 342 497 l 242 497 q 222 478 222 497 l 222 129 q 248 57 222 79 q 342 35 274 35 q 460 70 411 35 q 529 203 510 106 l 546 285 q 567 303 550 303 q 583 279 586 303 l 569 32 q 535 0 567 0 l 47 0 m 315 1132 q 266 1153 286 1132 q 246 1206 246 1174 q 266 1258 246 1238 q 315 1278 286 1278 q 364 1258 344 1278 q 383 1206 383 1238 q 364 1153 383 1174 q 315 1132 344 1132 z "},"È":{"ha":629,"x_min":26,"x_max":586,"o":"m 47 0 q 26 15 26 0 q 44 32 26 28 l 76 38 q 115 53 106 43 q 124 92 124 63 l 124 908 q 115 947 124 938 q 76 963 106 957 l 44 968 q 26 985 26 972 q 47 1000 26 1000 l 514 1000 q 549 968 546 1000 l 560 738 q 542 714 563 714 q 522 732 525 714 l 514 783 q 451 922 499 878 q 321 965 404 965 q 244 949 265 965 q 222 893 222 933 l 222 558 q 242 539 222 539 l 311 539 q 386 604 372 539 l 400 674 q 424 692 406 694 q 439 668 439 689 l 439 356 q 424 332 439 335 q 400 350 406 329 l 386 418 q 359 482 376 467 q 310 497 342 497 l 242 497 q 222 478 222 497 l 222 129 q 248 57 222 79 q 342 35 274 35 q 460 70 411 35 q 529 203 510 106 l 546 285 q 567 303 550 303 q 583 279 586 303 l 569 32 q 535 0 567 0 l 47 0 m 442 1106 l 194 1218 q 160 1242 169 1229 q 151 1274 151 1256 q 165 1305 151 1290 q 204 1319 179 1319 q 235 1314 222 1319 q 261 1297 247 1308 l 461 1142 q 474 1111 483 1126 q 442 1106 465 1096 z "},"Ē":{"ha":629,"x_min":26,"x_max":586,"o":"m 47 0 q 26 15 26 0 q 44 32 26 28 l 76 38 q 115 53 106 43 q 124 92 124 63 l 124 908 q 115 947 124 938 q 76 963 106 957 l 44 968 q 26 985 26 972 q 47 1000 26 1000 l 514 1000 q 549 968 546 1000 l 560 738 q 542 714 563 714 q 522 732 525 714 l 514 783 q 451 922 499 878 q 321 965 404 965 q 244 949 265 965 q 222 893 222 933 l 222 558 q 242 539 222 539 l 311 539 q 386 604 372 539 l 400 674 q 424 692 406 694 q 439 668 439 689 l 439 356 q 424 332 439 335 q 400 350 406 329 l 386 418 q 359 482 376 467 q 310 497 342 497 l 242 497 q 222 478 222 497 l 222 129 q 248 57 222 79 q 342 35 274 35 q 460 70 411 35 q 529 203 510 106 l 546 285 q 567 303 550 303 q 583 279 586 303 l 569 32 q 535 0 567 0 l 47 0 m 129 1175 q 113 1192 113 1175 l 113 1213 q 129 1229 113 1229 l 500 1229 q 517 1213 517 1229 l 517 1192 q 500 1175 517 1175 l 129 1175 z "},"Ę":{"ha":629,"x_min":26,"x_max":586,"o":"m 47 0 q 26 15 26 0 q 44 32 26 28 l 76 38 q 115 53 106 43 q 124 92 124 63 l 124 908 q 115 947 124 938 q 76 963 106 957 l 44 968 q 26 985 26 972 q 47 1000 26 1000 l 514 1000 q 549 968 546 1000 l 560 738 q 542 714 563 714 q 522 732 525 714 l 514 783 q 451 922 499 878 q 321 965 404 965 q 244 949 265 965 q 222 893 222 933 l 222 558 q 242 539 222 539 l 311 539 q 386 604 372 539 l 400 674 q 424 692 406 694 q 439 668 439 689 l 439 356 q 424 332 439 335 q 400 350 406 329 l 386 418 q 359 482 376 467 q 310 497 342 497 l 242 497 q 222 478 222 497 l 222 129 q 248 57 222 79 q 342 35 274 35 q 460 70 411 35 q 529 203 510 106 l 546 285 q 567 303 550 303 q 583 279 586 303 l 569 32 q 535 0 567 0 l 47 0 m 451 -300 q 381 -275 413 -300 q 349 -199 349 -250 q 372 -118 349 -160 q 433 -41 394 -76 q 521 14 472 -6 l 535 0 q 443 -83 474 -35 q 413 -185 413 -132 q 428 -242 413 -225 q 467 -258 443 -258 q 525 -229 500 -258 q 553 -225 540 -210 q 546 -254 561 -237 q 504 -288 526 -276 q 451 -300 482 -300 z "},"F":{"ha":567,"x_min":26,"x_max":543,"o":"m 47 0 q 26 15 26 0 q 44 32 26 28 l 76 38 q 115 53 106 43 q 124 92 124 63 l 124 908 q 115 947 124 938 q 76 963 106 957 l 44 968 q 26 985 26 972 q 47 1000 26 1000 l 494 1000 q 529 968 526 1000 l 540 738 q 522 714 543 714 q 503 732 506 714 l 496 778 q 457 890 485 850 q 394 948 429 931 q 328 965 360 965 q 244 946 267 965 q 222 886 222 926 l 222 558 q 242 539 222 539 l 290 539 q 365 604 351 539 l 381 674 q 401 692 385 692 q 418 668 418 692 l 418 356 q 401 332 418 332 q 381 350 385 332 l 365 418 q 338 482 356 467 q 289 497 321 497 l 242 497 q 222 478 222 497 l 222 99 q 231 58 222 69 q 269 42 240 46 l 335 32 q 350 17 350 29 q 329 0 350 0 l 47 0 z "},"G":{"ha":724,"x_min":56,"x_max":696,"o":"m 404 -12 q 214 51 292 -12 q 96 231 136 115 q 56 506 56 347 q 103 773 56 658 q 233 951 150 888 q 422 1014 315 1014 q 521 1003 476 1014 q 599 976 565 993 q 617 947 617 967 l 621 736 q 604 713 621 713 q 585 731 589 713 l 574 772 q 504 931 543 888 q 397 974 465 974 q 230 853 296 974 q 164 506 164 733 q 231 148 164 271 q 404 25 299 25 q 490 50 461 25 q 519 143 519 75 l 519 447 q 510 488 519 476 q 472 501 501 499 l 418 507 q 400 524 400 508 q 421 539 400 539 l 675 539 q 696 522 696 539 q 681 507 696 510 l 660 504 q 624 488 629 500 q 618 446 618 475 l 618 69 q 610 45 618 54 q 581 25 601 36 q 504 -2 547 8 q 404 -12 461 -12 z "},"Ğ":{"ha":724,"x_min":56,"x_max":696,"o":"m 404 -12 q 214 51 292 -12 q 96 231 136 115 q 56 506 56 347 q 103 773 56 658 q 233 951 150 888 q 422 1014 315 1014 q 521 1003 476 1014 q 599 976 565 993 q 617 947 617 967 l 621 736 q 604 713 621 713 q 585 731 589 713 l 574 772 q 504 931 543 888 q 397 974 465 974 q 230 853 296 974 q 164 506 164 733 q 231 148 164 271 q 404 25 299 25 q 490 50 461 25 q 519 143 519 75 l 519 447 q 510 488 519 476 q 472 501 501 499 l 418 507 q 400 524 400 508 q 421 539 400 539 l 675 539 q 696 522 696 539 q 681 507 696 510 l 660 504 q 624 488 629 500 q 618 446 618 475 l 618 69 q 610 45 618 54 q 581 25 601 36 q 504 -2 547 8 q 404 -12 461 -12 m 404 1096 q 276 1145 331 1096 q 206 1281 221 1194 q 219 1306 201 1306 q 239 1289 235 1306 q 299 1202 254 1229 q 404 1175 343 1175 q 510 1202 465 1175 q 569 1289 554 1229 q 589 1306 574 1306 q 603 1281 607 1306 q 533 1145 588 1194 q 404 1096 478 1096 z "},"Ģ":{"ha":724,"x_min":56,"x_max":696,"o":"m 404 -12 q 214 51 292 -12 q 96 231 136 115 q 56 506 56 347 q 103 773 56 658 q 233 951 150 888 q 422 1014 315 1014 q 521 1003 476 1014 q 599 976 565 993 q 617 947 617 967 l 621 736 q 604 713 621 713 q 585 731 589 713 l 574 772 q 504 931 543 888 q 397 974 465 974 q 230 853 296 974 q 164 506 164 733 q 231 148 164 271 q 404 25 299 25 q 490 50 461 25 q 519 143 519 75 l 519 447 q 510 488 519 476 q 472 501 501 499 l 418 507 q 400 524 400 508 q 421 539 400 539 l 675 539 q 696 522 696 539 q 681 507 696 510 l 660 504 q 624 488 629 500 q 618 446 618 475 l 618 69 q 610 45 618 54 q 581 25 601 36 q 504 -2 547 8 q 404 -12 461 -12 m 406 -93 q 460 -122 440 -93 q 481 -193 481 -150 q 452 -312 481 -261 q 361 -415 424 -362 q 333 -421 344 -429 q 338 -394 321 -411 q 393 -328 378 -354 q 408 -275 408 -301 q 398 -240 408 -253 q 374 -219 388 -228 q 349 -197 360 -210 q 339 -158 339 -183 q 358 -112 339 -131 q 406 -93 376 -93 z "},"Ġ":{"ha":724,"x_min":56,"x_max":696,"o":"m 404 -12 q 214 51 292 -12 q 96 231 136 115 q 56 506 56 347 q 103 773 56 658 q 233 951 150 888 q 422 1014 315 1014 q 521 1003 476 1014 q 599 976 565 993 q 617 947 617 967 l 621 736 q 604 713 621 713 q 585 731 589 713 l 574 772 q 504 931 543 888 q 397 974 465 974 q 230 853 296 974 q 164 506 164 733 q 231 148 164 271 q 404 25 299 25 q 490 50 461 25 q 519 143 519 75 l 519 447 q 510 488 519 476 q 472 501 501 499 l 418 507 q 400 524 400 508 q 421 539 400 539 l 675 539 q 696 522 696 539 q 681 507 696 510 l 660 504 q 624 488 629 500 q 618 446 618 475 l 618 69 q 610 45 618 54 q 581 25 601 36 q 504 -2 547 8 q 404 -12 461 -12 m 404 1132 q 355 1153 375 1132 q 335 1206 335 1174 q 355 1258 335 1238 q 404 1278 375 1278 q 453 1258 433 1278 q 472 1206 472 1238 q 453 1153 472 1174 q 404 1132 433 1132 z "},"H":{"ha":758,"x_min":26,"x_max":732,"o":"m 47 0 q 26 15 26 0 q 44 32 26 28 l 76 38 q 115 53 106 43 q 124 92 124 63 l 124 908 q 115 947 124 938 q 76 963 106 957 l 44 968 q 26 985 26 972 q 47 1000 26 1000 l 301 1000 q 322 983 322 1000 q 307 968 322 971 l 269 963 q 231 947 240 958 q 222 907 222 936 l 222 558 q 242 539 222 539 l 517 539 q 536 558 536 539 l 536 907 q 527 947 536 936 q 489 963 518 958 l 451 968 q 436 983 436 971 q 457 1000 436 1000 l 711 1000 q 732 985 732 1000 q 714 968 732 972 l 682 963 q 644 947 653 957 q 635 908 635 938 l 635 92 q 644 53 635 63 q 682 38 653 43 l 714 32 q 732 15 732 28 q 711 0 732 0 l 457 0 q 436 17 436 0 q 451 32 436 29 l 489 38 q 527 53 518 42 q 536 93 536 64 l 536 478 q 517 497 536 497 l 242 497 q 222 478 222 497 l 222 93 q 231 53 222 64 q 269 38 240 42 l 307 32 q 322 17 322 29 q 301 0 322 0 l 47 0 z "},"Ħ":{"ha":758,"x_min":26,"x_max":732,"o":"m 47 0 q 26 15 26 0 q 44 32 26 28 l 76 38 q 115 53 106 43 q 124 92 124 63 l 124 739 l 40 739 q 26 753 26 739 l 26 764 q 40 778 26 778 l 124 778 l 124 908 q 115 947 124 938 q 76 963 106 957 l 44 968 q 26 985 26 972 q 47 1000 26 1000 l 301 1000 q 322 983 322 1000 q 307 968 322 971 l 269 963 q 231 947 240 958 q 222 907 222 936 l 222 778 l 536 778 l 536 907 q 527 947 536 936 q 489 963 518 958 l 451 968 q 436 983 436 971 q 457 1000 436 1000 l 711 1000 q 732 985 732 1000 q 714 968 732 972 l 682 963 q 644 947 653 957 q 635 908 635 938 l 635 778 l 718 778 q 732 764 732 778 l 732 753 q 718 739 732 739 l 635 739 l 635 92 q 644 53 635 63 q 682 38 653 43 l 714 32 q 732 15 732 28 q 711 0 732 0 l 457 0 q 436 17 436 0 q 451 32 436 29 l 489 38 q 527 53 518 42 q 536 93 536 64 l 536 478 q 517 497 536 497 l 242 497 q 222 478 222 497 l 222 93 q 231 53 222 64 q 269 38 240 42 l 307 32 q 322 17 322 29 q 301 0 322 0 l 47 0 m 242 539 l 517 539 q 536 558 536 539 l 536 739 l 222 739 l 222 558 q 242 539 222 539 z "},"I":{"ha":346,"x_min":26,"x_max":319,"o":"m 47 0 q 26 15 26 0 q 44 32 26 28 l 76 38 q 115 53 106 43 q 124 92 124 63 l 124 908 q 115 947 124 938 q 76 963 106 957 l 44 968 q 26 985 26 972 q 47 1000 26 1000 l 299 1000 q 319 985 319 1000 q 301 968 319 972 l 269 963 q 231 947 240 957 q 222 908 222 938 l 222 92 q 231 53 222 63 q 269 38 240 43 l 301 32 q 319 15 319 28 q 299 0 319 0 l 47 0 z "},"Ĳ":{"ha":692,"x_min":26,"x_max":665,"o":"m 47 0 q 26 15 26 0 q 44 32 26 28 l 76 38 q 115 53 106 43 q 124 92 124 63 l 124 908 q 115 947 124 938 q 76 963 106 957 l 44 968 q 26 985 26 972 q 47 1000 26 1000 l 299 1000 q 319 985 319 1000 q 301 968 319 972 l 269 963 q 231 947 240 957 q 222 908 222 938 l 222 92 q 231 53 222 63 q 269 38 240 43 l 301 32 q 319 15 319 28 q 299 0 319 0 l 47 0 m 365 -299 q 295 -276 322 -299 q 268 -215 268 -253 q 284 -169 268 -187 q 325 -151 300 -151 q 358 -165 349 -151 q 374 -197 368 -179 q 389 -229 381 -215 q 415 -243 397 -243 q 456 -212 442 -243 q 469 -126 469 -182 l 469 908 q 460 947 469 938 q 422 963 451 957 l 390 968 q 372 985 372 972 q 393 1000 372 1000 l 644 1000 q 665 985 665 1000 q 647 968 665 972 l 615 963 q 577 947 586 957 q 568 908 568 938 l 568 61 q 514 -202 568 -106 q 365 -299 460 -299 z "},"Í":{"ha":346,"x_min":4,"x_max":336,"o":"m 47 0 q 26 15 26 0 q 44 32 26 28 l 76 38 q 115 53 106 43 q 124 92 124 63 l 124 908 q 115 947 124 938 q 76 963 106 957 l 44 968 q 26 985 26 972 q 47 1000 26 1000 l 299 1000 q 319 985 319 1000 q 301 968 319 972 l 269 963 q 231 947 240 957 q 222 908 222 938 l 222 92 q 231 53 222 63 q 269 38 240 43 l 301 32 q 319 15 319 28 q 299 0 319 0 l 47 0 m 46 1106 q 14 1111 22 1096 q 26 1142 4 1126 l 226 1297 q 253 1314 240 1308 q 283 1319 265 1319 q 322 1305 308 1319 q 336 1274 336 1290 q 327 1242 336 1256 q 293 1218 318 1229 l 46 1106 z "},"Î":{"ha":346,"x_min":-50,"x_max":396,"o":"m 47 0 q 26 15 26 0 q 44 32 26 28 l 76 38 q 115 53 106 43 q 124 92 124 63 l 124 908 q 115 947 124 938 q 76 963 106 957 l 44 968 q 26 985 26 972 q 47 1000 26 1000 l 299 1000 q 319 985 319 1000 q 301 968 319 972 l 269 963 q 231 947 240 957 q 222 908 222 938 l 222 92 q 231 53 222 63 q 269 38 240 43 l 301 32 q 319 15 319 28 q 299 0 319 0 l 47 0 m -12 1106 q -40 1108 -29 1094 q -36 1135 -50 1119 l 125 1304 q 160 1319 140 1319 l 186 1319 q 221 1304 206 1319 l 382 1135 q 386 1108 396 1119 q 358 1107 378 1094 l 172 1232 l -12 1106 z "},"Ï":{"ha":346,"x_min":-28,"x_max":374,"o":"m 47 0 q 26 15 26 0 q 44 32 26 28 l 76 38 q 115 53 106 43 q 124 92 124 63 l 124 908 q 115 947 124 938 q 76 963 106 957 l 44 968 q 26 985 26 972 q 47 1000 26 1000 l 299 1000 q 319 985 319 1000 q 301 968 319 972 l 269 963 q 231 947 240 957 q 222 908 222 938 l 222 92 q 231 53 222 63 q 269 38 240 43 l 301 32 q 319 15 319 28 q 299 0 319 0 l 47 0 m 42 1132 q -8 1152 13 1132 q -28 1203 -28 1172 q -8 1253 -28 1233 q 42 1272 13 1272 q 90 1253 71 1272 q 110 1203 110 1233 q 90 1152 110 1172 q 42 1132 71 1132 m 306 1132 q 256 1152 276 1132 q 236 1203 236 1172 q 256 1253 236 1233 q 306 1272 276 1272 q 354 1253 335 1272 q 374 1203 374 1233 q 354 1152 374 1172 q 306 1132 335 1132 z "},"İ":{"ha":346,"x_min":26,"x_max":319,"o":"m 47 0 q 26 15 26 0 q 44 32 26 28 l 76 38 q 115 53 106 43 q 124 92 124 63 l 124 908 q 115 947 124 938 q 76 963 106 957 l 44 968 q 26 985 26 972 q 47 1000 26 1000 l 299 1000 q 319 985 319 1000 q 301 968 319 972 l 269 963 q 231 947 240 957 q 222 908 222 938 l 222 92 q 231 53 222 63 q 269 38 240 43 l 301 32 q 319 15 319 28 q 299 0 319 0 l 47 0 m 174 1132 q 124 1153 144 1132 q 104 1206 104 1174 q 124 1258 104 1238 q 174 1278 144 1278 q 222 1258 203 1278 q 242 1206 242 1238 q 222 1153 242 1174 q 174 1132 203 1132 z "},"Ì":{"ha":346,"x_min":10,"x_max":342,"o":"m 47 0 q 26 15 26 0 q 44 32 26 28 l 76 38 q 115 53 106 43 q 124 92 124 63 l 124 908 q 115 947 124 938 q 76 963 106 957 l 44 968 q 26 985 26 972 q 47 1000 26 1000 l 299 1000 q 319 985 319 1000 q 301 968 319 972 l 269 963 q 231 947 240 957 q 222 908 222 938 l 222 92 q 231 53 222 63 q 269 38 240 43 l 301 32 q 319 15 319 28 q 299 0 319 0 l 47 0 m 300 1106 l 53 1218 q 19 1242 28 1229 q 10 1274 10 1256 q 24 1305 10 1290 q 63 1319 38 1319 q 93 1314 81 1319 q 119 1297 106 1308 l 319 1142 q 332 1111 342 1126 q 300 1106 324 1096 z "},"Ī":{"ha":346,"x_min":-29,"x_max":375,"o":"m 47 0 q 26 15 26 0 q 44 32 26 28 l 76 38 q 115 53 106 43 q 124 92 124 63 l 124 908 q 115 947 124 938 q 76 963 106 957 l 44 968 q 26 985 26 972 q 47 1000 26 1000 l 299 1000 q 319 985 319 1000 q 301 968 319 972 l 269 963 q 231 947 240 957 q 222 908 222 938 l 222 92 q 231 53 222 63 q 269 38 240 43 l 301 32 q 319 15 319 28 q 299 0 319 0 l 47 0 m -12 1175 q -29 1192 -29 1175 l -29 1213 q -12 1229 -29 1229 l 358 1229 q 375 1213 375 1229 l 375 1192 q 358 1175 375 1175 l -12 1175 z "},"Į":{"ha":346,"x_min":26,"x_max":319,"o":"m 47 0 q 26 15 26 0 q 44 32 26 28 l 76 38 q 115 53 106 43 q 124 92 124 63 l 124 908 q 115 947 124 938 q 76 963 106 957 l 44 968 q 26 985 26 972 q 47 1000 26 1000 l 299 1000 q 319 985 319 1000 q 301 968 319 972 l 269 963 q 231 947 240 957 q 222 908 222 938 l 222 92 q 231 53 222 63 q 269 38 240 43 l 301 32 q 319 15 319 28 q 299 0 319 0 l 47 0 m 139 -300 q 68 -275 100 -300 q 36 -199 36 -250 q 59 -118 36 -160 q 121 -41 82 -76 q 208 14 160 -6 l 222 0 q 131 -83 161 -35 q 100 -185 100 -132 q 115 -242 100 -225 q 154 -258 131 -258 q 213 -229 188 -258 q 240 -225 228 -210 q 233 -254 249 -237 q 192 -288 214 -276 q 139 -300 169 -300 z "},"J":{"ha":346,"x_min":-78,"x_max":319,"o":"m 19 -299 q -51 -276 -24 -299 q -78 -215 -78 -253 q -62 -169 -78 -187 q -21 -151 -46 -151 q 13 -165 3 -151 q 28 -197 22 -179 q 43 -229 35 -215 q 69 -243 51 -243 q 110 -212 96 -243 q 124 -126 124 -182 l 124 908 q 115 947 124 938 q 76 963 106 957 l 44 968 q 26 985 26 972 q 47 1000 26 1000 l 299 1000 q 319 985 319 1000 q 301 968 319 972 l 269 963 q 231 947 240 957 q 222 908 222 938 l 222 61 q 168 -202 222 -106 q 19 -299 114 -299 z "},"K":{"ha":689,"x_min":26,"x_max":717,"o":"m 47 0 q 26 15 26 0 q 44 32 26 28 l 76 38 q 115 53 106 43 q 124 92 124 63 l 124 908 q 115 947 124 938 q 76 963 106 957 l 44 968 q 26 985 26 972 q 47 1000 26 1000 l 301 1000 q 322 983 322 1000 q 307 968 322 971 l 269 963 q 231 947 240 958 q 222 907 222 936 l 222 532 q 231 515 222 518 q 246 525 239 513 l 474 882 q 465 963 519 953 l 433 968 q 415 986 415 972 q 435 1000 415 1000 l 671 1000 q 690 985 690 1000 q 672 968 690 969 l 646 965 q 575 940 603 961 q 513 865 547 919 l 356 619 q 354 574 342 596 l 615 82 q 638 50 626 60 q 667 38 650 40 l 700 32 q 717 15 717 31 q 697 0 717 0 l 450 0 q 431 15 431 0 q 449 32 431 29 l 472 35 q 494 103 526 42 l 294 483 q 282 495 289 494 q 268 485 275 496 l 239 439 q 226 413 229 425 q 222 381 222 400 l 222 93 q 231 53 222 64 q 269 38 240 42 l 307 32 q 322 17 322 29 q 301 0 322 0 l 47 0 z "},"Ķ":{"ha":689,"x_min":26,"x_max":717,"o":"m 47 0 q 26 15 26 0 q 44 32 26 28 l 76 38 q 115 53 106 43 q 124 92 124 63 l 124 908 q 115 947 124 938 q 76 963 106 957 l 44 968 q 26 985 26 972 q 47 1000 26 1000 l 301 1000 q 322 983 322 1000 q 307 968 322 971 l 269 963 q 231 947 240 958 q 222 907 222 936 l 222 532 q 231 515 222 518 q 246 525 239 513 l 474 882 q 465 963 519 953 l 433 968 q 415 986 415 972 q 435 1000 415 1000 l 671 1000 q 690 985 690 1000 q 672 968 690 969 l 646 965 q 575 940 603 961 q 513 865 547 919 l 356 619 q 354 574 342 596 l 615 82 q 638 50 626 60 q 667 38 650 40 l 700 32 q 717 15 717 31 q 697 0 717 0 l 450 0 q 431 15 431 0 q 449 32 431 29 l 472 35 q 494 103 526 42 l 294 483 q 282 495 289 494 q 268 485 275 496 l 239 439 q 226 413 229 425 q 222 381 222 400 l 222 93 q 231 53 222 64 q 269 38 240 42 l 307 32 q 322 17 322 29 q 301 0 322 0 l 47 0 m 374 -93 q 428 -122 408 -93 q 449 -193 449 -150 q 420 -312 449 -261 q 329 -415 392 -362 q 301 -421 313 -429 q 306 -394 289 -411 q 361 -328 346 -354 q 376 -275 376 -301 q 366 -240 376 -253 q 342 -219 356 -228 q 317 -197 328 -210 q 307 -158 307 -183 q 326 -112 307 -131 q 374 -93 344 -93 z "},"L":{"ha":574,"x_min":26,"x_max":550,"o":"m 47 0 q 26 15 26 0 q 44 32 26 28 l 76 38 q 115 53 106 43 q 124 92 124 63 l 124 908 q 115 947 124 938 q 76 963 106 957 l 44 968 q 26 985 26 972 q 47 1000 26 1000 l 301 1000 q 322 983 322 1000 q 307 968 322 971 l 269 963 q 231 947 240 958 q 222 907 222 936 l 222 129 q 251 57 222 79 q 322 35 279 35 q 388 48 354 35 q 450 98 422 61 q 492 206 478 135 l 510 299 q 531 317 514 317 q 547 293 550 317 l 531 32 q 496 0 528 0 l 47 0 z "},"Ĺ":{"ha":574,"x_min":4,"x_max":550,"o":"m 47 0 q 26 15 26 0 q 44 32 26 28 l 76 38 q 115 53 106 43 q 124 92 124 63 l 124 908 q 115 947 124 938 q 76 963 106 957 l 44 968 q 26 985 26 972 q 47 1000 26 1000 l 301 1000 q 322 983 322 1000 q 307 968 322 971 l 269 963 q 231 947 240 958 q 222 907 222 936 l 222 129 q 251 57 222 79 q 322 35 279 35 q 388 48 354 35 q 450 98 422 61 q 492 206 478 135 l 510 299 q 531 317 514 317 q 547 293 550 317 l 531 32 q 496 0 528 0 l 47 0 m 46 1106 q 14 1111 22 1096 q 26 1142 4 1126 l 226 1297 q 253 1314 240 1308 q 283 1319 265 1319 q 322 1305 308 1319 q 336 1274 336 1290 q 327 1242 336 1256 q 293 1218 318 1229 l 46 1106 z "},"Ľ":{"ha":574,"x_min":26,"x_max":550,"o":"m 47 0 q 26 15 26 0 q 44 32 26 28 l 76 38 q 115 53 106 43 q 124 92 124 63 l 124 908 q 115 947 124 938 q 76 963 106 957 l 44 968 q 26 985 26 972 q 47 1000 26 1000 l 301 1000 q 322 983 322 1000 q 307 968 322 971 l 269 963 q 231 947 240 958 q 222 907 222 936 l 222 129 q 251 57 222 79 q 322 35 279 35 q 388 48 354 35 q 450 98 422 61 q 492 206 478 135 l 510 299 q 531 317 514 317 q 547 293 550 317 l 531 32 q 496 0 528 0 l 47 0 m 456 699 q 432 682 451 682 q 415 704 415 682 l 421 929 q 437 983 422 965 q 474 1000 451 1000 q 510 979 500 1000 q 511 924 519 958 l 456 699 z "},"Ļ":{"ha":574,"x_min":26,"x_max":550,"o":"m 47 0 q 26 15 26 0 q 44 32 26 28 l 76 38 q 115 53 106 43 q 124 92 124 63 l 124 908 q 115 947 124 938 q 76 963 106 957 l 44 968 q 26 985 26 972 q 47 1000 26 1000 l 301 1000 q 322 983 322 1000 q 307 968 322 971 l 269 963 q 231 947 240 958 q 222 907 222 936 l 222 129 q 251 57 222 79 q 322 35 279 35 q 388 48 354 35 q 450 98 422 61 q 492 206 478 135 l 510 299 q 531 317 514 317 q 547 293 550 317 l 531 32 q 496 0 528 0 l 47 0 m 289 -93 q 344 -122 324 -93 q 364 -193 364 -150 q 335 -312 364 -261 q 244 -415 307 -362 q 217 -421 228 -429 q 221 -394 204 -411 q 276 -328 261 -354 q 292 -275 292 -301 q 281 -240 292 -253 q 257 -219 271 -228 q 233 -197 243 -210 q 222 -158 222 -183 q 241 -112 222 -131 q 289 -93 260 -93 z "},"Ł":{"ha":574,"x_min":10,"x_max":550,"o":"m 47 0 q 26 15 26 0 q 44 32 26 28 l 76 38 q 115 53 106 43 q 124 92 124 63 l 124 444 l 42 393 q 24 397 31 386 l 17 407 q 21 426 10 419 l 124 490 l 124 908 q 115 947 124 938 q 76 963 106 957 l 44 968 q 26 985 26 972 q 47 1000 26 1000 l 301 1000 q 322 983 322 1000 q 307 968 322 971 l 269 963 q 231 947 240 958 q 222 907 222 936 l 222 556 l 346 633 q 364 629 357 640 l 371 619 q 367 600 378 607 l 222 510 l 222 129 q 251 57 222 79 q 322 35 279 35 q 388 48 354 35 q 450 98 422 61 q 492 206 478 135 l 510 299 q 531 317 514 317 q 547 293 550 317 l 531 32 q 496 0 528 0 l 47 0 z "},"M":{"ha":924,"x_min":19,"x_max":904,"o":"m 438 14 q 425 18 432 14 q 415 36 418 22 l 206 888 q 197 897 204 897 q 190 886 190 896 l 163 119 q 175 60 161 81 q 224 35 189 40 l 242 32 q 260 15 260 31 q 239 0 260 0 l 40 0 q 19 15 19 0 q 38 32 19 31 l 56 35 q 105 60 92 40 q 119 119 118 81 l 147 908 q 139 947 149 938 q 97 963 129 957 l 65 968 q 47 985 47 972 q 68 1000 47 1000 l 235 1000 q 288 958 278 1000 l 456 265 q 465 256 458 256 q 472 265 471 256 l 647 965 q 692 1000 656 1000 l 856 1000 q 876 985 876 1000 q 858 968 876 972 l 826 963 q 788 947 797 957 q 779 908 778 938 l 807 92 q 817 53 808 63 q 854 38 825 43 l 886 32 q 904 15 904 28 q 883 0 904 0 l 632 0 q 611 15 611 0 q 629 32 611 28 l 661 38 q 700 53 690 43 q 708 92 710 63 l 685 886 q 678 897 685 896 q 669 889 672 897 l 458 36 q 449 18 456 22 q 438 14 443 14 z "},"N":{"ha":750,"x_min":22,"x_max":728,"o":"m 596 -12 q 558 21 574 -12 l 182 838 q 172 846 178 847 q 165 833 165 844 l 165 119 q 178 60 165 81 q 226 35 192 40 l 244 32 q 263 15 263 31 q 242 0 263 0 l 43 0 q 22 15 22 0 q 40 32 22 31 l 58 35 q 108 60 94 40 q 122 119 122 81 l 122 908 q 113 947 122 938 q 72 963 104 957 l 40 968 q 22 985 22 972 q 43 1000 22 1000 l 192 1000 q 240 969 226 1000 l 568 249 q 578 242 572 240 q 585 251 585 243 l 585 881 q 569 942 585 925 q 531 964 554 960 l 506 968 q 488 985 488 972 q 508 1000 488 1000 l 707 1000 q 728 985 728 1000 q 710 968 728 969 l 692 965 q 642 942 656 960 q 628 881 628 925 l 628 32 q 619 -3 628 7 q 596 -12 610 -12 z "},"Ń":{"ha":750,"x_min":22,"x_max":728,"o":"m 596 -12 q 558 21 574 -12 l 182 838 q 172 846 178 847 q 165 833 165 844 l 165 119 q 178 60 165 81 q 226 35 192 40 l 244 32 q 263 15 263 31 q 242 0 263 0 l 43 0 q 22 15 22 0 q 40 32 22 31 l 58 35 q 108 60 94 40 q 122 119 122 81 l 122 908 q 113 947 122 938 q 72 963 104 957 l 40 968 q 22 985 22 972 q 43 1000 22 1000 l 192 1000 q 240 969 226 1000 l 568 249 q 578 242 572 240 q 585 251 585 243 l 585 881 q 569 942 585 925 q 531 964 554 960 l 506 968 q 488 985 488 972 q 508 1000 488 1000 l 707 1000 q 728 985 728 1000 q 710 968 728 969 l 692 965 q 642 942 656 960 q 628 881 628 925 l 628 32 q 619 -3 628 7 q 596 -12 610 -12 m 247 1106 q 215 1111 224 1096 q 228 1142 206 1126 l 428 1297 q 454 1314 442 1308 q 485 1319 467 1319 q 524 1305 510 1319 q 538 1274 538 1290 q 528 1242 538 1256 q 494 1218 519 1229 l 247 1106 z "},"Ň":{"ha":750,"x_min":22,"x_max":728,"o":"m 596 -12 q 558 21 574 -12 l 182 838 q 172 846 178 847 q 165 833 165 844 l 165 119 q 178 60 165 81 q 226 35 192 40 l 244 32 q 263 15 263 31 q 242 0 263 0 l 43 0 q 22 15 22 0 q 40 32 22 31 l 58 35 q 108 60 94 40 q 122 119 122 81 l 122 908 q 113 947 122 938 q 72 963 104 957 l 40 968 q 22 985 22 972 q 43 1000 22 1000 l 192 1000 q 240 969 226 1000 l 568 249 q 578 242 572 240 q 585 251 585 243 l 585 881 q 569 942 585 925 q 531 964 554 960 l 506 968 q 488 985 488 972 q 508 1000 488 1000 l 707 1000 q 728 985 728 1000 q 710 968 728 969 l 692 965 q 642 942 656 960 q 628 881 628 925 l 628 32 q 619 -3 628 7 q 596 -12 610 -12 m 361 1101 q 326 1117 342 1101 l 165 1286 q 161 1313 151 1301 q 189 1315 172 1326 l 374 1189 l 560 1314 q 588 1313 579 1326 q 583 1286 597 1301 l 422 1117 q 388 1101 407 1101 l 361 1101 z "},"Ņ":{"ha":750,"x_min":22,"x_max":728,"o":"m 596 -12 q 558 21 574 -12 l 182 838 q 172 846 178 847 q 165 833 165 844 l 165 119 q 178 60 165 81 q 226 35 192 40 l 244 32 q 263 15 263 31 q 242 0 263 0 l 43 0 q 22 15 22 0 q 40 32 22 31 l 58 35 q 108 60 94 40 q 122 119 122 81 l 122 908 q 113 947 122 938 q 72 963 104 957 l 40 968 q 22 985 22 972 q 43 1000 22 1000 l 192 1000 q 240 969 226 1000 l 568 249 q 578 242 572 240 q 585 251 585 243 l 585 881 q 569 942 585 925 q 531 964 554 960 l 506 968 q 488 985 488 972 q 508 1000 488 1000 l 707 1000 q 728 985 728 1000 q 710 968 728 969 l 692 965 q 642 942 656 960 q 628 881 628 925 l 628 32 q 619 -3 628 7 q 596 -12 610 -12 m 376 -93 q 431 -122 411 -93 q 451 -193 451 -150 q 423 -312 451 -261 q 332 -415 394 -362 q 304 -421 315 -429 q 308 -394 292 -411 q 364 -328 349 -354 q 379 -275 379 -301 q 369 -240 379 -253 q 344 -219 358 -228 q 320 -197 331 -210 q 310 -158 310 -183 q 328 -112 310 -131 q 376 -93 347 -93 z "},"Ñ":{"ha":750,"x_min":22,"x_max":728,"o":"m 596 -12 q 558 21 574 -12 l 182 838 q 172 846 178 847 q 165 833 165 844 l 165 119 q 178 60 165 81 q 226 35 192 40 l 244 32 q 263 15 263 31 q 242 0 263 0 l 43 0 q 22 15 22 0 q 40 32 22 31 l 58 35 q 108 60 94 40 q 122 119 122 81 l 122 908 q 113 947 122 938 q 72 963 104 957 l 40 968 q 22 985 22 972 q 43 1000 22 1000 l 192 1000 q 240 969 226 1000 l 568 249 q 578 242 572 240 q 585 251 585 243 l 585 881 q 569 942 585 925 q 531 964 554 960 l 506 968 q 488 985 488 972 q 508 1000 488 1000 l 707 1000 q 728 985 728 1000 q 710 968 728 969 l 692 965 q 642 942 656 960 q 628 881 628 925 l 628 32 q 619 -3 628 7 q 596 -12 610 -12 m 463 1121 q 402 1135 426 1121 q 358 1166 378 1149 q 318 1197 339 1183 q 268 1211 297 1211 q 214 1194 233 1211 q 182 1140 194 1176 q 163 1124 176 1124 q 149 1144 144 1124 q 199 1252 163 1215 q 288 1289 236 1289 q 347 1275 322 1289 q 392 1244 371 1261 q 434 1213 413 1226 q 482 1199 456 1199 q 536 1216 517 1199 q 568 1269 556 1233 q 588 1286 575 1286 q 601 1265 606 1286 q 551 1158 588 1194 q 463 1121 515 1121 z "},"Ŋ":{"ha":750,"x_min":22,"x_max":728,"o":"m 429 -299 q 363 -278 389 -299 q 336 -224 336 -257 q 351 -183 336 -200 q 390 -165 365 -165 q 422 -177 413 -165 q 438 -204 432 -189 q 452 -231 443 -219 q 479 -243 461 -243 q 519 -212 506 -243 q 533 -126 533 -182 l 533 72 q 524 114 533 93 l 182 838 q 172 846 178 847 q 165 833 165 844 l 165 119 q 178 60 165 81 q 226 35 192 40 l 244 32 q 263 15 263 31 q 242 0 263 0 l 43 0 q 22 15 22 0 q 40 32 22 31 l 58 35 q 108 60 94 40 q 122 119 122 81 l 122 908 q 113 947 122 938 q 72 963 104 957 l 40 968 q 22 985 22 972 q 43 1000 22 1000 l 178 1000 q 226 969 211 1000 l 568 249 q 578 242 572 240 q 585 251 585 243 l 585 881 q 569 942 585 925 q 531 964 554 960 l 506 968 q 488 985 488 972 q 508 1000 488 1000 l 707 1000 q 728 985 728 1000 q 710 968 728 969 l 692 965 q 642 942 656 960 q 628 881 628 925 l 628 61 q 574 -202 628 -106 q 429 -299 519 -299 z "},"O":{"ha":750,"x_min":56,"x_max":694,"o":"m 375 -12 q 250 27 308 -12 q 148 136 192 67 q 80 299 104 206 q 56 501 56 393 q 80 703 56 610 q 148 866 104 796 q 250 975 192 936 q 375 1014 308 1014 q 499 975 442 1014 q 601 866 557 936 q 670 703 646 796 q 694 501 694 610 q 670 299 694 393 q 601 136 646 206 q 499 27 557 67 q 375 -12 442 -12 m 375 25 q 529 143 474 25 q 585 501 585 261 q 529 859 585 742 q 375 976 474 976 q 222 859 278 976 q 165 501 165 742 q 222 143 165 261 q 375 25 278 25 z "},"Ó":{"ha":750,"x_min":56,"x_max":694,"o":"m 375 -12 q 250 27 308 -12 q 148 136 192 67 q 80 299 104 206 q 56 501 56 393 q 80 703 56 610 q 148 866 104 796 q 250 975 192 936 q 375 1014 308 1014 q 499 975 442 1014 q 601 866 557 936 q 670 703 646 796 q 694 501 694 610 q 670 299 694 393 q 601 136 646 206 q 499 27 557 67 q 375 -12 442 -12 m 375 25 q 529 143 474 25 q 585 501 585 261 q 529 859 585 742 q 375 976 474 976 q 222 859 278 976 q 165 501 165 742 q 222 143 165 261 q 375 25 278 25 m 247 1106 q 215 1111 224 1096 q 228 1142 206 1126 l 428 1297 q 454 1314 442 1308 q 485 1319 467 1319 q 524 1305 510 1319 q 538 1274 538 1290 q 528 1242 538 1256 q 494 1218 519 1229 l 247 1106 z "},"Ô":{"ha":750,"x_min":56,"x_max":694,"o":"m 375 -12 q 250 27 308 -12 q 148 136 192 67 q 80 299 104 206 q 56 501 56 393 q 80 703 56 610 q 148 866 104 796 q 250 975 192 936 q 375 1014 308 1014 q 499 975 442 1014 q 601 866 557 936 q 670 703 646 796 q 694 501 694 610 q 670 299 694 393 q 601 136 646 206 q 499 27 557 67 q 375 -12 442 -12 m 375 25 q 529 143 474 25 q 585 501 585 261 q 529 859 585 742 q 375 976 474 976 q 222 859 278 976 q 165 501 165 742 q 222 143 165 261 q 375 25 278 25 m 189 1106 q 161 1108 172 1094 q 165 1135 151 1119 l 326 1304 q 361 1319 342 1319 l 388 1319 q 422 1304 407 1319 l 583 1135 q 588 1108 597 1119 q 560 1107 579 1094 l 374 1232 l 189 1106 z "},"Ö":{"ha":750,"x_min":56,"x_max":694,"o":"m 375 -12 q 250 27 308 -12 q 148 136 192 67 q 80 299 104 206 q 56 501 56 393 q 80 703 56 610 q 148 866 104 796 q 250 975 192 936 q 375 1014 308 1014 q 499 975 442 1014 q 601 866 557 936 q 670 703 646 796 q 694 501 694 610 q 670 299 694 393 q 601 136 646 206 q 499 27 557 67 q 375 -12 442 -12 m 375 25 q 529 143 474 25 q 585 501 585 261 q 529 859 585 742 q 375 976 474 976 q 222 859 278 976 q 165 501 165 742 q 222 143 165 261 q 375 25 278 25 m 243 1132 q 194 1152 214 1132 q 174 1203 174 1172 q 194 1253 174 1233 q 243 1272 214 1272 q 292 1253 272 1272 q 311 1203 311 1233 q 292 1152 311 1172 q 243 1132 272 1132 m 507 1132 q 458 1152 478 1132 q 438 1203 438 1172 q 458 1253 438 1233 q 507 1272 478 1272 q 556 1253 536 1272 q 575 1203 575 1233 q 556 1152 575 1172 q 507 1132 536 1132 z "},"Ò":{"ha":750,"x_min":56,"x_max":694,"o":"m 375 -12 q 250 27 308 -12 q 148 136 192 67 q 80 299 104 206 q 56 501 56 393 q 80 703 56 610 q 148 866 104 796 q 250 975 192 936 q 375 1014 308 1014 q 499 975 442 1014 q 601 866 557 936 q 670 703 646 796 q 694 501 694 610 q 670 299 694 393 q 601 136 646 206 q 499 27 557 67 q 375 -12 442 -12 m 375 25 q 529 143 474 25 q 585 501 585 261 q 529 859 585 742 q 375 976 474 976 q 222 859 278 976 q 165 501 165 742 q 222 143 165 261 q 375 25 278 25 m 501 1106 l 254 1218 q 220 1242 229 1229 q 211 1274 211 1256 q 225 1305 211 1290 q 264 1319 239 1319 q 294 1314 282 1319 q 321 1297 307 1308 l 521 1142 q 533 1111 543 1126 q 501 1106 525 1096 z "},"Ő":{"ha":750,"x_min":56,"x_max":694,"o":"m 375 -12 q 250 27 308 -12 q 148 136 192 67 q 80 299 104 206 q 56 501 56 393 q 80 703 56 610 q 148 866 104 796 q 250 975 192 936 q 375 1014 308 1014 q 499 975 442 1014 q 601 866 557 936 q 670 703 646 796 q 694 501 694 610 q 670 299 694 393 q 601 136 646 206 q 499 27 557 67 q 375 -12 442 -12 m 375 25 q 529 143 474 25 q 585 501 585 261 q 529 859 585 742 q 375 976 474 976 q 222 859 278 976 q 165 501 165 742 q 222 143 165 261 q 375 25 278 25 m 251 1111 q 221 1106 233 1097 q 219 1138 208 1114 l 292 1269 q 320 1308 306 1296 q 357 1319 335 1319 q 394 1307 381 1319 q 407 1276 407 1294 q 368 1211 407 1244 l 251 1111 m 460 1111 q 429 1106 442 1097 q 428 1138 417 1114 l 500 1269 q 528 1308 514 1296 q 565 1319 543 1319 q 602 1307 589 1319 q 615 1276 615 1294 q 576 1211 615 1244 l 460 1111 z "},"Ō":{"ha":750,"x_min":56,"x_max":694,"o":"m 375 -12 q 250 27 308 -12 q 148 136 192 67 q 80 299 104 206 q 56 501 56 393 q 80 703 56 610 q 148 866 104 796 q 250 975 192 936 q 375 1014 308 1014 q 499 975 442 1014 q 601 866 557 936 q 670 703 646 796 q 694 501 694 610 q 670 299 694 393 q 601 136 646 206 q 499 27 557 67 q 375 -12 442 -12 m 375 25 q 529 143 474 25 q 585 501 585 261 q 529 859 585 742 q 375 976 474 976 q 222 859 278 976 q 165 501 165 742 q 222 143 165 261 q 375 25 278 25 m 189 1175 q 172 1192 172 1175 l 172 1213 q 189 1229 172 1229 l 560 1229 q 576 1213 576 1229 l 576 1192 q 560 1175 576 1175 l 189 1175 z "},"Ø":{"ha":750,"x_min":56,"x_max":694,"o":"m 119 -83 q 108 -67 101 -83 l 178 94 q 88 270 121 164 q 56 501 56 376 q 80 703 56 610 q 148 866 104 796 q 250 975 192 936 q 375 1014 308 1014 q 463 995 421 1014 q 540 942 504 976 l 601 1086 q 617 1097 606 1097 l 632 1097 q 643 1081 650 1097 l 569 910 q 660 734 626 840 q 694 501 694 628 q 670 299 694 393 q 601 136 646 206 q 499 27 557 67 q 375 -12 442 -12 q 286 7 329 -12 q 207 61 243 26 l 150 -72 q 135 -83 146 -83 l 119 -83 m 165 501 q 176 312 165 394 q 210 171 188 229 l 515 885 q 375 976 463 976 q 222 859 278 976 q 165 501 165 742 m 375 25 q 529 143 474 25 q 585 501 585 261 q 573 694 585 610 q 539 836 561 778 l 232 121 q 375 25 285 25 z "},"Õ":{"ha":750,"x_min":56,"x_max":694,"o":"m 375 -12 q 250 27 308 -12 q 148 136 192 67 q 80 299 104 206 q 56 501 56 393 q 80 703 56 610 q 148 866 104 796 q 250 975 192 936 q 375 1014 308 1014 q 499 975 442 1014 q 601 866 557 936 q 670 703 646 796 q 694 501 694 610 q 670 299 694 393 q 601 136 646 206 q 499 27 557 67 q 375 -12 442 -12 m 375 25 q 529 143 474 25 q 585 501 585 261 q 529 859 585 742 q 375 976 474 976 q 222 859 278 976 q 165 501 165 742 q 222 143 165 261 q 375 25 278 25 m 463 1121 q 402 1135 426 1121 q 358 1166 378 1149 q 318 1197 339 1183 q 268 1211 297 1211 q 214 1194 233 1211 q 182 1140 194 1176 q 163 1124 176 1124 q 149 1144 144 1124 q 199 1252 163 1215 q 288 1289 236 1289 q 347 1275 322 1289 q 392 1244 371 1261 q 434 1213 413 1226 q 482 1199 456 1199 q 536 1216 517 1199 q 568 1269 556 1233 q 588 1286 575 1286 q 601 1265 606 1286 q 551 1158 588 1194 q 463 1121 515 1121 z "},"Œ":{"ha":1046,"x_min":56,"x_max":1003,"o":"m 381 -12 q 249 26 308 -12 q 146 135 189 65 q 79 299 103 206 q 56 499 56 392 q 97 760 56 643 q 211 944 138 876 q 381 1013 285 1013 q 458 1006 422 1013 q 540 1000 493 1000 l 931 1000 q 965 968 963 1000 l 976 738 q 958 714 979 714 q 939 732 942 714 l 931 783 q 868 922 915 878 q 738 965 821 965 q 660 949 682 965 q 639 893 639 933 l 639 558 q 658 539 639 539 l 728 539 q 803 604 789 539 l 817 674 q 840 692 822 694 q 856 668 856 689 l 856 356 q 840 332 856 335 q 817 350 822 329 l 803 418 q 776 482 793 467 q 726 497 758 497 l 658 497 q 639 478 639 497 l 639 129 q 665 57 639 79 q 758 35 690 35 q 877 70 828 35 q 946 203 926 106 l 963 285 q 983 303 967 303 q 1000 279 1003 303 l 986 32 q 951 0 983 0 l 540 0 q 458 -6 493 0 q 381 -12 422 -12 m 386 25 q 498 59 456 25 q 540 161 540 93 l 540 839 q 498 942 540 910 q 386 975 456 975 q 217 857 269 975 q 165 499 165 739 q 217 142 165 260 q 386 25 269 25 z "},"P":{"ha":647,"x_min":26,"x_max":614,"o":"m 47 0 q 26 15 26 0 q 44 32 26 28 l 76 38 q 115 53 106 43 q 124 92 124 63 l 124 908 q 115 947 124 938 q 76 963 106 957 l 44 968 q 26 985 26 972 q 47 1000 26 1000 l 338 1000 q 482 965 419 1000 q 579 867 544 929 q 614 722 614 804 q 579 582 614 643 q 483 487 544 521 q 342 453 422 453 l 242 453 q 222 433 222 453 l 222 97 q 233 58 222 68 q 283 40 244 47 l 335 32 q 350 17 350 29 q 329 0 350 0 l 47 0 m 222 564 q 315 488 222 488 q 458 551 406 488 q 510 726 510 615 q 457 903 510 840 q 307 965 404 965 q 222 910 222 965 l 222 564 z "},"Þ":{"ha":647,"x_min":26,"x_max":614,"o":"m 47 0 q 26 15 26 0 q 44 32 26 28 l 76 38 q 115 53 106 43 q 124 92 124 63 l 124 908 q 115 947 124 938 q 76 963 106 957 l 44 968 q 26 985 26 972 q 47 1000 26 1000 l 329 1000 q 350 985 350 1000 q 332 968 350 972 l 269 957 q 231 941 240 951 q 222 901 222 931 l 222 824 q 242 804 222 804 l 338 804 q 482 769 419 804 q 579 671 544 733 q 614 526 614 608 q 579 387 614 447 q 483 292 544 326 q 342 257 422 257 l 242 257 q 222 238 222 257 l 222 99 q 231 59 222 69 q 269 43 240 49 l 332 32 q 350 15 350 28 q 329 0 350 0 l 47 0 m 315 292 q 458 356 406 292 q 510 531 510 419 q 457 707 510 644 q 307 769 404 769 q 222 714 222 769 l 222 368 q 315 292 222 292 z "},"Q":{"ha":750,"x_min":56,"x_max":750,"o":"m 603 -299 q 515 -281 561 -299 q 432 -221 468 -264 q 382 -99 396 -178 q 360 -35 375 -54 q 308 -1 344 -15 q 178 94 236 22 q 88 271 121 165 q 56 501 56 376 q 80 703 56 610 q 148 866 104 796 q 250 975 192 936 q 375 1014 308 1014 q 499 975 442 1014 q 601 866 557 936 q 670 703 646 796 q 694 501 694 610 q 660 266 694 374 q 567 88 626 158 q 433 -4 508 17 q 425 -12 425 -6 q 432 -24 425 -18 q 463 -55 450 -36 q 483 -103 475 -74 q 548 -219 508 -183 q 635 -256 588 -256 q 719 -229 676 -256 q 740 -225 731 -222 q 750 -239 750 -228 q 739 -258 750 -249 q 684 -287 717 -275 q 603 -299 651 -299 m 375 25 q 529 143 474 25 q 585 501 585 261 q 529 859 585 742 q 375 976 474 976 q 222 859 278 976 q 165 501 165 742 q 222 143 165 261 q 375 25 278 25 z "},"R":{"ha":713,"x_min":26,"x_max":726,"o":"m 625 -12 q 471 146 504 -12 l 439 300 q 405 414 424 375 q 353 467 386 453 q 264 481 321 481 q 233 470 244 481 q 222 444 222 460 l 222 97 q 233 58 222 68 q 283 40 244 47 l 335 32 q 350 17 350 29 q 329 0 350 0 l 47 0 q 26 15 26 0 q 44 32 26 28 l 76 38 q 115 53 106 43 q 124 92 124 63 l 124 908 q 115 947 124 938 q 76 963 106 957 l 44 968 q 26 985 26 972 q 47 1000 26 1000 l 329 1000 q 475 968 411 1000 q 575 880 539 936 q 611 750 611 824 q 558 592 611 663 q 425 493 506 522 q 415 484 415 490 q 424 474 414 478 q 494 415 468 453 q 533 315 519 378 l 564 174 q 600 71 579 101 q 653 40 621 40 q 673 44 664 40 q 696 57 682 47 q 717 60 707 64 q 726 46 726 57 q 696 5 726 22 q 625 -12 665 -12 m 315 515 q 458 578 410 515 q 507 747 507 642 q 451 908 507 850 q 296 965 394 965 q 222 910 222 965 l 222 592 q 315 515 222 515 z "},"Ŕ":{"ha":713,"x_min":26,"x_max":726,"o":"m 625 -12 q 471 146 504 -12 l 439 300 q 405 414 424 375 q 353 467 386 453 q 264 481 321 481 q 233 470 244 481 q 222 444 222 460 l 222 97 q 233 58 222 68 q 283 40 244 47 l 335 32 q 350 17 350 29 q 329 0 350 0 l 47 0 q 26 15 26 0 q 44 32 26 28 l 76 38 q 115 53 106 43 q 124 92 124 63 l 124 908 q 115 947 124 938 q 76 963 106 957 l 44 968 q 26 985 26 972 q 47 1000 26 1000 l 329 1000 q 475 968 411 1000 q 575 880 539 936 q 611 750 611 824 q 558 592 611 663 q 425 493 506 522 q 415 484 415 490 q 424 474 414 478 q 494 415 468 453 q 533 315 519 378 l 564 174 q 600 71 579 101 q 653 40 621 40 q 673 44 664 40 q 696 57 682 47 q 717 60 707 64 q 726 46 726 57 q 696 5 726 22 q 625 -12 665 -12 m 315 515 q 458 578 410 515 q 507 747 507 642 q 451 908 507 850 q 296 965 394 965 q 222 910 222 965 l 222 592 q 315 515 222 515 m 229 1106 q 197 1111 206 1096 q 210 1142 188 1126 l 410 1297 q 436 1314 424 1308 q 467 1319 449 1319 q 506 1305 492 1319 q 519 1274 519 1290 q 510 1242 519 1256 q 476 1218 501 1229 l 229 1106 z "},"Ř":{"ha":713,"x_min":26,"x_max":726,"o":"m 625 -12 q 471 146 504 -12 l 439 300 q 405 414 424 375 q 353 467 386 453 q 264 481 321 481 q 233 470 244 481 q 222 444 222 460 l 222 97 q 233 58 222 68 q 283 40 244 47 l 335 32 q 350 17 350 29 q 329 0 350 0 l 47 0 q 26 15 26 0 q 44 32 26 28 l 76 38 q 115 53 106 43 q 124 92 124 63 l 124 908 q 115 947 124 938 q 76 963 106 957 l 44 968 q 26 985 26 972 q 47 1000 26 1000 l 329 1000 q 475 968 411 1000 q 575 880 539 936 q 611 750 611 824 q 558 592 611 663 q 425 493 506 522 q 415 484 415 490 q 424 474 414 478 q 494 415 468 453 q 533 315 519 378 l 564 174 q 600 71 579 101 q 653 40 621 40 q 673 44 664 40 q 696 57 682 47 q 717 60 707 64 q 726 46 726 57 q 696 5 726 22 q 625 -12 665 -12 m 315 515 q 458 578 410 515 q 507 747 507 642 q 451 908 507 850 q 296 965 394 965 q 222 910 222 965 l 222 592 q 315 515 222 515 m 343 1101 q 308 1117 324 1101 l 147 1286 q 143 1313 133 1301 q 171 1315 154 1326 l 356 1189 l 542 1314 q 569 1313 561 1326 q 565 1286 579 1301 l 404 1117 q 369 1101 389 1101 l 343 1101 z "},"Ŗ":{"ha":713,"x_min":26,"x_max":726,"o":"m 625 -12 q 471 146 504 -12 l 439 300 q 405 414 424 375 q 353 467 386 453 q 264 481 321 481 q 233 470 244 481 q 222 444 222 460 l 222 97 q 233 58 222 68 q 283 40 244 47 l 335 32 q 350 17 350 29 q 329 0 350 0 l 47 0 q 26 15 26 0 q 44 32 26 28 l 76 38 q 115 53 106 43 q 124 92 124 63 l 124 908 q 115 947 124 938 q 76 963 106 957 l 44 968 q 26 985 26 972 q 47 1000 26 1000 l 329 1000 q 475 968 411 1000 q 575 880 539 936 q 611 750 611 824 q 558 592 611 663 q 425 493 506 522 q 415 484 415 490 q 424 474 414 478 q 494 415 468 453 q 533 315 519 378 l 564 174 q 600 71 579 101 q 653 40 621 40 q 673 44 664 40 q 696 57 682 47 q 717 60 707 64 q 726 46 726 57 q 696 5 726 22 q 625 -12 665 -12 m 315 515 q 458 578 410 515 q 507 747 507 642 q 451 908 507 850 q 296 965 394 965 q 222 910 222 965 l 222 592 q 315 515 222 515 m 386 -93 q 441 -122 421 -93 q 461 -193 461 -150 q 433 -312 461 -261 q 342 -415 404 -362 q 314 -421 325 -429 q 318 -394 301 -411 q 374 -328 358 -354 q 389 -275 389 -301 q 378 -240 389 -253 q 354 -219 368 -228 q 330 -197 340 -210 q 319 -158 319 -183 q 338 -112 319 -131 q 386 -93 357 -93 z "},"S":{"ha":565,"x_min":57,"x_max":524,"o":"m 256 -12 q 194 -7 228 -12 q 130 7 160 -1 q 83 25 100 15 q 69 37 74 31 q 64 58 64 43 l 57 276 q 75 304 57 304 q 96 279 90 304 l 108 226 q 285 28 156 28 q 395 74 354 28 q 436 206 436 121 q 394 358 436 288 q 258 499 351 429 q 108 641 156 572 q 61 788 61 710 q 133 952 61 890 q 315 1014 204 1014 q 396 1004 357 1014 q 460 976 435 994 q 473 964 468 971 q 478 946 478 957 l 482 736 q 464 713 482 713 q 446 732 451 713 l 436 767 q 373 923 406 874 q 279 972 340 972 q 184 933 219 972 q 149 824 149 894 q 188 710 149 764 q 324 578 226 656 q 476 415 428 493 q 524 247 524 336 q 489 111 524 169 q 394 20 454 53 q 256 -12 333 -12 z "},"Ś":{"ha":565,"x_min":57,"x_max":524,"o":"m 256 -12 q 194 -7 228 -12 q 130 7 160 -1 q 83 25 100 15 q 69 37 74 31 q 64 58 64 43 l 57 276 q 75 304 57 304 q 96 279 90 304 l 108 226 q 285 28 156 28 q 395 74 354 28 q 436 206 436 121 q 394 358 436 288 q 258 499 351 429 q 108 641 156 572 q 61 788 61 710 q 133 952 61 890 q 315 1014 204 1014 q 396 1004 357 1014 q 460 976 435 994 q 473 964 468 971 q 478 946 478 957 l 482 736 q 464 713 482 713 q 446 732 451 713 l 436 767 q 373 923 406 874 q 279 972 340 972 q 184 933 219 972 q 149 824 149 894 q 188 710 149 764 q 324 578 226 656 q 476 415 428 493 q 524 247 524 336 q 489 111 524 169 q 394 20 454 53 q 256 -12 333 -12 m 190 1106 q 158 1111 167 1096 q 171 1142 149 1126 l 371 1297 q 397 1314 385 1308 q 428 1319 410 1319 q 467 1305 453 1319 q 481 1274 481 1290 q 472 1242 481 1256 q 438 1218 463 1229 l 190 1106 z "},"Š":{"ha":565,"x_min":57,"x_max":540,"o":"m 256 -12 q 194 -7 228 -12 q 130 7 160 -1 q 83 25 100 15 q 69 37 74 31 q 64 58 64 43 l 57 276 q 75 304 57 304 q 96 279 90 304 l 108 226 q 285 28 156 28 q 395 74 354 28 q 436 206 436 121 q 394 358 436 288 q 258 499 351 429 q 108 641 156 572 q 61 788 61 710 q 133 952 61 890 q 315 1014 204 1014 q 396 1004 357 1014 q 460 976 435 994 q 473 964 468 971 q 478 946 478 957 l 482 736 q 464 713 482 713 q 446 732 451 713 l 436 767 q 373 923 406 874 q 279 972 340 972 q 184 933 219 972 q 149 824 149 894 q 188 710 149 764 q 324 578 226 656 q 476 415 428 493 q 524 247 524 336 q 489 111 524 169 q 394 20 454 53 q 256 -12 333 -12 m 304 1101 q 269 1117 285 1101 l 108 1286 q 104 1313 94 1301 q 132 1315 115 1326 l 317 1189 l 503 1314 q 531 1313 522 1326 q 526 1286 540 1301 l 365 1117 q 331 1101 350 1101 l 304 1101 z "},"Ş":{"ha":565,"x_min":57,"x_max":524,"o":"m 256 -12 q 194 -7 228 -12 q 130 7 160 -1 q 83 25 100 15 q 69 37 74 31 q 64 58 64 43 l 57 276 q 75 304 57 304 q 96 279 90 304 l 108 226 q 285 28 156 28 q 395 74 354 28 q 436 206 436 121 q 394 358 436 288 q 258 499 351 429 q 108 641 156 572 q 61 788 61 710 q 133 952 61 890 q 315 1014 204 1014 q 396 1004 357 1014 q 460 976 435 994 q 473 964 468 971 q 478 946 478 957 l 482 736 q 464 713 482 713 q 446 732 451 713 l 436 767 q 373 923 406 874 q 279 972 340 972 q 184 933 219 972 q 149 824 149 894 q 188 710 149 764 q 324 578 226 656 q 476 415 428 493 q 524 247 524 336 q 489 111 524 169 q 394 20 454 53 q 256 -12 333 -12 m 313 17 l 299 -60 q 304 -68 297 -68 q 385 -111 360 -78 q 411 -185 411 -144 q 372 -269 411 -239 q 281 -299 333 -299 q 193 -274 226 -299 q 160 -217 160 -249 q 168 -192 160 -201 q 192 -182 176 -182 q 219 -195 213 -182 q 231 -226 226 -208 q 247 -258 236 -244 q 283 -271 257 -271 q 332 -248 317 -271 q 347 -192 347 -225 q 328 -141 347 -161 q 271 -117 308 -121 q 260 -99 258 -114 l 281 17 l 313 17 z "},"Ș":{"ha":565,"x_min":57,"x_max":524,"o":"m 256 -12 q 194 -7 228 -12 q 130 7 160 -1 q 83 25 100 15 q 69 37 74 31 q 64 58 64 43 l 57 276 q 75 304 57 304 q 96 279 90 304 l 108 226 q 285 28 156 28 q 395 74 354 28 q 436 206 436 121 q 394 358 436 288 q 258 499 351 429 q 108 641 156 572 q 61 788 61 710 q 133 952 61 890 q 315 1014 204 1014 q 396 1004 357 1014 q 460 976 435 994 q 473 964 468 971 q 478 946 478 957 l 482 736 q 464 713 482 713 q 446 732 451 713 l 436 767 q 373 923 406 874 q 279 972 340 972 q 184 933 219 972 q 149 824 149 894 q 188 710 149 764 q 324 578 226 656 q 476 415 428 493 q 524 247 524 336 q 489 111 524 169 q 394 20 454 53 q 256 -12 333 -12 m 292 -93 q 347 -122 326 -93 q 367 -193 367 -150 q 338 -312 367 -261 q 247 -415 310 -362 q 219 -421 231 -429 q 224 -394 207 -411 q 279 -328 264 -354 q 294 -275 294 -301 q 284 -240 294 -253 q 260 -219 274 -228 q 235 -197 246 -210 q 225 -158 225 -183 q 244 -112 225 -131 q 292 -93 263 -93 z "},"ẞ":{"ha":735,"x_min":26,"x_max":693,"o":"m 474 -12 q 388 -1 431 -12 q 321 25 346 11 q 306 37 311 31 q 301 58 301 43 l 301 263 q 319 290 301 290 q 342 265 338 290 l 357 185 q 406 70 371 113 q 489 28 442 28 q 542 40 515 28 q 587 88 568 51 q 606 193 606 124 q 553 361 606 275 q 410 514 500 447 l 389 529 l 606 836 q 528 939 576 904 q 421 974 481 974 q 322 949 367 974 q 249 867 276 925 q 222 710 222 810 l 222 33 q 189 0 222 0 l 47 0 q 26 15 26 0 q 44 32 26 28 l 76 38 q 115 53 106 43 q 124 92 124 63 l 124 688 q 163 863 124 790 q 270 975 203 936 q 421 1014 338 1014 q 579 979 521 1014 q 689 871 638 944 l 485 581 q 635 410 578 499 q 693 235 693 321 q 661 95 693 150 q 579 14 629 40 q 474 -12 529 -12 z "},"T":{"ha":640,"x_min":14,"x_max":626,"o":"m 164 0 q 143 15 143 0 q 161 32 143 31 l 224 42 q 261 56 251 46 q 271 96 271 67 l 271 929 q 263 957 271 949 q 228 965 254 965 q 126 921 176 965 q 61 778 76 876 l 54 732 q 35 714 51 714 q 17 738 14 714 l 29 989 q 54 1021 32 1021 q 72 1016 64 1021 q 101 1006 81 1011 q 165 1000 121 1000 l 475 1000 q 540 1006 519 1000 q 569 1016 560 1011 q 586 1021 578 1021 q 611 989 608 1021 l 624 738 q 606 714 626 714 q 586 732 589 714 l 579 778 q 515 921 565 876 q 413 965 465 965 q 378 957 386 965 q 369 929 369 949 l 369 96 q 380 56 369 67 q 417 42 390 46 l 479 32 q 497 15 497 31 q 476 0 497 0 l 164 0 z "},"Ť":{"ha":640,"x_min":14,"x_max":626,"o":"m 164 0 q 143 15 143 0 q 161 32 143 31 l 224 42 q 261 56 251 46 q 271 96 271 67 l 271 929 q 263 957 271 949 q 228 965 254 965 q 126 921 176 965 q 61 778 76 876 l 54 732 q 35 714 51 714 q 17 738 14 714 l 29 989 q 54 1021 32 1021 q 72 1016 64 1021 q 101 1006 81 1011 q 165 1000 121 1000 l 475 1000 q 540 1006 519 1000 q 569 1016 560 1011 q 586 1021 578 1021 q 611 989 608 1021 l 624 738 q 606 714 626 714 q 586 732 589 714 l 579 778 q 515 921 565 876 q 413 965 465 965 q 378 957 386 965 q 369 929 369 949 l 369 96 q 380 56 369 67 q 417 42 390 46 l 479 32 q 497 15 497 31 q 476 0 497 0 l 164 0 m 307 1101 q 272 1117 288 1101 l 111 1286 q 107 1313 97 1301 q 135 1315 118 1326 l 319 1189 l 506 1314 q 533 1313 525 1326 q 529 1286 543 1301 l 368 1117 q 333 1101 353 1101 l 307 1101 z "},"Ț":{"ha":640,"x_min":14,"x_max":626,"o":"m 164 0 q 143 15 143 0 q 161 32 143 31 l 224 42 q 261 56 251 46 q 271 96 271 67 l 271 929 q 263 957 271 949 q 228 965 254 965 q 126 921 176 965 q 61 778 76 876 l 54 732 q 35 714 51 714 q 17 738 14 714 l 29 989 q 54 1021 32 1021 q 72 1016 64 1021 q 101 1006 81 1011 q 165 1000 121 1000 l 475 1000 q 540 1006 519 1000 q 569 1016 560 1011 q 586 1021 578 1021 q 611 989 608 1021 l 624 738 q 606 714 626 714 q 586 732 589 714 l 579 778 q 515 921 565 876 q 413 965 465 965 q 378 957 386 965 q 369 929 369 949 l 369 96 q 380 56 369 67 q 417 42 390 46 l 479 32 q 497 15 497 31 q 476 0 497 0 l 164 0 m 322 -93 q 377 -122 357 -93 q 397 -193 397 -150 q 369 -312 397 -261 q 278 -415 340 -362 q 250 -421 261 -429 q 254 -394 238 -411 q 310 -328 294 -354 q 325 -275 325 -301 q 315 -240 325 -253 q 290 -219 304 -228 q 266 -197 276 -210 q 256 -158 256 -183 q 274 -112 256 -131 q 322 -93 293 -93 z "},"U":{"ha":744,"x_min":31,"x_max":728,"o":"m 382 -12 q 249 23 307 -12 q 160 122 192 58 q 128 267 128 185 l 128 908 q 119 947 128 938 q 81 963 110 957 l 49 968 q 31 985 31 972 q 51 1000 31 1000 l 306 1000 q 326 983 326 1000 q 311 968 326 971 l 274 963 q 236 947 246 958 q 226 907 226 936 l 226 265 q 274 101 226 160 q 406 43 321 43 q 539 101 492 43 q 586 265 586 160 l 586 879 q 539 963 586 954 l 501 968 q 486 983 486 971 q 507 1000 486 1000 l 707 1000 q 728 985 728 1000 q 710 968 728 972 l 678 963 q 631 881 631 954 l 631 267 q 563 64 631 140 q 382 -12 494 -12 z "},"Ú":{"ha":744,"x_min":31,"x_max":728,"o":"m 382 -12 q 249 23 307 -12 q 160 122 192 58 q 128 267 128 185 l 128 908 q 119 947 128 938 q 81 963 110 957 l 49 968 q 31 985 31 972 q 51 1000 31 1000 l 306 1000 q 326 983 326 1000 q 311 968 326 971 l 274 963 q 236 947 246 958 q 226 907 226 936 l 226 265 q 274 101 226 160 q 406 43 321 43 q 539 101 492 43 q 586 265 586 160 l 586 879 q 539 963 586 954 l 501 968 q 486 983 486 971 q 507 1000 486 1000 l 707 1000 q 728 985 728 1000 q 710 968 728 972 l 678 963 q 631 881 631 954 l 631 267 q 563 64 631 140 q 382 -12 494 -12 m 272 1106 q 240 1111 249 1096 q 253 1142 231 1126 l 453 1297 q 479 1314 467 1308 q 510 1319 492 1319 q 549 1305 535 1319 q 563 1274 563 1290 q 553 1242 563 1256 q 519 1218 544 1229 l 272 1106 z "},"Ŭ":{"ha":744,"x_min":31,"x_max":728,"o":"m 382 -12 q 249 23 307 -12 q 160 122 192 58 q 128 267 128 185 l 128 908 q 119 947 128 938 q 81 963 110 957 l 49 968 q 31 985 31 972 q 51 1000 31 1000 l 306 1000 q 326 983 326 1000 q 311 968 326 971 l 274 963 q 236 947 246 958 q 226 907 226 936 l 226 265 q 274 101 226 160 q 406 43 321 43 q 539 101 492 43 q 586 265 586 160 l 586 879 q 539 963 586 954 l 501 968 q 486 983 486 971 q 507 1000 486 1000 l 707 1000 q 728 985 728 1000 q 710 968 728 972 l 678 963 q 631 881 631 954 l 631 267 q 563 64 631 140 q 382 -12 494 -12 m 400 1096 q 272 1145 326 1096 q 201 1281 217 1194 q 215 1306 197 1306 q 235 1289 231 1306 q 294 1202 250 1229 q 400 1175 339 1175 q 506 1202 461 1175 q 565 1289 550 1229 q 585 1306 569 1306 q 599 1281 603 1306 q 528 1145 583 1194 q 400 1096 474 1096 z "},"Û":{"ha":744,"x_min":31,"x_max":728,"o":"m 382 -12 q 249 23 307 -12 q 160 122 192 58 q 128 267 128 185 l 128 908 q 119 947 128 938 q 81 963 110 957 l 49 968 q 31 985 31 972 q 51 1000 31 1000 l 306 1000 q 326 983 326 1000 q 311 968 326 971 l 274 963 q 236 947 246 958 q 226 907 226 936 l 226 265 q 274 101 226 160 q 406 43 321 43 q 539 101 492 43 q 586 265 586 160 l 586 879 q 539 963 586 954 l 501 968 q 486 983 486 971 q 507 1000 486 1000 l 707 1000 q 728 985 728 1000 q 710 968 728 972 l 678 963 q 631 881 631 954 l 631 267 q 563 64 631 140 q 382 -12 494 -12 m 214 1106 q 186 1108 197 1094 q 190 1135 176 1119 l 351 1304 q 386 1319 367 1319 l 413 1319 q 447 1304 432 1319 l 608 1135 q 613 1108 622 1119 q 585 1107 604 1094 l 399 1232 l 214 1106 z "},"Ü":{"ha":744,"x_min":31,"x_max":728,"o":"m 382 -12 q 249 23 307 -12 q 160 122 192 58 q 128 267 128 185 l 128 908 q 119 947 128 938 q 81 963 110 957 l 49 968 q 31 985 31 972 q 51 1000 31 1000 l 306 1000 q 326 983 326 1000 q 311 968 326 971 l 274 963 q 236 947 246 958 q 226 907 226 936 l 226 265 q 274 101 226 160 q 406 43 321 43 q 539 101 492 43 q 586 265 586 160 l 586 879 q 539 963 586 954 l 501 968 q 486 983 486 971 q 507 1000 486 1000 l 707 1000 q 728 985 728 1000 q 710 968 728 972 l 678 963 q 631 881 631 954 l 631 267 q 563 64 631 140 q 382 -12 494 -12 m 268 1132 q 219 1152 239 1132 q 199 1203 199 1172 q 219 1253 199 1233 q 268 1272 239 1272 q 317 1253 297 1272 q 336 1203 336 1233 q 317 1152 336 1172 q 268 1132 297 1132 m 532 1132 q 483 1152 503 1132 q 463 1203 463 1172 q 483 1253 463 1233 q 532 1272 503 1272 q 581 1253 561 1272 q 600 1203 600 1233 q 581 1152 600 1172 q 532 1132 561 1132 z "},"Ù":{"ha":744,"x_min":31,"x_max":728,"o":"m 382 -12 q 249 23 307 -12 q 160 122 192 58 q 128 267 128 185 l 128 908 q 119 947 128 938 q 81 963 110 957 l 49 968 q 31 985 31 972 q 51 1000 31 1000 l 306 1000 q 326 983 326 1000 q 311 968 326 971 l 274 963 q 236 947 246 958 q 226 907 226 936 l 226 265 q 274 101 226 160 q 406 43 321 43 q 539 101 492 43 q 586 265 586 160 l 586 879 q 539 963 586 954 l 501 968 q 486 983 486 971 q 507 1000 486 1000 l 707 1000 q 728 985 728 1000 q 710 968 728 972 l 678 963 q 631 881 631 954 l 631 267 q 563 64 631 140 q 382 -12 494 -12 m 526 1106 l 279 1218 q 245 1242 254 1229 q 236 1274 236 1256 q 250 1305 236 1290 q 289 1319 264 1319 q 319 1314 307 1319 q 346 1297 332 1308 l 546 1142 q 558 1111 568 1126 q 526 1106 550 1096 z "},"Ű":{"ha":744,"x_min":31,"x_max":728,"o":"m 382 -12 q 249 23 307 -12 q 160 122 192 58 q 128 267 128 185 l 128 908 q 119 947 128 938 q 81 963 110 957 l 49 968 q 31 985 31 972 q 51 1000 31 1000 l 306 1000 q 326 983 326 1000 q 311 968 326 971 l 274 963 q 236 947 246 958 q 226 907 226 936 l 226 265 q 274 101 226 160 q 406 43 321 43 q 539 101 492 43 q 586 265 586 160 l 586 879 q 539 963 586 954 l 501 968 q 486 983 486 971 q 507 1000 486 1000 l 707 1000 q 728 985 728 1000 q 710 968 728 972 l 678 963 q 631 881 631 954 l 631 267 q 563 64 631 140 q 382 -12 494 -12 m 276 1111 q 246 1106 258 1097 q 244 1138 233 1114 l 317 1269 q 345 1308 331 1296 q 382 1319 360 1319 q 419 1307 406 1319 q 432 1276 432 1294 q 393 1211 432 1244 l 276 1111 m 485 1111 q 454 1106 467 1097 q 453 1138 442 1114 l 525 1269 q 553 1308 539 1296 q 590 1319 568 1319 q 627 1307 614 1319 q 640 1276 640 1294 q 601 1211 640 1244 l 485 1111 z "},"Ū":{"ha":744,"x_min":31,"x_max":728,"o":"m 382 -12 q 249 23 307 -12 q 160 122 192 58 q 128 267 128 185 l 128 908 q 119 947 128 938 q 81 963 110 957 l 49 968 q 31 985 31 972 q 51 1000 31 1000 l 306 1000 q 326 983 326 1000 q 311 968 326 971 l 274 963 q 236 947 246 958 q 226 907 226 936 l 226 265 q 274 101 226 160 q 406 43 321 43 q 539 101 492 43 q 586 265 586 160 l 586 879 q 539 963 586 954 l 501 968 q 486 983 486 971 q 507 1000 486 1000 l 707 1000 q 728 985 728 1000 q 710 968 728 972 l 678 963 q 631 881 631 954 l 631 267 q 563 64 631 140 q 382 -12 494 -12 m 214 1175 q 197 1192 197 1175 l 197 1213 q 214 1229 197 1229 l 585 1229 q 601 1213 601 1229 l 601 1192 q 585 1175 601 1175 l 214 1175 z "},"Ų":{"ha":744,"x_min":31,"x_max":728,"o":"m 382 -12 q 249 23 307 -12 q 160 122 192 58 q 128 267 128 185 l 128 908 q 119 947 128 938 q 81 963 110 957 l 49 968 q 31 985 31 972 q 51 1000 31 1000 l 306 1000 q 326 983 326 1000 q 311 968 326 971 l 274 963 q 236 947 246 958 q 226 907 226 936 l 226 265 q 274 101 226 160 q 406 43 321 43 q 539 101 492 43 q 586 265 586 160 l 586 879 q 539 963 586 954 l 501 968 q 486 983 486 971 q 507 1000 486 1000 l 707 1000 q 728 985 728 1000 q 710 968 728 972 l 678 963 q 631 881 631 954 l 631 267 q 563 64 631 140 q 382 -12 494 -12 m 381 -300 q 310 -275 342 -300 q 278 -199 278 -250 q 301 -118 278 -160 q 363 -41 324 -76 q 450 14 401 -6 l 464 0 q 372 -83 403 -35 q 342 -185 342 -132 q 357 -242 342 -225 q 396 -258 372 -258 q 454 -229 429 -258 q 482 -225 469 -210 q 475 -254 490 -237 q 433 -288 456 -276 q 381 -300 411 -300 z "},"Ů":{"ha":744,"x_min":31,"x_max":728,"o":"m 382 -12 q 249 23 307 -12 q 160 122 192 58 q 128 267 128 185 l 128 908 q 119 947 128 938 q 81 963 110 957 l 49 968 q 31 985 31 972 q 51 1000 31 1000 l 306 1000 q 326 983 326 1000 q 311 968 326 971 l 274 963 q 236 947 246 958 q 226 907 226 936 l 226 265 q 274 101 226 160 q 406 43 321 43 q 539 101 492 43 q 586 265 586 160 l 586 879 q 539 963 586 954 l 501 968 q 486 983 486 971 q 507 1000 486 1000 l 707 1000 q 728 985 728 1000 q 710 968 728 972 l 678 963 q 631 881 631 954 l 631 267 q 563 64 631 140 q 382 -12 494 -12 m 400 1071 q 293 1115 336 1071 q 250 1221 250 1158 q 293 1326 250 1282 q 400 1369 336 1369 q 506 1326 464 1369 q 549 1221 549 1282 q 506 1115 549 1158 q 400 1071 464 1071 m 400 1108 q 477 1141 447 1108 q 507 1221 507 1174 q 477 1299 507 1267 q 400 1332 447 1332 q 322 1299 353 1332 q 292 1221 292 1267 q 322 1141 292 1174 q 400 1108 353 1108 z "},"V":{"ha":635,"x_min":-25,"x_max":660,"o":"m 318 -14 q 306 -10 313 -14 q 296 8 299 -6 l 76 889 q 55 943 67 928 q 15 964 43 958 l -6 968 q -25 986 -25 972 q -4 1000 -25 1000 l 233 1000 q 253 985 253 1000 q 229 968 253 969 l 203 965 q 173 951 179 964 q 174 907 167 938 l 335 239 q 344 231 338 231 q 351 239 350 231 l 511 878 q 469 965 531 957 l 449 968 q 425 985 425 972 q 444 1000 425 1000 l 639 1000 q 660 986 660 1000 q 640 968 660 972 l 619 964 q 578 937 593 958 q 554 876 564 915 l 339 8 q 330 -10 336 -6 q 318 -14 324 -14 z "},"W":{"ha":904,"x_min":-25,"x_max":929,"o":"m 600 -14 q 589 -10 594 -14 q 581 8 583 -6 l 474 439 q 465 449 472 450 q 456 439 458 449 l 336 8 q 327 -10 332 -6 q 317 -14 322 -14 q 305 -10 311 -14 q 296 8 299 -6 l 76 889 q 55 943 67 928 q 15 964 43 958 l -6 968 q -25 986 -25 972 q -4 1000 -25 1000 l 219 1000 q 239 985 239 1000 q 218 968 239 972 l 203 965 q 173 949 179 961 q 174 907 167 938 l 338 229 q 347 219 340 219 q 356 229 353 219 l 418 456 q 433 553 433 508 q 419 651 433 597 l 361 889 q 342 944 351 928 q 318 964 333 961 l 297 968 q 278 986 278 972 q 299 1000 278 1000 l 489 1000 q 508 985 508 1000 q 488 968 508 972 l 472 965 q 451 950 454 963 q 454 907 447 938 l 501 708 q 510 699 504 699 q 519 708 517 699 l 569 878 q 581 947 585 931 q 565 965 578 964 l 550 968 q 529 985 529 972 q 549 1000 529 1000 l 681 1000 q 704 985 704 1000 q 681 968 704 971 l 665 967 q 635 944 647 965 q 610 876 624 924 l 557 694 q 541 598 542 643 q 553 499 540 553 l 615 238 q 624 228 618 228 q 632 238 631 228 l 792 878 q 767 965 811 958 l 751 968 q 731 986 731 972 q 750 1000 731 1000 l 906 1000 q 929 985 929 1000 q 906 968 929 971 l 890 967 q 859 945 872 965 q 835 876 846 925 l 619 8 q 611 -10 617 -6 q 600 -14 606 -14 z "},"Ẃ":{"ha":904,"x_min":-25,"x_max":929,"o":"m 600 -14 q 589 -10 594 -14 q 581 8 583 -6 l 474 439 q 465 449 472 450 q 456 439 458 449 l 336 8 q 327 -10 332 -6 q 317 -14 322 -14 q 305 -10 311 -14 q 296 8 299 -6 l 76 889 q 55 943 67 928 q 15 964 43 958 l -6 968 q -25 986 -25 972 q -4 1000 -25 1000 l 219 1000 q 239 985 239 1000 q 218 968 239 972 l 203 965 q 173 949 179 961 q 174 907 167 938 l 338 229 q 347 219 340 219 q 356 229 353 219 l 418 456 q 433 553 433 508 q 419 651 433 597 l 361 889 q 342 944 351 928 q 318 964 333 961 l 297 968 q 278 986 278 972 q 299 1000 278 1000 l 489 1000 q 508 985 508 1000 q 488 968 508 972 l 472 965 q 451 950 454 963 q 454 907 447 938 l 501 708 q 510 699 504 699 q 519 708 517 699 l 569 878 q 581 947 585 931 q 565 965 578 964 l 550 968 q 529 985 529 972 q 549 1000 529 1000 l 681 1000 q 704 985 704 1000 q 681 968 704 971 l 665 967 q 635 944 647 965 q 610 876 624 924 l 557 694 q 541 598 542 643 q 553 499 540 553 l 615 238 q 624 228 618 228 q 632 238 631 228 l 792 878 q 767 965 811 958 l 751 968 q 731 986 731 972 q 750 1000 731 1000 l 906 1000 q 929 985 929 1000 q 906 968 929 971 l 890 967 q 859 945 872 965 q 835 876 846 925 l 619 8 q 611 -10 617 -6 q 600 -14 606 -14 m 353 1106 q 321 1111 329 1096 q 333 1142 311 1126 l 533 1297 q 560 1314 547 1308 q 590 1319 572 1319 q 629 1305 615 1319 q 643 1274 643 1290 q 634 1242 643 1256 q 600 1218 625 1229 l 353 1106 z "},"Ŵ":{"ha":904,"x_min":-25,"x_max":929,"o":"m 600 -14 q 589 -10 594 -14 q 581 8 583 -6 l 474 439 q 465 449 472 450 q 456 439 458 449 l 336 8 q 327 -10 332 -6 q 317 -14 322 -14 q 305 -10 311 -14 q 296 8 299 -6 l 76 889 q 55 943 67 928 q 15 964 43 958 l -6 968 q -25 986 -25 972 q -4 1000 -25 1000 l 219 1000 q 239 985 239 1000 q 218 968 239 972 l 203 965 q 173 949 179 961 q 174 907 167 938 l 338 229 q 347 219 340 219 q 356 229 353 219 l 418 456 q 433 553 433 508 q 419 651 433 597 l 361 889 q 342 944 351 928 q 318 964 333 961 l 297 968 q 278 986 278 972 q 299 1000 278 1000 l 489 1000 q 508 985 508 1000 q 488 968 508 972 l 472 965 q 451 950 454 963 q 454 907 447 938 l 501 708 q 510 699 504 699 q 519 708 517 699 l 569 878 q 581 947 585 931 q 565 965 578 964 l 550 968 q 529 985 529 972 q 549 1000 529 1000 l 681 1000 q 704 985 704 1000 q 681 968 704 971 l 665 967 q 635 944 647 965 q 610 876 624 924 l 557 694 q 541 598 542 643 q 553 499 540 553 l 615 238 q 624 228 618 228 q 632 238 631 228 l 792 878 q 767 965 811 958 l 751 968 q 731 986 731 972 q 750 1000 731 1000 l 906 1000 q 929 985 929 1000 q 906 968 929 971 l 890 967 q 859 945 872 965 q 835 876 846 925 l 619 8 q 611 -10 617 -6 q 600 -14 606 -14 m 294 1106 q 267 1108 278 1094 q 271 1135 257 1119 l 432 1304 q 467 1319 447 1319 l 493 1319 q 528 1304 513 1319 l 689 1135 q 693 1108 703 1119 q 665 1107 685 1094 l 479 1232 l 294 1106 z "},"Ẅ":{"ha":904,"x_min":-25,"x_max":929,"o":"m 600 -14 q 589 -10 594 -14 q 581 8 583 -6 l 474 439 q 465 449 472 450 q 456 439 458 449 l 336 8 q 327 -10 332 -6 q 317 -14 322 -14 q 305 -10 311 -14 q 296 8 299 -6 l 76 889 q 55 943 67 928 q 15 964 43 958 l -6 968 q -25 986 -25 972 q -4 1000 -25 1000 l 219 1000 q 239 985 239 1000 q 218 968 239 972 l 203 965 q 173 949 179 961 q 174 907 167 938 l 338 229 q 347 219 340 219 q 356 229 353 219 l 418 456 q 433 553 433 508 q 419 651 433 597 l 361 889 q 342 944 351 928 q 318 964 333 961 l 297 968 q 278 986 278 972 q 299 1000 278 1000 l 489 1000 q 508 985 508 1000 q 488 968 508 972 l 472 965 q 451 950 454 963 q 454 907 447 938 l 501 708 q 510 699 504 699 q 519 708 517 699 l 569 878 q 581 947 585 931 q 565 965 578 964 l 550 968 q 529 985 529 972 q 549 1000 529 1000 l 681 1000 q 704 985 704 1000 q 681 968 704 971 l 665 967 q 635 944 647 965 q 610 876 624 924 l 557 694 q 541 598 542 643 q 553 499 540 553 l 615 238 q 624 228 618 228 q 632 238 631 228 l 792 878 q 767 965 811 958 l 751 968 q 731 986 731 972 q 750 1000 731 1000 l 906 1000 q 929 985 929 1000 q 906 968 929 971 l 890 967 q 859 945 872 965 q 835 876 846 925 l 619 8 q 611 -10 617 -6 q 600 -14 606 -14 m 349 1132 q 299 1152 319 1132 q 279 1203 279 1172 q 299 1253 279 1233 q 349 1272 319 1272 q 397 1253 378 1272 q 417 1203 417 1233 q 397 1152 417 1172 q 349 1132 378 1132 m 613 1132 q 563 1152 583 1132 q 543 1203 543 1172 q 563 1253 543 1233 q 613 1272 583 1272 q 661 1253 642 1272 q 681 1203 681 1233 q 661 1152 681 1172 q 613 1132 642 1132 z "},"Ẁ":{"ha":904,"x_min":-25,"x_max":929,"o":"m 600 -14 q 589 -10 594 -14 q 581 8 583 -6 l 474 439 q 465 449 472 450 q 456 439 458 449 l 336 8 q 327 -10 332 -6 q 317 -14 322 -14 q 305 -10 311 -14 q 296 8 299 -6 l 76 889 q 55 943 67 928 q 15 964 43 958 l -6 968 q -25 986 -25 972 q -4 1000 -25 1000 l 219 1000 q 239 985 239 1000 q 218 968 239 972 l 203 965 q 173 949 179 961 q 174 907 167 938 l 338 229 q 347 219 340 219 q 356 229 353 219 l 418 456 q 433 553 433 508 q 419 651 433 597 l 361 889 q 342 944 351 928 q 318 964 333 961 l 297 968 q 278 986 278 972 q 299 1000 278 1000 l 489 1000 q 508 985 508 1000 q 488 968 508 972 l 472 965 q 451 950 454 963 q 454 907 447 938 l 501 708 q 510 699 504 699 q 519 708 517 699 l 569 878 q 581 947 585 931 q 565 965 578 964 l 550 968 q 529 985 529 972 q 549 1000 529 1000 l 681 1000 q 704 985 704 1000 q 681 968 704 971 l 665 967 q 635 944 647 965 q 610 876 624 924 l 557 694 q 541 598 542 643 q 553 499 540 553 l 615 238 q 624 228 618 228 q 632 238 631 228 l 792 878 q 767 965 811 958 l 751 968 q 731 986 731 972 q 750 1000 731 1000 l 906 1000 q 929 985 929 1000 q 906 968 929 971 l 890 967 q 859 945 872 965 q 835 876 846 925 l 619 8 q 611 -10 617 -6 q 600 -14 606 -14 m 607 1106 l 360 1218 q 326 1242 335 1229 q 317 1274 317 1256 q 331 1305 317 1290 q 369 1319 344 1319 q 400 1314 388 1319 q 426 1297 413 1308 l 626 1142 q 639 1111 649 1126 q 607 1106 631 1096 z "},"X":{"ha":758,"x_min":28,"x_max":732,"o":"m 53 0 q 33 6 39 0 q 28 17 28 11 q 49 35 28 31 l 71 39 q 141 66 115 47 q 185 126 167 85 l 324 457 q 333 488 331 472 q 326 522 335 504 l 153 907 q 123 950 139 939 q 89 964 107 961 l 63 968 q 40 986 40 972 q 64 1000 40 1000 l 308 1000 q 333 986 333 1000 q 310 968 333 972 l 283 964 q 251 947 260 960 q 254 907 242 935 l 386 611 q 399 599 392 599 q 413 611 407 599 l 532 893 q 540 938 544 924 q 513 958 536 953 l 474 967 q 450 986 450 972 q 475 1000 450 1000 l 688 1000 q 708 995 703 1000 q 713 983 713 990 q 692 965 713 969 l 669 961 q 611 935 635 956 q 569 874 588 915 l 438 565 q 430 531 431 547 q 439 494 429 514 l 618 93 q 649 50 633 60 q 682 38 665 40 l 708 33 q 732 14 732 29 q 707 0 732 0 l 461 0 q 436 17 436 0 q 458 33 436 29 l 486 38 q 519 53 510 40 q 518 93 529 67 l 375 411 q 362 424 369 424 q 349 411 354 424 l 224 107 q 215 62 211 76 q 243 42 219 47 l 282 33 q 306 14 306 28 q 281 0 306 0 l 53 0 z "},"Y":{"ha":663,"x_min":-25,"x_max":688,"o":"m 176 0 q 156 15 156 0 q 174 32 156 31 l 236 42 q 274 56 264 46 q 283 96 283 67 l 283 424 q 269 483 283 454 l 65 911 q 43 947 56 935 q 7 965 31 960 l -6 968 q -25 986 -25 972 q -4 1000 -25 1000 l 233 1000 q 253 985 253 1000 q 229 968 253 969 l 203 965 q 169 950 179 964 q 174 907 160 936 l 344 543 q 358 533 350 533 q 372 543 367 533 l 536 878 q 545 937 554 914 q 504 964 536 960 l 474 968 q 450 985 450 972 q 469 1000 450 1000 l 667 1000 q 688 986 688 1000 q 668 968 688 972 l 654 965 q 620 942 635 961 q 582 876 606 922 l 400 511 q 386 474 390 492 q 382 435 382 457 l 382 96 q 392 56 382 67 q 429 42 403 46 l 492 32 q 510 15 510 31 q 489 0 510 0 l 176 0 z "},"Ý":{"ha":663,"x_min":-25,"x_max":688,"o":"m 176 0 q 156 15 156 0 q 174 32 156 31 l 236 42 q 274 56 264 46 q 283 96 283 67 l 283 424 q 269 483 283 454 l 65 911 q 43 947 56 935 q 7 965 31 960 l -6 968 q -25 986 -25 972 q -4 1000 -25 1000 l 233 1000 q 253 985 253 1000 q 229 968 253 969 l 203 965 q 169 950 179 964 q 174 907 160 936 l 344 543 q 358 533 350 533 q 372 543 367 533 l 536 878 q 545 937 554 914 q 504 964 536 960 l 474 968 q 450 985 450 972 q 469 1000 450 1000 l 667 1000 q 688 986 688 1000 q 668 968 688 972 l 654 965 q 620 942 635 961 q 582 876 606 922 l 400 511 q 386 474 390 492 q 382 435 382 457 l 382 96 q 392 56 382 67 q 429 42 403 46 l 492 32 q 510 15 510 31 q 489 0 510 0 l 176 0 m 232 1106 q 200 1111 208 1096 q 213 1142 190 1126 l 413 1297 q 439 1314 426 1308 q 469 1319 451 1319 q 508 1305 494 1319 q 522 1274 522 1290 q 513 1242 522 1256 q 479 1218 504 1229 l 232 1106 z "},"Ŷ":{"ha":663,"x_min":-25,"x_max":688,"o":"m 176 0 q 156 15 156 0 q 174 32 156 31 l 236 42 q 274 56 264 46 q 283 96 283 67 l 283 424 q 269 483 283 454 l 65 911 q 43 947 56 935 q 7 965 31 960 l -6 968 q -25 986 -25 972 q -4 1000 -25 1000 l 233 1000 q 253 985 253 1000 q 229 968 253 969 l 203 965 q 169 950 179 964 q 174 907 160 936 l 344 543 q 358 533 350 533 q 372 543 367 533 l 536 878 q 545 937 554 914 q 504 964 536 960 l 474 968 q 450 985 450 972 q 469 1000 450 1000 l 667 1000 q 688 986 688 1000 q 668 968 688 972 l 654 965 q 620 942 635 961 q 582 876 606 922 l 400 511 q 386 474 390 492 q 382 435 382 457 l 382 96 q 392 56 382 67 q 429 42 403 46 l 492 32 q 510 15 510 31 q 489 0 510 0 l 176 0 m 174 1106 q 146 1108 157 1094 q 150 1135 136 1119 l 311 1304 q 346 1319 326 1319 l 372 1319 q 407 1304 392 1319 l 568 1135 q 572 1108 582 1119 q 544 1107 564 1094 l 358 1232 l 174 1106 z "},"Ÿ":{"ha":663,"x_min":-25,"x_max":688,"o":"m 176 0 q 156 15 156 0 q 174 32 156 31 l 236 42 q 274 56 264 46 q 283 96 283 67 l 283 424 q 269 483 283 454 l 65 911 q 43 947 56 935 q 7 965 31 960 l -6 968 q -25 986 -25 972 q -4 1000 -25 1000 l 233 1000 q 253 985 253 1000 q 229 968 253 969 l 203 965 q 169 950 179 964 q 174 907 160 936 l 344 543 q 358 533 350 533 q 372 543 367 533 l 536 878 q 545 937 554 914 q 504 964 536 960 l 474 968 q 450 985 450 972 q 469 1000 450 1000 l 667 1000 q 688 986 688 1000 q 668 968 688 972 l 654 965 q 620 942 635 961 q 582 876 606 922 l 400 511 q 386 474 390 492 q 382 435 382 457 l 382 96 q 392 56 382 67 q 429 42 403 46 l 492 32 q 510 15 510 31 q 489 0 510 0 l 176 0 m 228 1132 q 178 1152 199 1132 q 158 1203 158 1172 q 178 1253 158 1233 q 228 1272 199 1272 q 276 1253 257 1272 q 296 1203 296 1233 q 276 1152 296 1172 q 228 1132 257 1132 m 492 1132 q 442 1152 463 1132 q 422 1203 422 1172 q 442 1253 422 1233 q 492 1272 463 1272 q 540 1253 521 1272 q 560 1203 560 1233 q 540 1152 560 1172 q 492 1132 521 1132 z "},"Ỳ":{"ha":663,"x_min":-25,"x_max":688,"o":"m 176 0 q 156 15 156 0 q 174 32 156 31 l 236 42 q 274 56 264 46 q 283 96 283 67 l 283 424 q 269 483 283 454 l 65 911 q 43 947 56 935 q 7 965 31 960 l -6 968 q -25 986 -25 972 q -4 1000 -25 1000 l 233 1000 q 253 985 253 1000 q 229 968 253 969 l 203 965 q 169 950 179 964 q 174 907 160 936 l 344 543 q 358 533 350 533 q 372 543 367 533 l 536 878 q 545 937 554 914 q 504 964 536 960 l 474 968 q 450 985 450 972 q 469 1000 450 1000 l 667 1000 q 688 986 688 1000 q 668 968 688 972 l 654 965 q 620 942 635 961 q 582 876 606 922 l 400 511 q 386 474 390 492 q 382 435 382 457 l 382 96 q 392 56 382 67 q 429 42 403 46 l 492 32 q 510 15 510 31 q 489 0 510 0 l 176 0 m 486 1106 l 239 1218 q 205 1242 214 1229 q 196 1274 196 1256 q 210 1305 196 1290 q 249 1319 224 1319 q 279 1314 267 1319 q 306 1297 292 1308 l 506 1142 q 518 1111 528 1126 q 486 1106 510 1096 z "},"Z":{"ha":593,"x_min":21,"x_max":560,"o":"m 56 0 q 28 11 36 0 q 29 40 21 22 l 431 936 q 415 958 439 958 l 276 958 q 183 926 225 958 q 113 801 140 893 l 92 732 q 72 714 88 714 q 54 738 51 714 l 79 996 q 103 1028 82 1028 q 121 1021 113 1028 q 149 1007 129 1014 q 214 1000 169 1000 l 521 1000 q 548 990 540 1000 q 547 960 556 979 l 146 64 q 161 42 138 42 l 315 42 q 392 53 354 42 q 458 99 429 64 q 501 206 488 135 l 519 299 q 540 317 524 317 q 557 293 560 317 l 540 32 q 506 0 538 0 l 56 0 z "},"Ź":{"ha":593,"x_min":21,"x_max":560,"o":"m 56 0 q 28 11 36 0 q 29 40 21 22 l 431 936 q 415 958 439 958 l 276 958 q 183 926 225 958 q 113 801 140 893 l 92 732 q 72 714 88 714 q 54 738 51 714 l 79 996 q 103 1028 82 1028 q 121 1021 113 1028 q 149 1007 129 1014 q 214 1000 169 1000 l 521 1000 q 548 990 540 1000 q 547 960 556 979 l 146 64 q 161 42 138 42 l 315 42 q 392 53 354 42 q 458 99 429 64 q 501 206 488 135 l 519 299 q 540 317 524 317 q 557 293 560 317 l 540 32 q 506 0 538 0 l 56 0 m 197 1106 q 165 1111 174 1096 q 178 1142 156 1126 l 378 1297 q 404 1314 392 1308 q 435 1319 417 1319 q 474 1305 460 1319 q 488 1274 488 1290 q 478 1242 488 1256 q 444 1218 469 1229 l 197 1106 z "},"Ž":{"ha":593,"x_min":21,"x_max":560,"o":"m 56 0 q 28 11 36 0 q 29 40 21 22 l 431 936 q 415 958 439 958 l 276 958 q 183 926 225 958 q 113 801 140 893 l 92 732 q 72 714 88 714 q 54 738 51 714 l 79 996 q 103 1028 82 1028 q 121 1021 113 1028 q 149 1007 129 1014 q 214 1000 169 1000 l 521 1000 q 548 990 540 1000 q 547 960 556 979 l 146 64 q 161 42 138 42 l 315 42 q 392 53 354 42 q 458 99 429 64 q 501 206 488 135 l 519 299 q 540 317 524 317 q 557 293 560 317 l 540 32 q 506 0 538 0 l 56 0 m 311 1101 q 276 1117 292 1101 l 115 1286 q 111 1313 101 1301 q 139 1315 122 1326 l 324 1189 l 510 1314 q 538 1313 529 1326 q 533 1286 547 1301 l 372 1117 q 338 1101 357 1101 l 311 1101 z "},"Ż":{"ha":593,"x_min":21,"x_max":560,"o":"m 56 0 q 28 11 36 0 q 29 40 21 22 l 431 936 q 415 958 439 958 l 276 958 q 183 926 225 958 q 113 801 140 893 l 92 732 q 72 714 88 714 q 54 738 51 714 l 79 996 q 103 1028 82 1028 q 121 1021 113 1028 q 149 1007 129 1014 q 214 1000 169 1000 l 521 1000 q 548 990 540 1000 q 547 960 556 979 l 146 64 q 161 42 138 42 l 315 42 q 392 53 354 42 q 458 99 429 64 q 501 206 488 135 l 519 299 q 540 317 524 317 q 557 293 560 317 l 540 32 q 506 0 538 0 l 56 0 m 325 1132 q 276 1153 296 1132 q 256 1206 256 1174 q 276 1258 256 1238 q 325 1278 296 1278 q 374 1258 354 1278 q 393 1206 393 1238 q 374 1153 393 1174 q 325 1132 354 1132 z "},"a":{"ha":554,"x_min":33,"x_max":547,"o":"m 167 -12 q 71 24 108 -12 q 33 122 33 61 q 71 235 33 182 q 174 332 108 289 q 322 401 239 375 q 340 425 340 407 l 340 551 q 319 647 340 618 q 263 675 299 675 q 199 644 228 675 q 158 539 171 613 q 128 474 151 494 q 82 454 106 454 q 43 493 43 454 q 66 573 43 533 q 126 645 89 613 q 208 697 164 678 q 297 717 253 717 q 435 557 435 717 l 435 132 q 464 74 435 74 q 497 98 482 74 q 513 181 513 122 q 531 203 513 203 q 547 179 547 203 q 512 33 547 78 q 432 -12 476 -12 q 379 15 399 -12 q 353 79 360 42 q 341 94 351 93 q 321 81 331 94 q 253 11 288 35 q 167 -12 218 -12 m 204 51 q 271 77 240 51 q 321 146 301 103 q 340 243 340 189 l 340 344 q 311 360 340 371 q 180 276 226 329 q 133 147 133 222 q 204 51 133 51 z "},"á":{"ha":554,"x_min":33,"x_max":547,"o":"m 167 -12 q 71 24 108 -12 q 33 122 33 61 q 71 235 33 182 q 174 332 108 289 q 322 401 239 375 q 340 425 340 407 l 340 551 q 319 647 340 618 q 263 675 299 675 q 199 644 228 675 q 158 539 171 613 q 128 474 151 494 q 82 454 106 454 q 43 493 43 454 q 66 573 43 533 q 126 645 89 613 q 208 697 164 678 q 297 717 253 717 q 435 557 435 717 l 435 132 q 464 74 435 74 q 497 98 482 74 q 513 181 513 122 q 531 203 513 203 q 547 179 547 203 q 512 33 547 78 q 432 -12 476 -12 q 379 15 399 -12 q 353 79 360 42 q 341 94 351 93 q 321 81 331 94 q 253 11 288 35 q 167 -12 218 -12 m 204 51 q 271 77 240 51 q 321 146 301 103 q 340 243 340 189 l 340 344 q 311 360 340 371 q 180 276 226 329 q 133 147 133 222 q 204 51 133 51 m 150 814 q 118 819 126 804 q 131 850 108 835 l 331 1006 q 357 1022 344 1017 q 388 1028 369 1028 q 426 1013 413 1028 q 440 982 440 999 q 431 951 440 964 q 397 926 422 938 l 150 814 z "},"ă":{"ha":554,"x_min":33,"x_max":547,"o":"m 167 -12 q 71 24 108 -12 q 33 122 33 61 q 71 235 33 182 q 174 332 108 289 q 322 401 239 375 q 340 425 340 407 l 340 551 q 319 647 340 618 q 263 675 299 675 q 199 644 228 675 q 158 539 171 613 q 128 474 151 494 q 82 454 106 454 q 43 493 43 454 q 66 573 43 533 q 126 645 89 613 q 208 697 164 678 q 297 717 253 717 q 435 557 435 717 l 435 132 q 464 74 435 74 q 497 98 482 74 q 513 181 513 122 q 531 203 513 203 q 547 179 547 203 q 512 33 547 78 q 432 -12 476 -12 q 379 15 399 -12 q 353 79 360 42 q 341 94 351 93 q 321 81 331 94 q 253 11 288 35 q 167 -12 218 -12 m 204 51 q 271 77 240 51 q 321 146 301 103 q 340 243 340 189 l 340 344 q 311 360 340 371 q 180 276 226 329 q 133 147 133 222 q 204 51 133 51 m 278 804 q 149 853 204 804 q 79 989 94 903 q 93 1014 75 1014 q 113 997 108 1014 q 172 910 128 938 q 278 883 217 883 q 383 910 339 883 q 443 997 428 938 q 463 1014 447 1014 q 476 989 481 1014 q 406 853 461 903 q 278 804 351 804 z "},"ǎ":{"ha":554,"x_min":33,"x_max":547,"o":"m 167 -12 q 71 24 108 -12 q 33 122 33 61 q 71 235 33 182 q 174 332 108 289 q 322 401 239 375 q 340 425 340 407 l 340 551 q 319 647 340 618 q 263 675 299 675 q 199 644 228 675 q 158 539 171 613 q 128 474 151 494 q 82 454 106 454 q 43 493 43 454 q 66 573 43 533 q 126 645 89 613 q 208 697 164 678 q 297 717 253 717 q 435 557 435 717 l 435 132 q 464 74 435 74 q 497 98 482 74 q 513 181 513 122 q 531 203 513 203 q 547 179 547 203 q 512 33 547 78 q 432 -12 476 -12 q 379 15 399 -12 q 353 79 360 42 q 341 94 351 93 q 321 81 331 94 q 253 11 288 35 q 167 -12 218 -12 m 204 51 q 271 77 240 51 q 321 146 301 103 q 340 243 340 189 l 340 344 q 311 360 340 371 q 180 276 226 329 q 133 147 133 222 q 204 51 133 51 m 264 810 q 229 825 244 810 l 68 994 q 64 1021 54 1010 q 92 1024 75 1035 l 276 897 l 463 1022 q 490 1021 482 1035 q 486 994 500 1010 l 325 825 q 290 810 310 810 l 264 810 z "},"â":{"ha":554,"x_min":33,"x_max":547,"o":"m 167 -12 q 71 24 108 -12 q 33 122 33 61 q 71 235 33 182 q 174 332 108 289 q 322 401 239 375 q 340 425 340 407 l 340 551 q 319 647 340 618 q 263 675 299 675 q 199 644 228 675 q 158 539 171 613 q 128 474 151 494 q 82 454 106 454 q 43 493 43 454 q 66 573 43 533 q 126 645 89 613 q 208 697 164 678 q 297 717 253 717 q 435 557 435 717 l 435 132 q 464 74 435 74 q 497 98 482 74 q 513 181 513 122 q 531 203 513 203 q 547 179 547 203 q 512 33 547 78 q 432 -12 476 -12 q 379 15 399 -12 q 353 79 360 42 q 341 94 351 93 q 321 81 331 94 q 253 11 288 35 q 167 -12 218 -12 m 204 51 q 271 77 240 51 q 321 146 301 103 q 340 243 340 189 l 340 344 q 311 360 340 371 q 180 276 226 329 q 133 147 133 222 q 204 51 133 51 m 92 814 q 64 817 75 803 q 68 843 54 828 l 229 1013 q 264 1028 244 1028 l 290 1028 q 325 1013 310 1028 l 486 843 q 490 817 500 828 q 463 815 482 803 l 276 940 l 92 814 z "},"ä":{"ha":554,"x_min":33,"x_max":547,"o":"m 167 -12 q 71 24 108 -12 q 33 122 33 61 q 71 235 33 182 q 174 332 108 289 q 322 401 239 375 q 340 425 340 407 l 340 551 q 319 647 340 618 q 263 675 299 675 q 199 644 228 675 q 158 539 171 613 q 128 474 151 494 q 82 454 106 454 q 43 493 43 454 q 66 573 43 533 q 126 645 89 613 q 208 697 164 678 q 297 717 253 717 q 435 557 435 717 l 435 132 q 464 74 435 74 q 497 98 482 74 q 513 181 513 122 q 531 203 513 203 q 547 179 547 203 q 512 33 547 78 q 432 -12 476 -12 q 379 15 399 -12 q 353 79 360 42 q 341 94 351 93 q 321 81 331 94 q 253 11 288 35 q 167 -12 218 -12 m 204 51 q 271 77 240 51 q 321 146 301 103 q 340 243 340 189 l 340 344 q 311 360 340 371 q 180 276 226 329 q 133 147 133 222 q 204 51 133 51 m 146 840 q 97 860 117 840 q 76 911 76 881 q 97 961 76 942 q 146 981 117 981 q 194 961 175 981 q 214 911 214 942 q 194 860 214 881 q 146 840 175 840 m 410 840 q 360 860 381 840 q 340 911 340 881 q 360 961 340 942 q 410 981 381 981 q 458 961 439 981 q 478 911 478 942 q 458 860 478 881 q 410 840 439 840 z "},"à":{"ha":554,"x_min":33,"x_max":547,"o":"m 167 -12 q 71 24 108 -12 q 33 122 33 61 q 71 235 33 182 q 174 332 108 289 q 322 401 239 375 q 340 425 340 407 l 340 551 q 319 647 340 618 q 263 675 299 675 q 199 644 228 675 q 158 539 171 613 q 128 474 151 494 q 82 454 106 454 q 43 493 43 454 q 66 573 43 533 q 126 645 89 613 q 208 697 164 678 q 297 717 253 717 q 435 557 435 717 l 435 132 q 464 74 435 74 q 497 98 482 74 q 513 181 513 122 q 531 203 513 203 q 547 179 547 203 q 512 33 547 78 q 432 -12 476 -12 q 379 15 399 -12 q 353 79 360 42 q 341 94 351 93 q 321 81 331 94 q 253 11 288 35 q 167 -12 218 -12 m 204 51 q 271 77 240 51 q 321 146 301 103 q 340 243 340 189 l 340 344 q 311 360 340 371 q 180 276 226 329 q 133 147 133 222 q 204 51 133 51 m 404 814 l 157 926 q 123 951 132 938 q 114 982 114 964 q 128 1013 114 999 q 167 1028 142 1028 q 197 1022 185 1028 q 224 1006 210 1017 l 424 850 q 436 819 446 835 q 404 814 428 804 z "},"ā":{"ha":554,"x_min":33,"x_max":547,"o":"m 167 -12 q 71 24 108 -12 q 33 122 33 61 q 71 235 33 182 q 174 332 108 289 q 322 401 239 375 q 340 425 340 407 l 340 551 q 319 647 340 618 q 263 675 299 675 q 199 644 228 675 q 158 539 171 613 q 128 474 151 494 q 82 454 106 454 q 43 493 43 454 q 66 573 43 533 q 126 645 89 613 q 208 697 164 678 q 297 717 253 717 q 435 557 435 717 l 435 132 q 464 74 435 74 q 497 98 482 74 q 513 181 513 122 q 531 203 513 203 q 547 179 547 203 q 512 33 547 78 q 432 -12 476 -12 q 379 15 399 -12 q 353 79 360 42 q 341 94 351 93 q 321 81 331 94 q 253 11 288 35 q 167 -12 218 -12 m 204 51 q 271 77 240 51 q 321 146 301 103 q 340 243 340 189 l 340 344 q 311 360 340 371 q 180 276 226 329 q 133 147 133 222 q 204 51 133 51 m 92 883 q 75 900 75 883 l 75 921 q 92 938 75 938 l 463 938 q 479 921 479 938 l 479 900 q 463 883 479 883 l 92 883 z "},"ą":{"ha":554,"x_min":33,"x_max":547,"o":"m 167 -12 q 71 24 108 -12 q 33 122 33 61 q 71 235 33 182 q 174 332 108 289 q 322 401 239 375 q 340 425 340 407 l 340 551 q 319 647 340 618 q 263 675 299 675 q 199 644 228 675 q 158 539 171 613 q 128 474 151 494 q 82 454 106 454 q 43 493 43 454 q 66 573 43 533 q 126 645 89 613 q 208 697 164 678 q 297 717 253 717 q 435 557 435 717 l 435 132 q 464 74 435 74 q 497 98 482 74 q 513 181 513 122 q 531 203 513 203 q 547 179 547 203 q 512 33 547 78 q 432 -12 476 -12 q 379 15 399 -12 q 353 79 360 42 q 341 94 351 93 q 321 81 331 94 q 253 11 288 35 q 167 -12 218 -12 m 204 51 q 271 77 240 51 q 321 146 301 103 q 340 243 340 189 l 340 344 q 311 360 340 371 q 180 276 226 329 q 133 147 133 222 q 204 51 133 51 m 394 -300 q 324 -275 356 -300 q 292 -199 292 -250 q 315 -118 292 -160 q 376 -41 338 -76 q 464 14 415 -6 l 478 0 q 386 -83 417 -35 q 356 -185 356 -132 q 371 -242 356 -225 q 410 -258 386 -258 q 468 -229 443 -258 q 496 -225 483 -210 q 489 -254 504 -237 q 447 -288 469 -276 q 394 -300 425 -300 z "},"å":{"ha":554,"x_min":33,"x_max":547,"o":"m 167 -12 q 71 24 108 -12 q 33 122 33 61 q 71 235 33 182 q 174 332 108 289 q 322 401 239 375 q 340 425 340 407 l 340 551 q 319 647 340 618 q 263 675 299 675 q 199 644 228 675 q 158 539 171 613 q 128 474 151 494 q 82 454 106 454 q 43 493 43 454 q 66 573 43 533 q 126 645 89 613 q 208 697 164 678 q 297 717 253 717 q 435 557 435 717 l 435 132 q 464 74 435 74 q 497 98 482 74 q 513 181 513 122 q 531 203 513 203 q 547 179 547 203 q 512 33 547 78 q 432 -12 476 -12 q 379 15 399 -12 q 353 79 360 42 q 341 94 351 93 q 321 81 331 94 q 253 11 288 35 q 167 -12 218 -12 m 204 51 q 271 77 240 51 q 321 146 301 103 q 340 243 340 189 l 340 344 q 311 360 340 371 q 180 276 226 329 q 133 147 133 222 q 204 51 133 51 m 278 779 q 171 823 214 779 q 128 929 128 867 q 171 1034 128 990 q 278 1078 214 1078 q 384 1034 342 1078 q 426 929 426 990 q 384 823 426 867 q 278 779 342 779 m 278 817 q 355 849 325 817 q 385 929 385 882 q 355 1008 385 975 q 278 1040 325 1040 q 200 1008 231 1040 q 169 929 169 975 q 200 849 169 882 q 278 817 231 817 z "},"ã":{"ha":554,"x_min":33,"x_max":547,"o":"m 167 -12 q 71 24 108 -12 q 33 122 33 61 q 71 235 33 182 q 174 332 108 289 q 322 401 239 375 q 340 425 340 407 l 340 551 q 319 647 340 618 q 263 675 299 675 q 199 644 228 675 q 158 539 171 613 q 128 474 151 494 q 82 454 106 454 q 43 493 43 454 q 66 573 43 533 q 126 645 89 613 q 208 697 164 678 q 297 717 253 717 q 435 557 435 717 l 435 132 q 464 74 435 74 q 497 98 482 74 q 513 181 513 122 q 531 203 513 203 q 547 179 547 203 q 512 33 547 78 q 432 -12 476 -12 q 379 15 399 -12 q 353 79 360 42 q 341 94 351 93 q 321 81 331 94 q 253 11 288 35 q 167 -12 218 -12 m 204 51 q 271 77 240 51 q 321 146 301 103 q 340 243 340 189 l 340 344 q 311 360 340 371 q 180 276 226 329 q 133 147 133 222 q 204 51 133 51 m 365 829 q 305 843 329 829 q 261 874 281 857 q 221 906 242 892 q 171 919 200 919 q 117 902 136 919 q 85 849 97 885 q 65 832 79 832 q 51 853 47 832 q 102 960 65 924 q 190 997 139 997 q 249 983 225 997 q 294 952 274 969 q 337 921 315 935 q 385 907 358 907 q 439 924 419 907 q 471 978 458 942 q 490 994 478 994 q 504 974 508 994 q 454 866 490 903 q 365 829 418 829 z "},"æ":{"ha":796,"x_min":33,"x_max":763,"o":"m 165 -12 q 71 24 108 -12 q 33 122 33 61 q 71 235 33 182 q 174 332 108 289 q 322 401 239 375 q 340 425 340 407 l 340 551 q 319 647 340 618 q 263 675 299 675 q 199 644 228 675 q 158 539 171 613 q 128 474 151 494 q 82 454 106 454 q 43 493 43 454 q 66 573 43 533 q 126 645 89 613 q 208 697 164 678 q 297 717 253 717 q 425 632 397 717 q 493 694 454 672 q 578 717 532 717 q 710 649 660 717 q 761 431 761 582 q 726 385 761 385 l 463 385 q 435 353 435 385 q 478 132 435 206 q 588 58 521 58 q 674 96 640 58 q 728 222 707 133 q 746 238 732 238 q 758 210 763 238 q 688 37 736 86 q 569 -12 639 -12 q 453 33 503 -12 q 376 157 403 78 l 321 76 q 254 11 292 35 q 165 -12 217 -12 m 458 419 l 599 419 q 665 489 665 419 q 643 631 665 579 q 576 682 621 682 q 485 619 522 682 q 438 442 449 557 q 458 419 435 419 m 204 51 q 271 77 240 51 q 321 146 301 103 q 340 243 340 189 l 340 344 q 311 360 340 371 q 180 276 226 329 q 133 147 133 222 q 204 51 133 51 z "},"b":{"ha":615,"x_min":7,"x_max":560,"o":"m 286 -12 q 176 24 229 -12 q 121 13 146 44 q 100 -8 107 -3 q 86 -12 93 -12 q 75 7 71 -12 q 83 89 81 39 q 86 222 86 139 l 86 889 q 78 923 86 914 q 51 935 71 932 l 22 939 q 7 956 7 942 q 22 972 7 969 q 88 992 61 981 q 132 1014 114 1003 q 165 1028 154 1028 q 181 1006 181 1028 l 181 663 q 190 648 181 651 q 210 656 199 644 q 340 717 269 717 q 453 674 404 717 q 531 557 503 632 q 560 381 560 482 q 524 176 560 265 q 426 38 488 88 q 286 -12 364 -12 m 283 22 q 409 114 361 22 q 457 361 457 206 q 415 579 457 504 q 297 654 374 654 q 215 615 250 654 q 181 507 181 576 l 181 157 q 209 58 181 94 q 283 22 238 22 z "},"c":{"ha":471,"x_min":32,"x_max":443,"o":"m 250 -12 q 140 28 189 -12 q 61 146 90 69 q 32 328 32 222 q 67 533 32 446 q 164 669 103 621 q 300 717 225 717 q 400 692 364 717 q 414 661 414 682 l 417 492 q 400 471 417 471 q 381 489 385 471 q 343 607 361 565 q 306 665 325 649 q 263 681 286 681 q 205 649 235 681 q 155 545 175 617 q 135 357 135 474 q 173 133 135 208 q 272 58 211 58 q 353 99 321 58 q 410 244 386 139 q 426 260 414 260 q 439 232 443 260 q 397 81 424 135 q 333 8 369 28 q 250 -12 296 -12 z "},"ć":{"ha":471,"x_min":32,"x_max":451,"o":"m 250 -12 q 140 28 189 -12 q 61 146 90 69 q 32 328 32 222 q 67 533 32 446 q 164 669 103 621 q 300 717 225 717 q 400 692 364 717 q 414 661 414 682 l 417 492 q 400 471 417 471 q 381 489 385 471 q 343 607 361 565 q 306 665 325 649 q 263 681 286 681 q 205 649 235 681 q 155 545 175 617 q 135 357 135 474 q 173 133 135 208 q 272 58 211 58 q 353 99 321 58 q 410 244 386 139 q 426 260 414 260 q 439 232 443 260 q 397 81 424 135 q 333 8 369 28 q 250 -12 296 -12 m 161 814 q 129 819 138 804 q 142 850 119 835 l 342 1006 q 368 1022 356 1017 q 399 1028 381 1028 q 438 1013 424 1028 q 451 982 451 999 q 442 951 451 964 q 408 926 433 938 l 161 814 z "},"č":{"ha":471,"x_min":32,"x_max":511,"o":"m 250 -12 q 140 28 189 -12 q 61 146 90 69 q 32 328 32 222 q 67 533 32 446 q 164 669 103 621 q 300 717 225 717 q 400 692 364 717 q 414 661 414 682 l 417 492 q 400 471 417 471 q 381 489 385 471 q 343 607 361 565 q 306 665 325 649 q 263 681 286 681 q 205 649 235 681 q 155 545 175 617 q 135 357 135 474 q 173 133 135 208 q 272 58 211 58 q 353 99 321 58 q 410 244 386 139 q 426 260 414 260 q 439 232 443 260 q 397 81 424 135 q 333 8 369 28 q 250 -12 296 -12 m 275 810 q 240 825 256 810 l 79 994 q 75 1021 65 1010 q 103 1024 86 1035 l 288 897 l 474 1022 q 501 1021 493 1035 q 497 994 511 1010 l 336 825 q 301 810 321 810 l 275 810 z "},"ç":{"ha":471,"x_min":32,"x_max":443,"o":"m 250 -12 q 140 28 189 -12 q 61 146 90 69 q 32 328 32 222 q 67 533 32 446 q 164 669 103 621 q 300 717 225 717 q 400 692 364 717 q 414 661 414 682 l 417 492 q 400 471 417 471 q 381 489 385 471 q 343 607 361 565 q 306 665 325 649 q 263 681 286 681 q 205 649 235 681 q 155 545 175 617 q 135 357 135 474 q 173 133 135 208 q 272 58 211 58 q 353 99 321 58 q 410 244 386 139 q 426 260 414 260 q 439 232 443 260 q 397 81 424 135 q 333 8 369 28 q 250 -12 296 -12 m 275 17 l 261 -60 q 267 -68 260 -68 q 348 -111 322 -78 q 374 -185 374 -144 q 335 -269 374 -239 q 243 -299 296 -299 q 156 -274 189 -299 q 122 -217 122 -249 q 131 -192 122 -201 q 154 -182 139 -182 q 182 -195 175 -182 q 194 -226 189 -208 q 209 -258 199 -244 q 246 -271 219 -271 q 294 -248 279 -271 q 310 -192 310 -225 q 290 -141 310 -161 q 233 -117 271 -121 q 222 -99 221 -114 l 243 17 l 275 17 z "},"ċ":{"ha":471,"x_min":32,"x_max":443,"o":"m 250 -12 q 140 28 189 -12 q 61 146 90 69 q 32 328 32 222 q 67 533 32 446 q 164 669 103 621 q 300 717 225 717 q 400 692 364 717 q 414 661 414 682 l 417 492 q 400 471 417 471 q 381 489 385 471 q 343 607 361 565 q 306 665 325 649 q 263 681 286 681 q 205 649 235 681 q 155 545 175 617 q 135 357 135 474 q 173 133 135 208 q 272 58 211 58 q 353 99 321 58 q 410 244 386 139 q 426 260 414 260 q 439 232 443 260 q 397 81 424 135 q 333 8 369 28 q 250 -12 296 -12 m 289 840 q 240 861 260 840 q 219 914 219 882 q 240 966 219 946 q 289 986 260 986 q 338 966 318 986 q 357 914 357 946 q 338 861 357 882 q 289 840 318 840 z "},"d":{"ha":635,"x_min":42,"x_max":628,"o":"m 251 -12 q 142 30 190 -12 q 68 148 94 72 q 42 324 42 224 q 78 528 42 440 q 178 667 114 617 q 322 717 242 717 q 361 713 342 717 q 399 701 381 710 q 421 711 421 690 l 421 889 q 413 924 421 914 q 386 935 406 933 l 350 939 q 335 956 335 942 q 350 972 335 969 q 422 992 394 981 q 467 1014 449 1003 q 500 1028 489 1028 q 515 1006 515 1028 l 515 132 q 544 74 515 74 q 578 98 563 74 q 593 181 593 122 q 611 203 593 203 q 628 179 628 203 q 593 33 628 78 q 514 -12 558 -12 q 453 15 474 -12 q 425 79 432 42 q 415 91 424 90 q 400 81 407 92 q 329 7 361 26 q 251 -12 297 -12 m 282 51 q 349 76 318 51 q 401 142 381 100 q 421 235 421 183 l 421 547 q 392 646 421 610 q 318 682 364 682 q 192 591 240 682 q 144 343 144 500 q 181 126 144 200 q 282 51 218 51 z "},"ð":{"ha":561,"x_min":39,"x_max":511,"o":"m 275 -12 q 156 32 210 -12 q 71 152 103 76 q 39 318 39 228 q 69 481 39 410 q 150 592 99 551 q 267 633 201 633 q 368 603 325 633 q 381 601 376 597 q 383 614 386 604 q 273 863 349 758 q 75 1007 197 967 q 60 1025 60 1011 q 66 1039 60 1033 q 86 1042 72 1044 q 252 956 175 1021 q 388 795 329 890 q 478 588 446 700 q 511 363 511 476 q 481 167 511 251 q 399 35 451 82 q 275 -12 346 -12 m 278 25 q 419 303 419 25 q 272 599 419 599 q 172 529 204 599 q 139 311 139 460 q 173 95 139 165 q 278 25 207 25 z "},"ď":{"ha":717,"x_min":42,"x_max":696,"o":"m 251 -12 q 142 30 190 -12 q 68 148 94 72 q 42 324 42 224 q 78 528 42 440 q 178 667 114 617 q 322 717 242 717 q 361 713 342 717 q 399 701 381 710 q 421 711 421 690 l 421 889 q 413 924 421 914 q 386 935 406 933 l 350 939 q 335 956 335 942 q 350 972 335 969 q 422 992 394 981 q 467 1014 449 1003 q 500 1028 489 1028 q 515 1006 515 1028 l 515 132 q 544 74 515 74 q 578 98 563 74 q 593 181 593 122 q 611 203 593 203 q 628 179 628 203 q 593 33 628 78 q 514 -12 558 -12 q 453 15 474 -12 q 425 79 432 42 q 415 91 424 90 q 400 81 407 92 q 329 7 361 26 q 251 -12 297 -12 m 282 51 q 349 76 318 51 q 401 142 381 100 q 421 235 421 183 l 421 547 q 392 646 421 610 q 318 682 364 682 q 192 591 240 682 q 144 343 144 500 q 181 126 144 200 q 282 51 218 51 m 632 726 q 608 710 628 710 q 592 732 592 710 l 597 957 q 613 1010 599 993 q 650 1028 628 1028 q 686 1007 676 1028 q 688 951 696 986 l 632 726 z "},"đ":{"ha":635,"x_min":42,"x_max":628,"o":"m 251 -12 q 142 30 190 -12 q 68 148 94 72 q 42 324 42 224 q 78 528 42 440 q 178 667 114 617 q 322 717 242 717 q 361 713 342 717 q 399 701 381 710 q 421 711 421 690 l 421 803 l 211 803 q 197 817 197 803 l 197 828 q 211 842 197 842 l 421 842 l 421 889 q 413 924 421 914 q 386 935 406 933 l 350 939 q 335 956 335 942 q 350 972 335 969 q 422 992 394 981 q 467 1014 449 1003 q 500 1028 489 1028 q 515 1006 515 1028 l 515 842 l 593 842 q 607 828 607 842 l 607 817 q 593 803 607 803 l 515 803 l 515 132 q 544 74 515 74 q 578 98 563 74 q 593 181 593 122 q 611 203 593 203 q 628 179 628 203 q 593 33 628 78 q 514 -12 558 -12 q 453 15 474 -12 q 425 79 432 42 q 415 91 424 90 q 400 81 407 92 q 329 7 361 26 q 251 -12 297 -12 m 282 51 q 349 76 318 51 q 401 142 381 100 q 421 235 421 183 l 421 547 q 392 646 421 610 q 318 682 364 682 q 192 591 240 682 q 144 343 144 500 q 181 126 144 200 q 282 51 218 51 z "},"e":{"ha":493,"x_min":32,"x_max":460,"o":"m 267 -12 q 147 32 200 -12 q 63 158 94 76 q 32 346 32 239 q 64 539 32 456 q 151 669 96 622 q 275 717 207 717 q 408 649 357 717 q 458 431 458 582 q 424 385 458 385 l 160 385 q 132 353 132 385 q 175 132 132 206 q 285 58 218 58 q 371 96 338 58 q 425 222 404 133 q 443 238 429 238 q 456 210 460 238 q 385 37 433 86 q 267 -12 336 -12 m 156 419 l 296 419 q 363 489 363 419 q 340 631 363 579 q 274 682 318 682 q 183 619 219 682 q 135 442 146 557 q 156 419 132 419 z "},"é":{"ha":493,"x_min":32,"x_max":460,"o":"m 267 -12 q 147 32 200 -12 q 63 158 94 76 q 32 346 32 239 q 64 539 32 456 q 151 669 96 622 q 275 717 207 717 q 408 649 357 717 q 458 431 458 582 q 424 385 458 385 l 160 385 q 132 353 132 385 q 175 132 132 206 q 285 58 218 58 q 371 96 338 58 q 425 222 404 133 q 443 238 429 238 q 456 210 460 238 q 385 37 433 86 q 267 -12 336 -12 m 156 419 l 296 419 q 363 489 363 419 q 340 631 363 579 q 274 682 318 682 q 183 619 219 682 q 135 442 146 557 q 156 419 132 419 m 140 814 q 108 819 117 804 q 121 850 99 835 l 321 1006 q 347 1022 335 1017 q 378 1028 360 1028 q 417 1013 403 1028 q 431 982 431 999 q 422 951 431 964 q 388 926 413 938 l 140 814 z "},"ě":{"ha":493,"x_min":32,"x_max":490,"o":"m 267 -12 q 147 32 200 -12 q 63 158 94 76 q 32 346 32 239 q 64 539 32 456 q 151 669 96 622 q 275 717 207 717 q 408 649 357 717 q 458 431 458 582 q 424 385 458 385 l 160 385 q 132 353 132 385 q 175 132 132 206 q 285 58 218 58 q 371 96 338 58 q 425 222 404 133 q 443 238 429 238 q 456 210 460 238 q 385 37 433 86 q 267 -12 336 -12 m 156 419 l 296 419 q 363 489 363 419 q 340 631 363 579 q 274 682 318 682 q 183 619 219 682 q 135 442 146 557 q 156 419 132 419 m 254 810 q 219 825 235 810 l 58 994 q 54 1021 44 1010 q 82 1024 65 1035 l 267 897 l 453 1022 q 481 1021 472 1035 q 476 994 490 1010 l 315 825 q 281 810 300 810 l 254 810 z "},"ê":{"ha":493,"x_min":32,"x_max":490,"o":"m 267 -12 q 147 32 200 -12 q 63 158 94 76 q 32 346 32 239 q 64 539 32 456 q 151 669 96 622 q 275 717 207 717 q 408 649 357 717 q 458 431 458 582 q 424 385 458 385 l 160 385 q 132 353 132 385 q 175 132 132 206 q 285 58 218 58 q 371 96 338 58 q 425 222 404 133 q 443 238 429 238 q 456 210 460 238 q 385 37 433 86 q 267 -12 336 -12 m 156 419 l 296 419 q 363 489 363 419 q 340 631 363 579 q 274 682 318 682 q 183 619 219 682 q 135 442 146 557 q 156 419 132 419 m 82 814 q 54 817 65 803 q 58 843 44 828 l 219 1013 q 254 1028 235 1028 l 281 1028 q 315 1013 300 1028 l 476 843 q 481 817 490 828 q 453 815 472 803 l 267 940 l 82 814 z "},"ë":{"ha":493,"x_min":32,"x_max":468,"o":"m 267 -12 q 147 32 200 -12 q 63 158 94 76 q 32 346 32 239 q 64 539 32 456 q 151 669 96 622 q 275 717 207 717 q 408 649 357 717 q 458 431 458 582 q 424 385 458 385 l 160 385 q 132 353 132 385 q 175 132 132 206 q 285 58 218 58 q 371 96 338 58 q 425 222 404 133 q 443 238 429 238 q 456 210 460 238 q 385 37 433 86 q 267 -12 336 -12 m 156 419 l 296 419 q 363 489 363 419 q 340 631 363 579 q 274 682 318 682 q 183 619 219 682 q 135 442 146 557 q 156 419 132 419 m 136 840 q 87 860 107 840 q 67 911 67 881 q 87 961 67 942 q 136 981 107 981 q 185 961 165 981 q 204 911 204 942 q 185 860 204 881 q 136 840 165 840 m 400 840 q 351 860 371 840 q 331 911 331 881 q 351 961 331 942 q 400 981 371 981 q 449 961 429 981 q 468 911 468 942 q 449 860 468 881 q 400 840 429 840 z "},"ė":{"ha":493,"x_min":32,"x_max":460,"o":"m 267 -12 q 147 32 200 -12 q 63 158 94 76 q 32 346 32 239 q 64 539 32 456 q 151 669 96 622 q 275 717 207 717 q 408 649 357 717 q 458 431 458 582 q 424 385 458 385 l 160 385 q 132 353 132 385 q 175 132 132 206 q 285 58 218 58 q 371 96 338 58 q 425 222 404 133 q 443 238 429 238 q 456 210 460 238 q 385 37 433 86 q 267 -12 336 -12 m 156 419 l 296 419 q 363 489 363 419 q 340 631 363 579 q 274 682 318 682 q 183 619 219 682 q 135 442 146 557 q 156 419 132 419 m 268 840 q 219 861 239 840 q 199 914 199 882 q 219 966 199 946 q 268 986 239 986 q 317 966 297 986 q 336 914 336 946 q 317 861 336 882 q 268 840 297 840 z "},"è":{"ha":493,"x_min":32,"x_max":460,"o":"m 267 -12 q 147 32 200 -12 q 63 158 94 76 q 32 346 32 239 q 64 539 32 456 q 151 669 96 622 q 275 717 207 717 q 408 649 357 717 q 458 431 458 582 q 424 385 458 385 l 160 385 q 132 353 132 385 q 175 132 132 206 q 285 58 218 58 q 371 96 338 58 q 425 222 404 133 q 443 238 429 238 q 456 210 460 238 q 385 37 433 86 q 267 -12 336 -12 m 156 419 l 296 419 q 363 489 363 419 q 340 631 363 579 q 274 682 318 682 q 183 619 219 682 q 135 442 146 557 q 156 419 132 419 m 394 814 l 147 926 q 113 951 122 938 q 104 982 104 964 q 118 1013 104 999 q 157 1028 132 1028 q 188 1022 175 1028 q 214 1006 200 1017 l 414 850 q 426 819 436 835 q 394 814 418 804 z "},"ē":{"ha":493,"x_min":32,"x_max":469,"o":"m 267 -12 q 147 32 200 -12 q 63 158 94 76 q 32 346 32 239 q 64 539 32 456 q 151 669 96 622 q 275 717 207 717 q 408 649 357 717 q 458 431 458 582 q 424 385 458 385 l 160 385 q 132 353 132 385 q 175 132 132 206 q 285 58 218 58 q 371 96 338 58 q 425 222 404 133 q 443 238 429 238 q 456 210 460 238 q 385 37 433 86 q 267 -12 336 -12 m 156 419 l 296 419 q 363 489 363 419 q 340 631 363 579 q 274 682 318 682 q 183 619 219 682 q 135 442 146 557 q 156 419 132 419 m 82 883 q 65 900 65 883 l 65 921 q 82 938 65 938 l 453 938 q 469 921 469 938 l 469 900 q 453 883 469 883 l 82 883 z "},"ę":{"ha":493,"x_min":32,"x_max":460,"o":"m 267 -12 q 147 32 200 -12 q 63 158 94 76 q 32 346 32 239 q 64 539 32 456 q 151 669 96 622 q 275 717 207 717 q 408 649 357 717 q 458 431 458 582 q 424 385 458 385 l 160 385 q 132 353 132 385 q 175 132 132 206 q 285 58 218 58 q 371 96 338 58 q 425 222 404 133 q 443 238 429 238 q 456 210 460 238 q 385 37 433 86 q 267 -12 336 -12 m 156 419 l 296 419 q 363 489 363 419 q 340 631 363 579 q 274 682 318 682 q 183 619 219 682 q 135 442 146 557 q 156 419 132 419 m 249 -300 q 178 -275 210 -300 q 146 -199 146 -250 q 169 -118 146 -160 q 231 -41 192 -76 q 318 14 269 -6 l 332 0 q 240 -83 271 -35 q 210 -185 210 -132 q 225 -242 210 -225 q 264 -258 240 -258 q 322 -229 297 -258 q 350 -225 338 -210 q 343 -254 358 -237 q 301 -288 324 -276 q 249 -300 279 -300 z "},"f":{"ha":400,"x_min":18,"x_max":433,"o":"m 118 93 l 118 636 q 85 669 118 669 l 53 669 q 36 683 36 669 q 53 699 36 697 q 118 756 118 706 l 118 764 q 140 899 118 836 q 202 1000 161 961 q 303 1039 243 1039 q 396 1007 358 1039 q 433 931 433 975 q 420 891 433 904 q 385 878 407 878 q 345 896 357 878 q 326 937 333 914 q 309 978 319 960 q 272 996 299 996 q 228 965 244 996 q 213 847 213 933 l 213 725 q 229 708 213 708 l 349 708 q 369 689 369 708 q 349 669 369 669 l 229 669 q 213 653 213 669 l 213 93 q 222 53 213 64 q 260 39 231 42 l 333 32 q 349 17 349 29 q 328 0 349 0 l 39 0 q 18 15 18 0 q 36 32 18 31 l 71 35 q 109 51 100 38 q 118 93 118 64 z "},"g":{"ha":558,"x_min":19,"x_max":547,"o":"m 247 -299 q 81 -256 142 -299 q 19 -154 19 -214 q 26 -109 19 -129 q 56 -62 33 -89 q 126 6 79 -36 q 143 34 143 21 q 126 54 143 47 q 67 108 76 75 q 90 168 57 140 l 190 254 q 189 278 207 268 q 99 364 132 306 q 65 489 65 422 q 93 604 65 553 q 168 686 121 656 q 274 717 215 717 q 338 706 307 717 q 361 718 357 699 q 408 801 374 771 q 475 831 442 831 q 527 812 507 831 q 547 765 547 793 q 533 728 547 742 q 499 714 519 714 q 472 721 481 714 q 457 735 464 728 q 435 742 450 742 q 393 706 401 742 q 394 682 389 692 q 408 663 399 672 q 460 585 442 631 q 479 483 479 539 q 452 364 479 417 q 378 281 425 311 q 274 250 332 250 q 231 240 249 250 q 194 210 213 229 l 171 183 q 160 141 153 161 q 199 121 168 121 l 318 121 q 476 72 418 121 q 535 -64 535 22 q 496 -185 535 -132 q 392 -268 457 -237 q 247 -299 328 -299 m 272 285 q 351 339 322 285 q 381 486 381 393 q 351 631 381 576 q 272 686 321 686 q 194 631 224 686 q 164 486 164 576 q 193 339 164 393 q 272 285 222 285 m 264 -268 q 356 -246 314 -268 q 422 -184 397 -224 q 446 -94 446 -144 q 409 2 446 -32 q 306 36 372 36 l 274 36 q 209 28 231 36 q 168 -1 188 19 q 114 -75 125 -47 q 103 -132 103 -103 q 145 -231 103 -193 q 264 -268 188 -268 z "},"ğ":{"ha":558,"x_min":19,"x_max":547,"o":"m 247 -299 q 81 -256 142 -299 q 19 -154 19 -214 q 26 -109 19 -129 q 56 -62 33 -89 q 126 6 79 -36 q 143 34 143 21 q 126 54 143 47 q 67 108 76 75 q 90 168 57 140 l 190 254 q 189 278 207 268 q 99 364 132 306 q 65 489 65 422 q 93 604 65 553 q 168 686 121 656 q 274 717 215 717 q 338 706 307 717 q 361 718 357 699 q 408 801 374 771 q 475 831 442 831 q 527 812 507 831 q 547 765 547 793 q 533 728 547 742 q 499 714 519 714 q 472 721 481 714 q 457 735 464 728 q 435 742 450 742 q 393 706 401 742 q 394 682 389 692 q 408 663 399 672 q 460 585 442 631 q 479 483 479 539 q 452 364 479 417 q 378 281 425 311 q 274 250 332 250 q 231 240 249 250 q 194 210 213 229 l 171 183 q 160 141 153 161 q 199 121 168 121 l 318 121 q 476 72 418 121 q 535 -64 535 22 q 496 -185 535 -132 q 392 -268 457 -237 q 247 -299 328 -299 m 272 285 q 351 339 322 285 q 381 486 381 393 q 351 631 381 576 q 272 686 321 686 q 194 631 224 686 q 164 486 164 576 q 193 339 164 393 q 272 285 222 285 m 264 -268 q 356 -246 314 -268 q 422 -184 397 -224 q 446 -94 446 -144 q 409 2 446 -32 q 306 36 372 36 l 274 36 q 209 28 231 36 q 168 -1 188 19 q 114 -75 125 -47 q 103 -132 103 -103 q 145 -231 103 -193 q 264 -268 188 -268 m 272 804 q 144 853 199 804 q 74 989 89 903 q 88 1014 69 1014 q 107 997 103 1014 q 167 910 122 938 q 272 883 211 883 q 378 910 333 883 q 438 997 422 938 q 457 1014 442 1014 q 471 989 475 1014 q 401 853 456 903 q 272 804 346 804 z "},"ģ":{"ha":558,"x_min":19,"x_max":547,"o":"m 247 -299 q 81 -256 142 -299 q 19 -154 19 -214 q 26 -109 19 -129 q 56 -62 33 -89 q 126 6 79 -36 q 143 34 143 21 q 126 54 143 47 q 67 108 76 75 q 90 168 57 140 l 190 254 q 189 278 207 268 q 99 364 132 306 q 65 489 65 422 q 93 604 65 553 q 168 686 121 656 q 274 717 215 717 q 338 706 307 717 q 361 718 357 699 q 408 801 374 771 q 475 831 442 831 q 527 812 507 831 q 547 765 547 793 q 533 728 547 742 q 499 714 519 714 q 472 721 481 714 q 457 735 464 728 q 435 742 450 742 q 393 706 401 742 q 394 682 389 692 q 408 663 399 672 q 460 585 442 631 q 479 483 479 539 q 452 364 479 417 q 378 281 425 311 q 274 250 332 250 q 231 240 249 250 q 194 210 213 229 l 171 183 q 160 141 153 161 q 199 121 168 121 l 318 121 q 476 72 418 121 q 535 -64 535 22 q 496 -185 535 -132 q 392 -268 457 -237 q 247 -299 328 -299 m 272 285 q 351 339 322 285 q 381 486 381 393 q 351 631 381 576 q 272 686 321 686 q 194 631 224 686 q 164 486 164 576 q 193 339 164 393 q 272 285 222 285 m 264 -268 q 356 -246 314 -268 q 422 -184 397 -224 q 446 -94 446 -144 q 409 2 446 -32 q 306 36 372 36 l 274 36 q 209 28 231 36 q 168 -1 188 19 q 114 -75 125 -47 q 103 -132 103 -103 q 145 -231 103 -193 q 264 -268 188 -268 m 271 800 q 216 828 236 800 q 196 900 196 857 q 224 1019 196 968 q 315 1122 253 1071 q 343 1128 332 1136 q 339 1101 356 1118 q 283 1035 299 1061 q 268 982 268 1010 q 278 947 268 960 q 303 926 289 935 q 327 903 317 917 q 338 865 338 890 q 319 819 338 838 q 271 800 300 800 z "},"ġ":{"ha":558,"x_min":19,"x_max":547,"o":"m 247 -299 q 81 -256 142 -299 q 19 -154 19 -214 q 26 -109 19 -129 q 56 -62 33 -89 q 126 6 79 -36 q 143 34 143 21 q 126 54 143 47 q 67 108 76 75 q 90 168 57 140 l 190 254 q 189 278 207 268 q 99 364 132 306 q 65 489 65 422 q 93 604 65 553 q 168 686 121 656 q 274 717 215 717 q 338 706 307 717 q 361 718 357 699 q 408 801 374 771 q 475 831 442 831 q 527 812 507 831 q 547 765 547 793 q 533 728 547 742 q 499 714 519 714 q 472 721 481 714 q 457 735 464 728 q 435 742 450 742 q 393 706 401 742 q 394 682 389 692 q 408 663 399 672 q 460 585 442 631 q 479 483 479 539 q 452 364 479 417 q 378 281 425 311 q 274 250 332 250 q 231 240 249 250 q 194 210 213 229 l 171 183 q 160 141 153 161 q 199 121 168 121 l 318 121 q 476 72 418 121 q 535 -64 535 22 q 496 -185 535 -132 q 392 -268 457 -237 q 247 -299 328 -299 m 272 285 q 351 339 322 285 q 381 486 381 393 q 351 631 381 576 q 272 686 321 686 q 194 631 224 686 q 164 486 164 576 q 193 339 164 393 q 272 285 222 285 m 264 -268 q 356 -246 314 -268 q 422 -184 397 -224 q 446 -94 446 -144 q 409 2 446 -32 q 306 36 372 36 l 274 36 q 209 28 231 36 q 168 -1 188 19 q 114 -75 125 -47 q 103 -132 103 -103 q 145 -231 103 -193 q 264 -268 188 -268 m 272 840 q 223 861 243 840 q 203 914 203 882 q 223 966 203 946 q 272 986 243 986 q 321 966 301 986 q 340 914 340 946 q 321 861 340 882 q 272 840 301 840 z "},"h":{"ha":653,"x_min":21,"x_max":638,"o":"m 38 0 q 21 15 21 0 q 36 32 21 29 l 56 35 q 94 51 85 39 q 103 93 103 64 l 103 889 q 95 923 103 914 q 68 935 88 932 l 39 939 q 24 956 24 942 q 39 972 24 969 q 104 992 78 981 q 149 1014 131 1003 q 182 1028 171 1028 q 197 1006 197 1028 l 197 638 q 206 623 197 625 q 226 632 214 621 q 319 699 279 681 q 404 717 360 717 q 507 673 469 717 q 544 544 544 629 l 544 93 q 553 52 544 64 q 592 36 563 40 l 622 32 q 638 15 638 29 q 621 0 638 0 l 388 0 q 368 15 368 0 q 383 32 368 29 l 403 35 q 441 51 432 39 q 450 93 450 64 l 450 529 q 425 625 450 597 q 354 653 400 653 q 274 627 310 653 q 218 559 239 601 q 197 465 197 517 l 197 93 q 206 51 197 64 q 244 36 215 39 l 282 32 q 297 15 297 29 q 281 0 297 0 l 38 0 z "},"ħ":{"ha":653,"x_min":11,"x_max":638,"o":"m 38 0 q 21 15 21 0 q 36 32 21 29 l 56 35 q 94 51 85 39 q 103 93 103 64 l 103 803 l 25 803 q 11 817 11 803 l 11 828 q 25 842 11 842 l 103 842 l 103 889 q 95 923 103 914 q 68 935 88 932 l 39 939 q 24 956 24 942 q 39 972 24 969 q 104 992 78 981 q 149 1014 131 1003 q 182 1028 171 1028 q 197 1006 197 1028 l 197 842 l 407 842 q 421 828 421 842 l 421 817 q 407 803 421 803 l 197 803 l 197 638 q 206 623 197 625 q 226 632 214 621 q 319 699 279 681 q 404 717 360 717 q 507 673 469 717 q 544 544 544 629 l 544 93 q 553 52 544 64 q 592 36 563 40 l 622 32 q 638 15 638 29 q 621 0 638 0 l 388 0 q 368 15 368 0 q 383 32 368 29 l 403 35 q 441 51 432 39 q 450 93 450 64 l 450 529 q 425 625 450 597 q 354 653 400 653 q 274 627 310 653 q 218 559 239 601 q 197 465 197 517 l 197 93 q 206 51 197 64 q 244 36 215 39 l 282 32 q 297 15 297 29 q 281 0 297 0 l 38 0 z "},"i":{"ha":310,"x_min":21,"x_max":294,"o":"m 158 840 q 109 861 129 840 q 89 914 89 882 q 109 966 89 946 q 158 986 129 986 q 207 966 188 986 q 226 914 226 946 q 207 861 226 882 q 158 840 188 840 m 42 0 q 21 15 21 0 q 39 32 21 28 l 56 35 q 100 52 90 40 q 110 93 110 64 l 110 560 q 102 594 110 585 q 75 606 94 603 l 46 610 q 28 625 28 611 q 50 640 28 636 q 119 663 93 647 q 171 700 146 678 q 192 713 183 713 q 204 696 204 713 l 204 93 q 213 51 204 64 q 244 36 221 39 l 279 32 q 294 17 294 29 q 274 0 294 0 l 42 0 z "},"ı":{"ha":310,"x_min":21,"x_max":294,"o":"m 42 0 q 21 15 21 0 q 39 32 21 28 l 56 35 q 100 52 90 40 q 110 93 110 64 l 110 560 q 102 594 110 585 q 75 606 94 603 l 46 610 q 28 625 28 611 q 50 640 28 636 q 119 663 93 647 q 171 700 146 678 q 192 713 183 713 q 204 696 204 713 l 204 93 q 213 51 204 64 q 244 36 221 39 l 279 32 q 294 17 294 29 q 274 0 294 0 l 42 0 z "},"í":{"ha":310,"x_min":-14,"x_max":318,"o":"m 42 0 q 21 15 21 0 q 39 32 21 28 l 56 35 q 100 52 90 40 q 110 93 110 64 l 110 560 q 102 594 110 585 q 75 606 94 603 l 46 610 q 28 625 28 611 q 50 640 28 636 q 119 663 93 647 q 171 700 146 678 q 192 713 183 713 q 204 696 204 713 l 204 93 q 213 51 204 64 q 244 36 221 39 l 279 32 q 294 17 294 29 q 274 0 294 0 l 42 0 m 28 814 q -4 819 4 804 q 8 850 -14 835 l 208 1006 q 235 1022 222 1017 q 265 1028 247 1028 q 304 1013 290 1028 q 318 982 318 999 q 309 951 318 964 q 275 926 300 938 l 28 814 z "},"î":{"ha":310,"x_min":-68,"x_max":378,"o":"m 42 0 q 21 15 21 0 q 39 32 21 28 l 56 35 q 100 52 90 40 q 110 93 110 64 l 110 560 q 102 594 110 585 q 75 606 94 603 l 46 610 q 28 625 28 611 q 50 640 28 636 q 119 663 93 647 q 171 700 146 678 q 192 713 183 713 q 204 696 204 713 l 204 93 q 213 51 204 64 q 244 36 221 39 l 279 32 q 294 17 294 29 q 274 0 294 0 l 42 0 m -31 814 q -58 817 -47 803 q -54 843 -68 828 l 107 1013 q 142 1028 122 1028 l 168 1028 q 203 1013 188 1028 l 364 843 q 368 817 378 828 q 340 815 360 803 l 154 940 l -31 814 z "},"ï":{"ha":310,"x_min":-46,"x_max":356,"o":"m 42 0 q 21 15 21 0 q 39 32 21 28 l 56 35 q 100 52 90 40 q 110 93 110 64 l 110 560 q 102 594 110 585 q 75 606 94 603 l 46 610 q 28 625 28 611 q 50 640 28 636 q 119 663 93 647 q 171 700 146 678 q 192 713 183 713 q 204 696 204 713 l 204 93 q 213 51 204 64 q 244 36 221 39 l 279 32 q 294 17 294 29 q 274 0 294 0 l 42 0 m 24 840 q -26 860 -6 840 q -46 911 -46 881 q -26 961 -46 942 q 24 981 -6 981 q 72 961 53 981 q 92 911 92 942 q 72 860 92 881 q 24 840 53 840 m 288 840 q 238 860 258 840 q 218 911 218 881 q 238 961 218 942 q 288 981 258 981 q 336 961 317 981 q 356 911 356 942 q 336 860 356 881 q 288 840 317 840 z "},"ì":{"ha":310,"x_min":-8,"x_max":324,"o":"m 42 0 q 21 15 21 0 q 39 32 21 28 l 56 35 q 100 52 90 40 q 110 93 110 64 l 110 560 q 102 594 110 585 q 75 606 94 603 l 46 610 q 28 625 28 611 q 50 640 28 636 q 119 663 93 647 q 171 700 146 678 q 192 713 183 713 q 204 696 204 713 l 204 93 q 213 51 204 64 q 244 36 221 39 l 279 32 q 294 17 294 29 q 274 0 294 0 l 42 0 m 282 814 l 35 926 q 1 951 10 938 q -8 982 -8 964 q 6 1013 -8 999 q 44 1028 19 1028 q 75 1022 63 1028 q 101 1006 88 1017 l 301 850 q 314 819 324 835 q 282 814 306 804 z "},"ĳ":{"ha":608,"x_min":21,"x_max":536,"o":"m 158 840 q 109 861 129 840 q 89 914 89 882 q 109 966 89 946 q 158 986 129 986 q 207 966 188 986 q 226 914 226 946 q 207 861 226 882 q 158 840 188 840 m 42 0 q 21 15 21 0 q 39 32 21 28 l 56 35 q 100 52 90 40 q 110 93 110 64 l 110 560 q 102 594 110 585 q 75 606 94 603 l 46 610 q 28 625 28 611 q 50 640 28 636 q 119 663 93 647 q 171 700 146 678 q 192 713 183 713 q 204 696 204 713 l 204 93 q 213 51 204 64 q 244 36 221 39 l 279 32 q 294 17 294 29 q 274 0 294 0 l 42 0 m 468 840 q 418 862 438 840 q 399 914 399 883 q 418 966 399 946 q 468 986 438 986 q 517 966 499 986 q 536 914 536 946 q 517 861 536 882 q 468 840 497 840 m 315 -299 q 249 -278 275 -299 q 222 -224 222 -257 q 237 -183 222 -200 q 276 -165 251 -165 q 308 -177 299 -165 q 324 -204 318 -189 q 338 -231 329 -219 q 365 -243 347 -243 q 406 -212 392 -243 q 419 -126 419 -182 l 419 560 q 412 594 419 585 q 385 606 404 603 l 356 610 q 338 625 338 611 q 360 640 338 636 q 429 663 403 647 q 481 700 456 678 q 501 713 493 713 q 514 696 514 713 l 514 61 q 460 -202 514 -106 q 315 -299 406 -299 z "},"ī":{"ha":310,"x_min":-47,"x_max":357,"o":"m 42 0 q 21 15 21 0 q 39 32 21 28 l 56 35 q 100 52 90 40 q 110 93 110 64 l 110 560 q 102 594 110 585 q 75 606 94 603 l 46 610 q 28 625 28 611 q 50 640 28 636 q 119 663 93 647 q 171 700 146 678 q 192 713 183 713 q 204 696 204 713 l 204 93 q 213 51 204 64 q 244 36 221 39 l 279 32 q 294 17 294 29 q 274 0 294 0 l 42 0 m -31 883 q -47 900 -47 883 l -47 921 q -31 938 -47 938 l 340 938 q 357 921 357 938 l 357 900 q 340 883 357 883 l -31 883 z "},"į":{"ha":310,"x_min":21,"x_max":294,"o":"m 42 0 q 21 15 21 0 q 39 32 21 28 l 56 35 q 100 52 90 40 q 110 93 110 64 l 110 560 q 102 594 110 585 q 75 606 94 603 l 46 610 q 28 625 28 611 q 50 640 28 636 q 119 663 93 647 q 171 700 146 678 q 192 713 183 713 q 204 696 204 713 l 204 93 q 213 51 204 64 q 244 36 221 39 l 279 32 q 294 17 294 29 q 274 0 294 0 l 42 0 m 156 840 q 106 861 126 840 q 86 914 86 882 q 106 966 86 946 q 156 986 126 986 q 204 966 185 986 q 224 914 224 946 q 204 861 224 882 q 156 840 185 840 m 149 -300 q 78 -275 110 -300 q 46 -199 46 -250 q 69 -118 46 -160 q 131 -41 92 -76 q 218 14 169 -6 l 232 0 q 140 -83 171 -35 q 110 -185 110 -132 q 125 -242 110 -225 q 164 -258 140 -258 q 222 -229 197 -258 q 250 -225 238 -210 q 243 -254 258 -237 q 201 -288 224 -276 q 149 -300 179 -300 z "},"j":{"ha":299,"x_min":-87,"x_max":226,"o":"m 158 840 q 108 862 128 840 q 89 914 89 883 q 108 966 89 946 q 158 986 128 986 q 208 966 189 986 q 226 914 226 946 q 207 861 226 882 q 158 840 188 840 m 6 -299 q -61 -278 -35 -299 q -87 -224 -87 -257 q -73 -183 -87 -200 q -33 -165 -58 -165 q -1 -177 -11 -165 q 14 -204 8 -189 q 28 -231 19 -219 q 56 -243 38 -243 q 96 -212 82 -243 q 110 -126 110 -182 l 110 560 q 102 594 110 585 q 75 606 94 603 l 46 610 q 28 625 28 611 q 50 640 28 636 q 119 663 93 647 q 171 700 146 678 q 192 713 183 713 q 204 696 204 713 l 204 61 q 150 -202 204 -106 q 6 -299 96 -299 z "},"ȷ":{"ha":299,"x_min":-87,"x_max":204,"o":"m 6 -299 q -61 -278 -35 -299 q -87 -224 -87 -257 q -73 -183 -87 -200 q -33 -165 -58 -165 q -1 -177 -11 -165 q 14 -204 8 -189 q 28 -231 19 -219 q 56 -243 38 -243 q 96 -212 82 -243 q 110 -126 110 -182 l 110 560 q 102 594 110 585 q 75 606 94 603 l 46 610 q 28 625 28 611 q 50 640 28 636 q 119 663 93 647 q 171 700 146 678 q 192 713 183 713 q 204 696 204 713 l 204 61 q 150 -202 204 -106 q 6 -299 96 -299 z "},"k":{"ha":626,"x_min":21,"x_max":626,"o":"m 38 0 q 21 15 21 0 q 36 32 21 29 l 56 35 q 94 51 85 39 q 103 93 103 64 l 103 889 q 95 923 103 914 q 68 935 88 932 l 39 939 q 24 956 24 942 q 39 972 24 969 q 104 992 78 981 q 149 1014 131 1003 q 182 1028 171 1028 q 197 1006 197 1028 l 197 424 q 209 406 197 410 q 232 415 221 403 l 394 590 q 419 644 424 622 q 386 671 414 665 l 354 676 q 336 694 336 681 q 356 708 336 708 l 594 708 q 614 693 614 708 q 596 676 614 678 l 583 675 q 519 651 551 672 q 443 583 488 629 l 357 492 q 343 429 328 460 l 518 93 q 551 53 533 65 q 596 35 569 40 l 610 32 q 626 15 626 28 q 607 0 626 0 l 365 0 q 346 15 346 0 q 364 32 346 29 l 388 35 q 410 103 440 42 l 278 360 q 258 375 271 374 q 233 365 244 376 l 218 350 q 201 325 206 338 q 197 297 197 313 l 197 93 q 206 51 197 64 q 244 36 215 39 l 282 32 q 297 15 297 29 q 281 0 297 0 l 38 0 z "},"ķ":{"ha":626,"x_min":21,"x_max":626,"o":"m 38 0 q 21 15 21 0 q 36 32 21 29 l 56 35 q 94 51 85 39 q 103 93 103 64 l 103 889 q 95 923 103 914 q 68 935 88 932 l 39 939 q 24 956 24 942 q 39 972 24 969 q 104 992 78 981 q 149 1014 131 1003 q 182 1028 171 1028 q 197 1006 197 1028 l 197 424 q 209 406 197 410 q 232 415 221 403 l 394 590 q 419 644 424 622 q 386 671 414 665 l 354 676 q 336 694 336 681 q 356 708 336 708 l 594 708 q 614 693 614 708 q 596 676 614 678 l 583 675 q 519 651 551 672 q 443 583 488 629 l 357 492 q 343 429 328 460 l 518 93 q 551 53 533 65 q 596 35 569 40 l 610 32 q 626 15 626 28 q 607 0 626 0 l 365 0 q 346 15 346 0 q 364 32 346 29 l 388 35 q 410 103 440 42 l 278 360 q 258 375 271 374 q 233 365 244 376 l 218 350 q 201 325 206 338 q 197 297 197 313 l 197 93 q 206 51 197 64 q 244 36 215 39 l 282 32 q 297 15 297 29 q 281 0 297 0 l 38 0 m 315 -93 q 370 -122 350 -93 q 390 -193 390 -150 q 362 -312 390 -261 q 271 -415 333 -362 q 243 -421 254 -429 q 247 -394 231 -411 q 303 -328 288 -354 q 318 -275 318 -301 q 308 -240 318 -253 q 283 -219 297 -228 q 259 -197 269 -210 q 249 -158 249 -183 q 267 -112 249 -131 q 315 -93 286 -93 z "},"l":{"ha":306,"x_min":11,"x_max":292,"o":"m 28 0 q 11 15 11 0 q 26 32 11 29 l 46 35 q 89 51 75 39 q 103 93 103 64 l 103 889 q 95 924 103 914 q 68 935 88 933 l 36 939 q 21 956 21 942 q 36 972 21 969 q 103 992 75 981 q 149 1014 131 1003 q 182 1028 171 1028 q 197 1006 197 1028 l 197 93 q 206 52 197 64 q 244 36 215 40 l 276 32 q 292 15 292 29 q 275 0 292 0 l 28 0 z "},"ĺ":{"ha":306,"x_min":-51,"x_max":292,"o":"m 28 0 q 11 15 11 0 q 26 32 11 29 l 46 35 q 89 51 75 39 q 103 93 103 64 l 103 889 q 95 924 103 914 q 68 935 88 933 l 36 939 q 21 956 21 942 q 36 972 21 969 q 103 992 75 981 q 149 1014 131 1003 q 182 1028 171 1028 q 197 1006 197 1028 l 197 93 q 206 52 197 64 q 244 36 215 40 l 276 32 q 292 15 292 29 q 275 0 292 0 l 28 0 m -10 1092 q -42 1097 -33 1082 q -29 1128 -51 1113 l 171 1283 q 197 1300 185 1294 q 228 1306 210 1306 q 267 1291 253 1306 q 281 1260 281 1276 q 272 1228 281 1242 q 238 1204 263 1215 l -10 1092 z "},"ľ":{"ha":399,"x_min":11,"x_max":378,"o":"m 28 0 q 11 15 11 0 q 26 32 11 29 l 46 35 q 89 51 75 39 q 103 93 103 64 l 103 889 q 95 924 103 914 q 68 935 88 933 l 36 939 q 21 956 21 942 q 36 972 21 969 q 103 992 75 981 q 149 1014 131 1003 q 182 1028 171 1028 q 197 1006 197 1028 l 197 93 q 206 52 197 64 q 244 36 215 40 l 276 32 q 292 15 292 29 q 275 0 292 0 l 28 0 m 314 726 q 290 710 310 710 q 274 732 274 710 l 279 957 q 295 1010 281 993 q 332 1028 310 1028 q 368 1007 358 1028 q 369 951 378 986 l 314 726 z "},"ļ":{"ha":306,"x_min":11,"x_max":292,"o":"m 28 0 q 11 15 11 0 q 26 32 11 29 l 46 35 q 89 51 75 39 q 103 93 103 64 l 103 889 q 95 924 103 914 q 68 935 88 933 l 36 939 q 21 956 21 942 q 36 972 21 969 q 103 992 75 981 q 149 1014 131 1003 q 182 1028 171 1028 q 197 1006 197 1028 l 197 93 q 206 52 197 64 q 244 36 215 40 l 276 32 q 292 15 292 29 q 275 0 292 0 l 28 0 m 154 -93 q 209 -122 189 -93 q 229 -193 229 -150 q 201 -312 229 -261 q 110 -415 172 -362 q 82 -421 93 -429 q 86 -394 69 -411 q 142 -328 126 -354 q 157 -275 157 -301 q 147 -240 157 -253 q 122 -219 136 -228 q 98 -197 108 -210 q 88 -158 88 -183 q 106 -112 88 -131 q 154 -93 125 -93 z "},"ł":{"ha":388,"x_min":10,"x_max":378,"o":"m 64 0 q 47 15 47 0 q 63 32 47 29 l 82 35 q 125 51 111 39 q 139 93 139 64 l 139 454 l 42 393 q 24 397 31 386 l 17 407 q 21 426 10 419 l 139 500 l 139 889 q 131 924 139 914 q 104 935 124 933 l 72 939 q 57 956 57 942 q 72 972 57 969 q 139 992 111 981 q 185 1014 167 1003 q 218 1028 207 1028 q 233 1006 233 1028 l 233 563 l 346 633 q 364 629 357 640 l 371 619 q 367 600 378 607 l 233 517 l 233 93 q 242 52 233 64 q 281 36 251 40 l 313 32 q 328 15 328 29 q 311 0 328 0 l 64 0 z "},"m":{"ha":978,"x_min":21,"x_max":963,"o":"m 42 0 q 21 15 21 0 q 39 32 21 28 l 56 35 q 94 52 85 40 q 103 93 103 64 l 103 560 q 95 594 103 585 q 68 606 88 603 l 39 610 q 21 625 21 611 q 43 640 21 636 q 109 663 86 647 q 157 700 132 678 q 178 713 169 713 q 190 696 190 713 l 190 633 q 199 619 190 624 q 217 624 207 614 q 316 697 274 678 q 401 717 358 717 q 473 695 442 717 q 519 631 504 674 q 534 617 524 619 q 554 625 544 615 q 653 697 611 678 q 738 717 694 717 q 833 673 796 717 q 869 544 869 629 l 869 93 q 878 52 869 64 q 917 36 888 40 l 947 32 q 963 15 963 29 q 946 0 963 0 l 708 0 q 689 15 689 0 q 704 32 689 29 l 724 35 q 765 51 756 39 q 775 93 775 64 l 775 529 q 751 625 775 597 q 685 653 726 653 q 609 627 643 653 q 554 559 575 601 q 533 465 533 517 l 533 93 q 543 52 533 64 q 583 36 553 40 l 614 32 q 629 15 629 29 q 613 0 629 0 l 376 0 q 357 15 357 0 q 372 32 357 29 l 392 35 q 430 51 421 39 q 439 93 439 64 l 439 529 q 415 625 439 597 q 349 653 390 653 q 273 627 307 653 q 218 559 239 601 q 197 465 197 517 l 197 93 q 206 51 197 64 q 244 36 215 39 l 282 32 q 297 17 297 29 q 276 0 297 0 l 42 0 z "},"n":{"ha":653,"x_min":21,"x_max":638,"o":"m 42 0 q 21 15 21 0 q 39 32 21 28 l 56 35 q 94 52 85 40 q 103 93 103 64 l 103 560 q 95 594 103 585 q 68 606 88 603 l 39 610 q 21 625 21 611 q 43 640 21 636 q 109 663 86 647 q 157 700 132 678 q 178 713 169 713 q 190 696 190 713 l 190 633 q 199 617 190 621 q 219 625 208 614 q 317 697 275 678 q 407 717 360 717 q 507 673 469 717 q 544 544 544 629 l 544 93 q 553 52 544 64 q 592 36 563 40 l 622 32 q 638 15 638 29 q 621 0 638 0 l 388 0 q 368 15 368 0 q 383 32 368 29 l 403 35 q 441 51 432 39 q 450 93 450 64 l 450 529 q 425 625 450 597 q 354 653 400 653 q 274 627 310 653 q 218 559 239 601 q 197 465 197 517 l 197 93 q 206 51 197 64 q 244 36 215 39 l 282 32 q 297 17 297 29 q 276 0 297 0 l 42 0 z "},"ń":{"ha":653,"x_min":21,"x_max":638,"o":"m 42 0 q 21 15 21 0 q 39 32 21 28 l 56 35 q 94 52 85 40 q 103 93 103 64 l 103 560 q 95 594 103 585 q 68 606 88 603 l 39 610 q 21 625 21 611 q 43 640 21 636 q 109 663 86 647 q 157 700 132 678 q 178 713 169 713 q 190 696 190 713 l 190 633 q 199 617 190 621 q 219 625 208 614 q 317 697 275 678 q 407 717 360 717 q 507 673 469 717 q 544 544 544 629 l 544 93 q 553 52 544 64 q 592 36 563 40 l 622 32 q 638 15 638 29 q 621 0 638 0 l 388 0 q 368 15 368 0 q 383 32 368 29 l 403 35 q 441 51 432 39 q 450 93 450 64 l 450 529 q 425 625 450 597 q 354 653 400 653 q 274 627 310 653 q 218 559 239 601 q 197 465 197 517 l 197 93 q 206 51 197 64 q 244 36 215 39 l 282 32 q 297 17 297 29 q 276 0 297 0 l 42 0 m 199 814 q 167 819 175 804 q 179 850 157 835 l 379 1006 q 406 1022 393 1017 q 436 1028 418 1028 q 475 1013 461 1028 q 489 982 489 999 q 480 951 489 964 q 446 926 471 938 l 199 814 z "},"ň":{"ha":653,"x_min":21,"x_max":638,"o":"m 42 0 q 21 15 21 0 q 39 32 21 28 l 56 35 q 94 52 85 40 q 103 93 103 64 l 103 560 q 95 594 103 585 q 68 606 88 603 l 39 610 q 21 625 21 611 q 43 640 21 636 q 109 663 86 647 q 157 700 132 678 q 178 713 169 713 q 190 696 190 713 l 190 633 q 199 617 190 621 q 219 625 208 614 q 317 697 275 678 q 407 717 360 717 q 507 673 469 717 q 544 544 544 629 l 544 93 q 553 52 544 64 q 592 36 563 40 l 622 32 q 638 15 638 29 q 621 0 638 0 l 388 0 q 368 15 368 0 q 383 32 368 29 l 403 35 q 441 51 432 39 q 450 93 450 64 l 450 529 q 425 625 450 597 q 354 653 400 653 q 274 627 310 653 q 218 559 239 601 q 197 465 197 517 l 197 93 q 206 51 197 64 q 244 36 215 39 l 282 32 q 297 17 297 29 q 276 0 297 0 l 42 0 m 313 810 q 278 825 293 810 l 117 994 q 113 1021 103 1010 q 140 1024 124 1035 l 325 897 l 511 1022 q 539 1021 531 1035 q 535 994 549 1010 l 374 825 q 339 810 358 810 l 313 810 z "},"ņ":{"ha":653,"x_min":21,"x_max":638,"o":"m 42 0 q 21 15 21 0 q 39 32 21 28 l 56 35 q 94 52 85 40 q 103 93 103 64 l 103 560 q 95 594 103 585 q 68 606 88 603 l 39 610 q 21 625 21 611 q 43 640 21 636 q 109 663 86 647 q 157 700 132 678 q 178 713 169 713 q 190 696 190 713 l 190 633 q 199 617 190 621 q 219 625 208 614 q 317 697 275 678 q 407 717 360 717 q 507 673 469 717 q 544 544 544 629 l 544 93 q 553 52 544 64 q 592 36 563 40 l 622 32 q 638 15 638 29 q 621 0 638 0 l 388 0 q 368 15 368 0 q 383 32 368 29 l 403 35 q 441 51 432 39 q 450 93 450 64 l 450 529 q 425 625 450 597 q 354 653 400 653 q 274 627 310 653 q 218 559 239 601 q 197 465 197 517 l 197 93 q 206 51 197 64 q 244 36 215 39 l 282 32 q 297 17 297 29 q 276 0 297 0 l 42 0 m 328 -93 q 383 -122 363 -93 q 403 -193 403 -150 q 374 -312 403 -261 q 283 -415 346 -362 q 256 -421 267 -429 q 260 -394 243 -411 q 315 -328 300 -354 q 331 -275 331 -301 q 320 -240 331 -253 q 296 -219 310 -228 q 272 -197 282 -210 q 261 -158 261 -183 q 280 -112 261 -131 q 328 -93 299 -93 z "},"ñ":{"ha":653,"x_min":21,"x_max":638,"o":"m 42 0 q 21 15 21 0 q 39 32 21 28 l 56 35 q 94 52 85 40 q 103 93 103 64 l 103 560 q 95 594 103 585 q 68 606 88 603 l 39 610 q 21 625 21 611 q 43 640 21 636 q 109 663 86 647 q 157 700 132 678 q 178 713 169 713 q 190 696 190 713 l 190 633 q 199 617 190 621 q 219 625 208 614 q 317 697 275 678 q 407 717 360 717 q 507 673 469 717 q 544 544 544 629 l 544 93 q 553 52 544 64 q 592 36 563 40 l 622 32 q 638 15 638 29 q 621 0 638 0 l 388 0 q 368 15 368 0 q 383 32 368 29 l 403 35 q 441 51 432 39 q 450 93 450 64 l 450 529 q 425 625 450 597 q 354 653 400 653 q 274 627 310 653 q 218 559 239 601 q 197 465 197 517 l 197 93 q 206 51 197 64 q 244 36 215 39 l 282 32 q 297 17 297 29 q 276 0 297 0 l 42 0 m 414 829 q 353 843 378 829 q 310 874 329 857 q 269 906 290 892 q 219 919 249 919 q 165 902 185 919 q 133 849 146 885 q 114 832 128 832 q 100 853 96 832 q 151 960 114 924 q 239 997 188 997 q 298 983 274 997 q 343 952 322 969 q 385 921 364 935 q 433 907 407 907 q 488 924 468 907 q 519 978 507 942 q 539 994 526 994 q 553 974 557 994 q 503 866 539 903 q 414 829 467 829 z "},"ŋ":{"ha":639,"x_min":21,"x_max":544,"o":"m 346 -299 q 279 -278 306 -299 q 253 -224 253 -257 q 267 -183 253 -200 q 307 -165 282 -165 q 339 -177 329 -165 q 354 -204 349 -189 q 369 -231 360 -219 q 396 -243 378 -243 q 436 -212 422 -243 q 450 -126 450 -182 l 450 529 q 425 625 450 597 q 354 653 400 653 q 274 627 310 653 q 218 559 239 601 q 197 465 197 517 l 197 93 q 206 51 197 64 q 244 36 215 39 l 282 32 q 297 17 297 29 q 276 0 297 0 l 42 0 q 21 15 21 0 q 39 32 21 28 l 56 35 q 94 52 85 40 q 103 93 103 64 l 103 560 q 95 594 103 585 q 68 606 88 603 l 39 610 q 21 625 21 611 q 43 640 21 636 q 109 663 86 647 q 157 700 132 678 q 178 713 169 713 q 190 696 190 713 l 190 633 q 199 617 190 621 q 219 625 208 614 q 317 697 275 678 q 407 717 360 717 q 507 673 469 717 q 544 544 544 629 l 544 61 q 490 -202 544 -106 q 346 -299 436 -299 z "},"o":{"ha":567,"x_min":32,"x_max":532,"o":"m 282 -12 q 155 35 211 -12 q 65 167 99 83 q 32 353 32 250 q 65 538 32 456 q 156 668 99 619 q 282 717 213 717 q 409 668 353 717 q 499 538 465 619 q 532 353 532 456 q 499 167 532 250 q 410 35 467 83 q 282 -12 353 -12 m 282 22 q 426 353 426 22 q 282 682 426 682 q 138 353 138 682 q 282 22 138 22 z "},"ó":{"ha":567,"x_min":32,"x_max":532,"o":"m 282 -12 q 155 35 211 -12 q 65 167 99 83 q 32 353 32 250 q 65 538 32 456 q 156 668 99 619 q 282 717 213 717 q 409 668 353 717 q 499 538 465 619 q 532 353 532 456 q 499 167 532 250 q 410 35 467 83 q 282 -12 353 -12 m 282 22 q 426 353 426 22 q 282 682 426 682 q 138 353 138 682 q 282 22 138 22 m 156 814 q 124 819 132 804 q 136 850 114 835 l 336 1006 q 363 1022 350 1017 q 393 1028 375 1028 q 432 1013 418 1028 q 446 982 446 999 q 437 951 446 964 q 403 926 428 938 l 156 814 z "},"ô":{"ha":567,"x_min":32,"x_max":532,"o":"m 282 -12 q 155 35 211 -12 q 65 167 99 83 q 32 353 32 250 q 65 538 32 456 q 156 668 99 619 q 282 717 213 717 q 409 668 353 717 q 499 538 465 619 q 532 353 532 456 q 499 167 532 250 q 410 35 467 83 q 282 -12 353 -12 m 282 22 q 426 353 426 22 q 282 682 426 682 q 138 353 138 682 q 282 22 138 22 m 97 814 q 69 817 81 803 q 74 843 60 828 l 235 1013 q 269 1028 250 1028 l 296 1028 q 331 1013 315 1028 l 492 843 q 496 817 506 828 q 468 815 488 803 l 282 940 l 97 814 z "},"ö":{"ha":567,"x_min":32,"x_max":532,"o":"m 282 -12 q 155 35 211 -12 q 65 167 99 83 q 32 353 32 250 q 65 538 32 456 q 156 668 99 619 q 282 717 213 717 q 409 668 353 717 q 499 538 465 619 q 532 353 532 456 q 499 167 532 250 q 410 35 467 83 q 282 -12 353 -12 m 282 22 q 426 353 426 22 q 282 682 426 682 q 138 353 138 682 q 282 22 138 22 m 151 840 q 102 860 122 840 q 82 911 82 881 q 102 961 82 942 q 151 981 122 981 q 200 961 181 981 q 219 911 219 942 q 200 860 219 881 q 151 840 181 840 m 415 840 q 366 860 386 840 q 346 911 346 881 q 366 961 346 942 q 415 981 386 981 q 464 961 444 981 q 483 911 483 942 q 464 860 483 881 q 415 840 444 840 z "},"ò":{"ha":567,"x_min":32,"x_max":532,"o":"m 282 -12 q 155 35 211 -12 q 65 167 99 83 q 32 353 32 250 q 65 538 32 456 q 156 668 99 619 q 282 717 213 717 q 409 668 353 717 q 499 538 465 619 q 532 353 532 456 q 499 167 532 250 q 410 35 467 83 q 282 -12 353 -12 m 282 22 q 426 353 426 22 q 282 682 426 682 q 138 353 138 682 q 282 22 138 22 m 410 814 l 163 926 q 128 951 138 938 q 119 982 119 964 q 133 1013 119 999 q 172 1028 147 1028 q 203 1022 190 1028 q 229 1006 215 1017 l 429 850 q 442 819 451 835 q 410 814 433 804 z "},"ő":{"ha":567,"x_min":32,"x_max":532,"o":"m 282 -12 q 155 35 211 -12 q 65 167 99 83 q 32 353 32 250 q 65 538 32 456 q 156 668 99 619 q 282 717 213 717 q 409 668 353 717 q 499 538 465 619 q 532 353 532 456 q 499 167 532 250 q 410 35 467 83 q 282 -12 353 -12 m 282 22 q 426 353 426 22 q 282 682 426 682 q 138 353 138 682 q 282 22 138 22 m 160 819 q 129 814 142 806 q 128 846 117 822 l 200 978 q 228 1016 214 1004 q 265 1028 243 1028 q 302 1015 289 1028 q 315 985 315 1003 q 276 919 315 953 l 160 819 m 368 819 q 338 814 350 806 q 336 846 325 822 l 408 978 q 437 1016 422 1004 q 474 1028 451 1028 q 510 1015 497 1028 q 524 985 524 1003 q 485 919 524 953 l 368 819 z "},"ō":{"ha":567,"x_min":32,"x_max":532,"o":"m 282 -12 q 155 35 211 -12 q 65 167 99 83 q 32 353 32 250 q 65 538 32 456 q 156 668 99 619 q 282 717 213 717 q 409 668 353 717 q 499 538 465 619 q 532 353 532 456 q 499 167 532 250 q 410 35 467 83 q 282 -12 353 -12 m 282 22 q 426 353 426 22 q 282 682 426 682 q 138 353 138 682 q 282 22 138 22 m 97 883 q 81 900 81 883 l 81 921 q 97 938 81 938 l 468 938 q 485 921 485 938 l 485 900 q 468 883 485 883 l 97 883 z "},"ø":{"ha":567,"x_min":32,"x_max":532,"o":"m 100 -69 q 89 -53 82 -69 l 135 54 q 60 181 88 103 q 32 353 32 258 q 65 538 32 456 q 156 668 99 619 q 282 717 213 717 q 400 675 346 717 l 439 767 q 454 778 443 778 l 464 778 q 475 761 482 778 l 428 650 q 503 524 475 601 q 532 353 532 446 q 499 167 532 250 q 410 35 467 83 q 282 -12 353 -12 q 163 29 218 -12 l 125 -58 q 110 -69 121 -69 l 100 -69 m 138 353 q 165 125 138 206 l 378 624 q 282 682 343 682 q 138 353 138 682 m 282 22 q 426 353 426 22 q 397 581 426 500 l 185 81 q 282 22 219 22 z "},"õ":{"ha":567,"x_min":32,"x_max":532,"o":"m 282 -12 q 155 35 211 -12 q 65 167 99 83 q 32 353 32 250 q 65 538 32 456 q 156 668 99 619 q 282 717 213 717 q 409 668 353 717 q 499 538 465 619 q 532 353 532 456 q 499 167 532 250 q 410 35 467 83 q 282 -12 353 -12 m 282 22 q 426 353 426 22 q 282 682 426 682 q 138 353 138 682 q 282 22 138 22 m 371 829 q 310 843 335 829 q 267 874 286 857 q 226 906 247 892 q 176 919 206 919 q 122 902 142 919 q 90 849 103 885 q 71 832 85 832 q 57 853 53 832 q 108 960 71 924 q 196 997 144 997 q 255 983 231 997 q 300 952 279 969 q 342 921 321 935 q 390 907 364 907 q 444 924 425 907 q 476 978 464 942 q 496 994 483 994 q 510 974 514 994 q 460 866 496 903 q 371 829 424 829 z "},"œ":{"ha":888,"x_min":32,"x_max":854,"o":"m 282 -12 q 155 35 211 -12 q 65 167 99 83 q 32 353 32 250 q 65 538 32 456 q 156 668 99 619 q 282 717 213 717 q 394 678 344 717 q 474 574 443 639 q 558 678 507 640 q 669 717 608 717 q 802 649 751 717 q 853 431 853 582 q 818 385 853 385 l 554 385 q 526 353 526 385 q 569 132 526 206 q 679 58 613 58 q 765 96 732 58 q 819 222 799 133 q 838 238 824 238 q 850 210 854 238 q 779 37 828 86 q 661 -12 731 -12 q 552 24 601 -12 q 471 125 503 60 q 392 24 440 61 q 282 -12 343 -12 m 282 22 q 426 353 426 22 q 282 682 426 682 q 138 353 138 682 q 282 22 138 22 m 550 419 l 690 419 q 757 489 757 419 q 735 631 757 579 q 668 682 713 682 q 577 619 614 682 q 529 442 540 557 q 550 419 526 419 z "},"p":{"ha":617,"x_min":17,"x_max":575,"o":"m 38 -285 q 17 -269 17 -285 q 35 -253 17 -254 l 54 -250 q 92 -233 83 -246 q 101 -192 101 -221 l 101 560 q 94 594 101 585 q 67 606 86 603 l 38 610 q 19 625 19 611 q 42 640 19 636 q 108 663 85 647 q 156 700 131 678 q 176 713 168 713 q 189 696 189 713 l 189 653 q 197 640 189 643 q 217 647 206 636 l 232 663 q 289 703 260 690 q 356 717 318 717 q 469 674 419 717 q 547 557 518 632 q 575 381 575 482 q 539 176 575 265 q 440 38 503 88 q 294 -12 376 -12 q 221 3 253 -12 q 196 -12 196 14 l 196 -192 q 205 -231 196 -221 q 243 -246 214 -242 l 294 -253 q 310 -268 310 -256 q 289 -285 310 -285 l 38 -285 m 299 22 q 424 114 376 22 q 472 361 472 206 q 431 579 472 504 q 313 654 389 654 q 231 615 265 654 q 196 507 196 576 l 196 157 q 224 58 196 94 q 299 22 253 22 z "},"þ":{"ha":617,"x_min":15,"x_max":575,"o":"m 38 -285 q 17 -269 17 -285 q 35 -253 17 -254 l 54 -250 q 92 -233 83 -246 q 101 -192 101 -221 l 101 889 q 90 923 101 914 q 60 935 79 932 l 31 939 q 15 956 15 942 q 31 972 15 969 q 96 992 69 981 q 140 1014 122 1003 q 174 1028 163 1028 q 189 1006 189 1028 l 189 653 q 197 640 189 643 q 217 647 206 636 l 232 663 q 289 703 260 690 q 356 717 318 717 q 469 674 419 717 q 547 557 518 632 q 575 381 575 482 q 539 176 575 265 q 440 38 503 88 q 294 -12 376 -12 q 221 3 253 -12 q 196 -12 196 14 l 196 -192 q 205 -231 196 -221 q 243 -246 214 -242 l 294 -253 q 310 -268 310 -256 q 289 -285 310 -285 l 38 -285 m 299 22 q 424 114 376 22 q 472 361 472 206 q 431 579 472 504 q 313 654 389 654 q 231 615 265 654 q 196 507 196 576 l 196 157 q 224 58 196 94 q 299 22 253 22 z "},"q":{"ha":614,"x_min":42,"x_max":600,"o":"m 328 -285 q 307 -268 307 -285 q 322 -253 307 -256 l 374 -246 q 412 -231 403 -242 q 421 -192 421 -221 l 421 63 q 411 77 421 74 q 392 69 401 81 q 326 6 357 24 q 251 -12 296 -12 q 142 30 190 -12 q 68 148 94 72 q 42 324 42 224 q 78 528 42 440 q 178 667 114 617 q 322 717 242 717 q 374 708 350 717 q 425 681 399 700 q 481 692 456 660 q 502 712 494 707 q 515 717 510 717 q 526 697 531 717 q 518 616 521 667 q 515 482 515 565 l 515 -192 q 524 -233 515 -221 q 563 -250 533 -246 l 582 -253 q 600 -269 600 -254 q 579 -285 600 -285 l 328 -285 m 282 51 q 349 76 318 51 q 401 142 381 100 q 421 235 421 183 l 421 547 q 392 646 421 610 q 318 682 364 682 q 192 591 240 682 q 144 343 144 500 q 181 126 144 200 q 282 51 218 51 z "},"r":{"ha":442,"x_min":21,"x_max":442,"o":"m 214 619 q 351 717 271 717 q 419 690 397 717 q 442 629 442 663 q 428 586 442 603 q 388 569 415 569 q 355 580 365 569 q 338 604 344 590 q 324 628 332 618 q 296 639 315 639 q 249 609 271 639 q 212 529 226 579 q 197 415 197 479 l 197 93 q 206 51 197 64 q 244 36 215 39 l 282 32 q 297 17 297 29 q 276 0 297 0 l 42 0 q 21 15 21 0 q 39 32 21 28 l 56 35 q 94 52 85 40 q 103 93 103 64 l 103 560 q 95 594 103 585 q 68 606 88 603 l 39 610 q 21 625 21 611 q 43 640 21 636 q 109 663 86 647 q 157 700 132 678 q 178 713 169 713 q 190 696 190 713 l 190 621 q 199 609 190 611 q 214 619 207 607 z "},"ŕ":{"ha":442,"x_min":21,"x_max":442,"o":"m 214 619 q 351 717 271 717 q 419 690 397 717 q 442 629 442 663 q 428 586 442 603 q 388 569 415 569 q 355 580 365 569 q 338 604 344 590 q 324 628 332 618 q 296 639 315 639 q 249 609 271 639 q 212 529 226 579 q 197 415 197 479 l 197 93 q 206 51 197 64 q 244 36 215 39 l 282 32 q 297 17 297 29 q 276 0 297 0 l 42 0 q 21 15 21 0 q 39 32 21 28 l 56 35 q 94 52 85 40 q 103 93 103 64 l 103 560 q 95 594 103 585 q 68 606 88 603 l 39 610 q 21 625 21 611 q 43 640 21 636 q 109 663 86 647 q 157 700 132 678 q 178 713 169 713 q 190 696 190 713 l 190 621 q 199 609 190 611 q 214 619 207 607 m 93 814 q 61 819 69 804 q 74 850 51 835 l 274 1006 q 300 1022 288 1017 q 331 1028 313 1028 q 369 1013 356 1028 q 383 982 383 999 q 374 951 383 964 q 340 926 365 938 l 93 814 z "},"ř":{"ha":442,"x_min":-3,"x_max":443,"o":"m 214 619 q 351 717 271 717 q 419 690 397 717 q 442 629 442 663 q 428 586 442 603 q 388 569 415 569 q 355 580 365 569 q 338 604 344 590 q 324 628 332 618 q 296 639 315 639 q 249 609 271 639 q 212 529 226 579 q 197 415 197 479 l 197 93 q 206 51 197 64 q 244 36 215 39 l 282 32 q 297 17 297 29 q 276 0 297 0 l 42 0 q 21 15 21 0 q 39 32 21 28 l 56 35 q 94 52 85 40 q 103 93 103 64 l 103 560 q 95 594 103 585 q 68 606 88 603 l 39 610 q 21 625 21 611 q 43 640 21 636 q 109 663 86 647 q 157 700 132 678 q 178 713 169 713 q 190 696 190 713 l 190 621 q 199 609 190 611 q 214 619 207 607 m 207 810 q 172 825 188 810 l 11 994 q 7 1021 -3 1010 q 35 1024 18 1035 l 219 897 l 406 1022 q 433 1021 425 1035 q 429 994 443 1010 l 268 825 q 233 810 253 810 l 207 810 z "},"ŗ":{"ha":442,"x_min":21,"x_max":442,"o":"m 214 619 q 351 717 271 717 q 419 690 397 717 q 442 629 442 663 q 428 586 442 603 q 388 569 415 569 q 355 580 365 569 q 338 604 344 590 q 324 628 332 618 q 296 639 315 639 q 249 609 271 639 q 212 529 226 579 q 197 415 197 479 l 197 93 q 206 51 197 64 q 244 36 215 39 l 282 32 q 297 17 297 29 q 276 0 297 0 l 42 0 q 21 15 21 0 q 39 32 21 28 l 56 35 q 94 52 85 40 q 103 93 103 64 l 103 560 q 95 594 103 585 q 68 606 88 603 l 39 610 q 21 625 21 611 q 43 640 21 636 q 109 663 86 647 q 157 700 132 678 q 178 713 169 713 q 190 696 190 713 l 190 621 q 199 609 190 611 q 214 619 207 607 m 153 -93 q 208 -122 188 -93 q 228 -193 228 -150 q 199 -312 228 -261 q 108 -415 171 -362 q 81 -421 92 -429 q 85 -394 68 -411 q 140 -328 125 -354 q 156 -275 156 -301 q 145 -240 156 -253 q 121 -219 135 -228 q 97 -197 107 -210 q 86 -158 86 -183 q 105 -112 86 -131 q 153 -93 124 -93 z "},"s":{"ha":428,"x_min":39,"x_max":389,"o":"m 182 -12 q 114 -5 150 -12 q 56 14 78 3 q 43 38 43 21 l 39 193 q 57 217 39 217 q 78 194 72 217 q 135 60 101 96 q 218 24 169 24 q 285 55 258 24 q 311 142 311 86 q 281 240 311 197 q 178 335 250 283 q 72 433 106 383 q 39 540 39 482 q 94 668 39 619 q 242 717 150 717 q 296 710 269 717 q 343 690 322 704 q 356 668 356 682 l 358 515 q 342 494 358 494 q 328 501 332 494 q 321 517 324 507 q 265 642 293 607 q 197 678 238 678 q 138 653 161 678 q 114 590 114 628 q 143 506 114 542 q 249 417 172 469 q 353 309 318 367 q 389 183 389 251 q 332 41 389 94 q 182 -12 275 -12 z "},"ś":{"ha":428,"x_min":39,"x_max":389,"o":"m 182 -12 q 114 -5 150 -12 q 56 14 78 3 q 43 38 43 21 l 39 193 q 57 217 39 217 q 78 194 72 217 q 135 60 101 96 q 218 24 169 24 q 285 55 258 24 q 311 142 311 86 q 281 240 311 197 q 178 335 250 283 q 72 433 106 383 q 39 540 39 482 q 94 668 39 619 q 242 717 150 717 q 296 710 269 717 q 343 690 322 704 q 356 668 356 682 l 358 515 q 342 494 358 494 q 328 501 332 494 q 321 517 324 507 q 265 642 293 607 q 197 678 238 678 q 138 653 161 678 q 114 590 114 628 q 143 506 114 542 q 249 417 172 469 q 353 309 318 367 q 389 183 389 251 q 332 41 389 94 q 182 -12 275 -12 m 86 814 q 54 819 63 804 q 67 850 44 835 l 267 1006 q 293 1022 281 1017 q 324 1028 306 1028 q 363 1013 349 1028 q 376 982 376 999 q 367 951 376 964 q 333 926 358 938 l 86 814 z "},"š":{"ha":428,"x_min":-10,"x_max":436,"o":"m 182 -12 q 114 -5 150 -12 q 56 14 78 3 q 43 38 43 21 l 39 193 q 57 217 39 217 q 78 194 72 217 q 135 60 101 96 q 218 24 169 24 q 285 55 258 24 q 311 142 311 86 q 281 240 311 197 q 178 335 250 283 q 72 433 106 383 q 39 540 39 482 q 94 668 39 619 q 242 717 150 717 q 296 710 269 717 q 343 690 322 704 q 356 668 356 682 l 358 515 q 342 494 358 494 q 328 501 332 494 q 321 517 324 507 q 265 642 293 607 q 197 678 238 678 q 138 653 161 678 q 114 590 114 628 q 143 506 114 542 q 249 417 172 469 q 353 309 318 367 q 389 183 389 251 q 332 41 389 94 q 182 -12 275 -12 m 200 810 q 165 825 181 810 l 4 994 q 0 1021 -10 1010 q 28 1024 11 1035 l 213 897 l 399 1022 q 426 1021 418 1035 q 422 994 436 1010 l 261 825 q 226 810 246 810 l 200 810 z "},"ş":{"ha":428,"x_min":39,"x_max":389,"o":"m 182 -12 q 114 -5 150 -12 q 56 14 78 3 q 43 38 43 21 l 39 193 q 57 217 39 217 q 78 194 72 217 q 135 60 101 96 q 218 24 169 24 q 285 55 258 24 q 311 142 311 86 q 281 240 311 197 q 178 335 250 283 q 72 433 106 383 q 39 540 39 482 q 94 668 39 619 q 242 717 150 717 q 296 710 269 717 q 343 690 322 704 q 356 668 356 682 l 358 515 q 342 494 358 494 q 328 501 332 494 q 321 517 324 507 q 265 642 293 607 q 197 678 238 678 q 138 653 161 678 q 114 590 114 628 q 143 506 114 542 q 249 417 172 469 q 353 309 318 367 q 389 183 389 251 q 332 41 389 94 q 182 -12 275 -12 m 222 17 l 208 -60 q 214 -68 207 -68 q 295 -111 269 -78 q 321 -185 321 -144 q 282 -269 321 -239 q 190 -299 243 -299 q 103 -274 136 -299 q 69 -217 69 -249 q 78 -192 69 -201 q 101 -182 86 -182 q 129 -195 122 -182 q 141 -226 136 -208 q 156 -258 146 -244 q 193 -271 167 -271 q 242 -248 226 -271 q 257 -192 257 -225 q 238 -141 257 -161 q 181 -117 218 -121 q 169 -99 168 -114 l 190 17 l 222 17 z "},"ș":{"ha":428,"x_min":39,"x_max":389,"o":"m 182 -12 q 114 -5 150 -12 q 56 14 78 3 q 43 38 43 21 l 39 193 q 57 217 39 217 q 78 194 72 217 q 135 60 101 96 q 218 24 169 24 q 285 55 258 24 q 311 142 311 86 q 281 240 311 197 q 178 335 250 283 q 72 433 106 383 q 39 540 39 482 q 94 668 39 619 q 242 717 150 717 q 296 710 269 717 q 343 690 322 704 q 356 668 356 682 l 358 515 q 342 494 358 494 q 328 501 332 494 q 321 517 324 507 q 265 642 293 607 q 197 678 238 678 q 138 653 161 678 q 114 590 114 628 q 143 506 114 542 q 249 417 172 469 q 353 309 318 367 q 389 183 389 251 q 332 41 389 94 q 182 -12 275 -12 m 201 -93 q 256 -122 236 -93 q 276 -193 276 -150 q 248 -312 276 -261 q 157 -415 219 -362 q 129 -421 140 -429 q 133 -394 117 -411 q 189 -328 174 -354 q 204 -275 204 -301 q 194 -240 204 -253 q 169 -219 183 -228 q 145 -197 156 -210 q 135 -158 135 -183 q 153 -112 135 -131 q 201 -93 172 -93 z "},"ß":{"ha":615,"x_min":18,"x_max":599,"o":"m 413 -12 q 343 -5 374 -12 q 290 14 313 3 q 278 38 278 21 l 274 193 q 292 217 274 217 q 313 194 307 217 q 361 60 336 96 q 432 24 386 24 q 497 55 469 24 q 525 142 525 86 q 497 242 525 197 q 408 326 468 286 q 305 422 336 375 q 274 526 274 469 q 292 606 274 572 q 338 669 311 640 q 392 729 365 699 q 438 799 419 760 q 457 893 457 839 q 433 968 457 940 q 360 996 410 996 q 256 947 300 996 q 213 792 213 899 l 213 28 q 185 0 213 0 l 39 0 q 18 15 18 0 q 36 32 18 31 l 71 35 q 109 51 100 38 q 118 93 118 64 l 118 636 q 85 669 118 669 l 53 669 q 36 683 36 669 q 53 699 36 697 q 118 756 118 706 q 148 897 118 832 q 233 1000 178 961 q 367 1039 289 1039 q 467 1015 428 1039 q 526 956 507 990 q 546 886 546 921 q 524 801 546 839 q 472 734 503 764 q 409 677 440 704 q 356 622 378 650 q 335 563 335 594 q 346 515 335 538 q 385 469 357 493 q 465 408 414 444 q 564 308 529 365 q 599 183 599 251 q 549 41 599 94 q 413 -12 499 -12 z "},"t":{"ha":360,"x_min":14,"x_max":340,"o":"m 204 -12 q 124 22 156 -12 q 93 133 93 56 l 93 653 q 76 669 93 669 l 36 669 q 14 686 14 669 q 26 706 14 697 q 100 774 72 738 q 149 875 128 811 q 172 904 158 904 q 188 882 188 904 l 188 728 q 207 708 188 708 l 297 708 q 319 689 319 708 q 297 669 319 669 l 207 669 q 188 650 188 669 l 188 132 q 197 84 188 101 q 233 67 207 67 q 281 96 263 67 q 306 190 300 125 q 324 210 308 210 q 340 189 340 210 q 297 35 336 82 q 204 -12 257 -12 z "},"ť":{"ha":360,"x_min":14,"x_max":408,"o":"m 204 -12 q 124 22 156 -12 q 93 133 93 56 l 93 653 q 76 669 93 669 l 36 669 q 14 686 14 669 q 26 706 14 697 q 100 774 72 738 q 149 875 128 811 q 172 904 158 904 q 188 882 188 904 l 188 728 q 207 708 188 708 l 297 708 q 319 689 319 708 q 297 669 319 669 l 207 669 q 188 650 188 669 l 188 132 q 197 84 188 101 q 233 67 207 67 q 281 96 263 67 q 306 190 300 125 q 324 210 308 210 q 340 189 340 210 q 297 35 336 82 q 204 -12 257 -12 m 344 754 q 321 738 340 738 q 304 760 304 738 l 310 985 q 326 1038 311 1021 q 363 1056 340 1056 q 399 1035 389 1056 q 400 979 408 1014 l 344 754 z "},"ț":{"ha":360,"x_min":14,"x_max":340,"o":"m 204 -12 q 124 22 156 -12 q 93 133 93 56 l 93 653 q 76 669 93 669 l 36 669 q 14 686 14 669 q 26 706 14 697 q 100 774 72 738 q 149 875 128 811 q 172 904 158 904 q 188 882 188 904 l 188 728 q 207 708 188 708 l 297 708 q 319 689 319 708 q 297 669 319 669 l 207 669 q 188 650 188 669 l 188 132 q 197 84 188 101 q 233 67 207 67 q 281 96 263 67 q 306 190 300 125 q 324 210 308 210 q 340 189 340 210 q 297 35 336 82 q 204 -12 257 -12 m 210 -93 q 265 -122 244 -93 q 285 -193 285 -150 q 256 -312 285 -261 q 165 -415 228 -362 q 138 -421 149 -429 q 142 -394 125 -411 q 197 -328 182 -354 q 213 -275 213 -301 q 202 -240 213 -253 q 178 -219 192 -228 q 153 -197 164 -210 q 143 -158 143 -183 q 162 -112 143 -131 q 210 -93 181 -93 z "},"u":{"ha":631,"x_min":15,"x_max":610,"o":"m 238 -12 q 171 3 203 -12 q 118 51 139 18 q 97 140 97 85 l 97 624 q 90 658 97 649 q 63 669 82 668 l 39 672 q 15 690 15 675 q 42 708 15 708 l 171 708 q 192 688 192 708 l 192 169 q 216 78 192 106 q 283 51 240 51 q 360 76 326 51 q 413 141 393 100 q 433 231 433 182 l 433 624 q 426 658 433 649 q 399 669 418 668 l 375 672 q 351 690 351 675 q 378 708 351 708 l 507 708 q 528 688 528 708 l 528 149 q 535 115 528 124 q 563 103 543 106 l 592 99 q 610 85 610 97 q 588 68 610 72 q 519 46 544 63 q 474 6 493 29 q 453 -7 461 -7 q 440 10 440 -7 l 440 74 q 433 87 440 85 q 417 81 425 89 q 326 8 365 29 q 238 -12 286 -12 z "},"ú":{"ha":631,"x_min":15,"x_max":610,"o":"m 238 -12 q 171 3 203 -12 q 118 51 139 18 q 97 140 97 85 l 97 624 q 90 658 97 649 q 63 669 82 668 l 39 672 q 15 690 15 675 q 42 708 15 708 l 171 708 q 192 688 192 708 l 192 169 q 216 78 192 106 q 283 51 240 51 q 360 76 326 51 q 413 141 393 100 q 433 231 433 182 l 433 624 q 426 658 433 649 q 399 669 418 668 l 375 672 q 351 690 351 675 q 378 708 351 708 l 507 708 q 528 688 528 708 l 528 149 q 535 115 528 124 q 563 103 543 106 l 592 99 q 610 85 610 97 q 588 68 610 72 q 519 46 544 63 q 474 6 493 29 q 453 -7 461 -7 q 440 10 440 -7 l 440 74 q 433 87 440 85 q 417 81 425 89 q 326 8 365 29 q 238 -12 286 -12 m 172 814 q 140 819 149 804 q 153 850 131 835 l 353 1006 q 379 1022 367 1017 q 410 1028 392 1028 q 449 1013 435 1028 q 463 982 463 999 q 453 951 463 964 q 419 926 444 938 l 172 814 z "},"ŭ":{"ha":631,"x_min":15,"x_max":610,"o":"m 238 -12 q 171 3 203 -12 q 118 51 139 18 q 97 140 97 85 l 97 624 q 90 658 97 649 q 63 669 82 668 l 39 672 q 15 690 15 675 q 42 708 15 708 l 171 708 q 192 688 192 708 l 192 169 q 216 78 192 106 q 283 51 240 51 q 360 76 326 51 q 413 141 393 100 q 433 231 433 182 l 433 624 q 426 658 433 649 q 399 669 418 668 l 375 672 q 351 690 351 675 q 378 708 351 708 l 507 708 q 528 688 528 708 l 528 149 q 535 115 528 124 q 563 103 543 106 l 592 99 q 610 85 610 97 q 588 68 610 72 q 519 46 544 63 q 474 6 493 29 q 453 -7 461 -7 q 440 10 440 -7 l 440 74 q 433 87 440 85 q 417 81 425 89 q 326 8 365 29 q 238 -12 286 -12 m 300 804 q 172 853 226 804 q 101 989 117 903 q 115 1014 97 1014 q 135 997 131 1014 q 194 910 150 938 q 300 883 239 883 q 406 910 361 883 q 465 997 450 938 q 485 1014 469 1014 q 499 989 503 1014 q 428 853 483 903 q 300 804 374 804 z "},"û":{"ha":631,"x_min":15,"x_max":610,"o":"m 238 -12 q 171 3 203 -12 q 118 51 139 18 q 97 140 97 85 l 97 624 q 90 658 97 649 q 63 669 82 668 l 39 672 q 15 690 15 675 q 42 708 15 708 l 171 708 q 192 688 192 708 l 192 169 q 216 78 192 106 q 283 51 240 51 q 360 76 326 51 q 413 141 393 100 q 433 231 433 182 l 433 624 q 426 658 433 649 q 399 669 418 668 l 375 672 q 351 690 351 675 q 378 708 351 708 l 507 708 q 528 688 528 708 l 528 149 q 535 115 528 124 q 563 103 543 106 l 592 99 q 610 85 610 97 q 588 68 610 72 q 519 46 544 63 q 474 6 493 29 q 453 -7 461 -7 q 440 10 440 -7 l 440 74 q 433 87 440 85 q 417 81 425 89 q 326 8 365 29 q 238 -12 286 -12 m 114 814 q 86 817 97 803 q 90 843 76 828 l 251 1013 q 286 1028 267 1028 l 313 1028 q 347 1013 332 1028 l 508 843 q 513 817 522 828 q 485 815 504 803 l 299 940 l 114 814 z "},"ü":{"ha":631,"x_min":15,"x_max":610,"o":"m 238 -12 q 171 3 203 -12 q 118 51 139 18 q 97 140 97 85 l 97 624 q 90 658 97 649 q 63 669 82 668 l 39 672 q 15 690 15 675 q 42 708 15 708 l 171 708 q 192 688 192 708 l 192 169 q 216 78 192 106 q 283 51 240 51 q 360 76 326 51 q 413 141 393 100 q 433 231 433 182 l 433 624 q 426 658 433 649 q 399 669 418 668 l 375 672 q 351 690 351 675 q 378 708 351 708 l 507 708 q 528 688 528 708 l 528 149 q 535 115 528 124 q 563 103 543 106 l 592 99 q 610 85 610 97 q 588 68 610 72 q 519 46 544 63 q 474 6 493 29 q 453 -7 461 -7 q 440 10 440 -7 l 440 74 q 433 87 440 85 q 417 81 425 89 q 326 8 365 29 q 238 -12 286 -12 m 168 840 q 119 860 139 840 q 99 911 99 881 q 119 961 99 942 q 168 981 139 981 q 217 961 197 981 q 236 911 236 942 q 217 860 236 881 q 168 840 197 840 m 432 840 q 383 860 403 840 q 363 911 363 881 q 383 961 363 942 q 432 981 403 981 q 481 961 461 981 q 500 911 500 942 q 481 860 500 881 q 432 840 461 840 z "},"ù":{"ha":631,"x_min":15,"x_max":610,"o":"m 238 -12 q 171 3 203 -12 q 118 51 139 18 q 97 140 97 85 l 97 624 q 90 658 97 649 q 63 669 82 668 l 39 672 q 15 690 15 675 q 42 708 15 708 l 171 708 q 192 688 192 708 l 192 169 q 216 78 192 106 q 283 51 240 51 q 360 76 326 51 q 413 141 393 100 q 433 231 433 182 l 433 624 q 426 658 433 649 q 399 669 418 668 l 375 672 q 351 690 351 675 q 378 708 351 708 l 507 708 q 528 688 528 708 l 528 149 q 535 115 528 124 q 563 103 543 106 l 592 99 q 610 85 610 97 q 588 68 610 72 q 519 46 544 63 q 474 6 493 29 q 453 -7 461 -7 q 440 10 440 -7 l 440 74 q 433 87 440 85 q 417 81 425 89 q 326 8 365 29 q 238 -12 286 -12 m 426 814 l 179 926 q 145 951 154 938 q 136 982 136 964 q 150 1013 136 999 q 189 1028 164 1028 q 219 1022 207 1028 q 246 1006 232 1017 l 446 850 q 458 819 468 835 q 426 814 450 804 z "},"ű":{"ha":631,"x_min":15,"x_max":610,"o":"m 238 -12 q 171 3 203 -12 q 118 51 139 18 q 97 140 97 85 l 97 624 q 90 658 97 649 q 63 669 82 668 l 39 672 q 15 690 15 675 q 42 708 15 708 l 171 708 q 192 688 192 708 l 192 169 q 216 78 192 106 q 283 51 240 51 q 360 76 326 51 q 413 141 393 100 q 433 231 433 182 l 433 624 q 426 658 433 649 q 399 669 418 668 l 375 672 q 351 690 351 675 q 378 708 351 708 l 507 708 q 528 688 528 708 l 528 149 q 535 115 528 124 q 563 103 543 106 l 592 99 q 610 85 610 97 q 588 68 610 72 q 519 46 544 63 q 474 6 493 29 q 453 -7 461 -7 q 440 10 440 -7 l 440 74 q 433 87 440 85 q 417 81 425 89 q 326 8 365 29 q 238 -12 286 -12 m 176 819 q 146 814 158 806 q 144 846 133 822 l 217 978 q 245 1016 231 1004 q 282 1028 260 1028 q 319 1015 306 1028 q 332 985 332 1003 q 293 919 332 953 l 176 819 m 385 819 q 354 814 367 806 q 353 846 342 822 l 425 978 q 453 1016 439 1004 q 490 1028 468 1028 q 527 1015 514 1028 q 540 985 540 1003 q 501 919 540 953 l 385 819 z "},"ū":{"ha":631,"x_min":15,"x_max":610,"o":"m 238 -12 q 171 3 203 -12 q 118 51 139 18 q 97 140 97 85 l 97 624 q 90 658 97 649 q 63 669 82 668 l 39 672 q 15 690 15 675 q 42 708 15 708 l 171 708 q 192 688 192 708 l 192 169 q 216 78 192 106 q 283 51 240 51 q 360 76 326 51 q 413 141 393 100 q 433 231 433 182 l 433 624 q 426 658 433 649 q 399 669 418 668 l 375 672 q 351 690 351 675 q 378 708 351 708 l 507 708 q 528 688 528 708 l 528 149 q 535 115 528 124 q 563 103 543 106 l 592 99 q 610 85 610 97 q 588 68 610 72 q 519 46 544 63 q 474 6 493 29 q 453 -7 461 -7 q 440 10 440 -7 l 440 74 q 433 87 440 85 q 417 81 425 89 q 326 8 365 29 q 238 -12 286 -12 m 114 883 q 97 900 97 883 l 97 921 q 114 938 97 938 l 485 938 q 501 921 501 938 l 501 900 q 485 883 501 883 l 114 883 z "},"ų":{"ha":631,"x_min":15,"x_max":610,"o":"m 238 -12 q 171 3 203 -12 q 118 51 139 18 q 97 140 97 85 l 97 624 q 90 658 97 649 q 63 669 82 668 l 39 672 q 15 690 15 675 q 42 708 15 708 l 171 708 q 192 688 192 708 l 192 169 q 216 78 192 106 q 283 51 240 51 q 360 76 326 51 q 413 141 393 100 q 433 231 433 182 l 433 624 q 426 658 433 649 q 399 669 418 668 l 375 672 q 351 690 351 675 q 378 708 351 708 l 507 708 q 528 688 528 708 l 528 149 q 535 115 528 124 q 563 103 543 106 l 592 99 q 610 85 610 97 q 588 68 610 72 q 519 46 544 63 q 474 6 493 29 q 453 -7 461 -7 q 440 10 440 -7 l 440 74 q 433 87 440 85 q 417 81 425 89 q 326 8 365 29 q 238 -12 286 -12 m 383 -300 q 313 -275 344 -300 q 281 -199 281 -250 q 303 -118 281 -160 q 365 -41 326 -76 q 453 14 404 -6 l 467 0 q 375 -83 406 -35 q 344 -185 344 -132 q 360 -242 344 -225 q 399 -258 375 -258 q 457 -229 432 -258 q 485 -225 472 -210 q 478 -254 493 -237 q 436 -288 458 -276 q 383 -300 414 -300 z "},"ů":{"ha":631,"x_min":15,"x_max":610,"o":"m 238 -12 q 171 3 203 -12 q 118 51 139 18 q 97 140 97 85 l 97 624 q 90 658 97 649 q 63 669 82 668 l 39 672 q 15 690 15 675 q 42 708 15 708 l 171 708 q 192 688 192 708 l 192 169 q 216 78 192 106 q 283 51 240 51 q 360 76 326 51 q 413 141 393 100 q 433 231 433 182 l 433 624 q 426 658 433 649 q 399 669 418 668 l 375 672 q 351 690 351 675 q 378 708 351 708 l 507 708 q 528 688 528 708 l 528 149 q 535 115 528 124 q 563 103 543 106 l 592 99 q 610 85 610 97 q 588 68 610 72 q 519 46 544 63 q 474 6 493 29 q 453 -7 461 -7 q 440 10 440 -7 l 440 74 q 433 87 440 85 q 417 81 425 89 q 326 8 365 29 q 238 -12 286 -12 m 300 779 q 193 823 236 779 q 150 929 150 867 q 193 1034 150 990 q 300 1078 236 1078 q 406 1034 364 1078 q 449 929 449 990 q 406 823 449 867 q 300 779 364 779 m 300 817 q 377 849 347 817 q 407 929 407 882 q 377 1008 407 975 q 300 1040 347 1040 q 222 1008 253 1040 q 192 929 192 975 q 222 849 192 882 q 300 817 253 817 z "},"v":{"ha":546,"x_min":-19,"x_max":557,"o":"m 269 -12 q 251 3 257 -12 l 67 615 q 48 658 57 649 q 19 672 39 668 l -1 676 q -19 694 -19 681 q 0 708 -19 708 l 229 708 q 249 694 249 708 q 231 676 249 679 l 208 674 q 167 658 175 669 q 167 615 158 646 l 282 214 q 296 199 286 199 q 310 214 306 199 l 422 590 q 428 647 433 628 q 389 671 424 665 l 360 676 q 342 694 342 681 q 361 708 342 708 l 538 708 q 557 693 557 708 q 540 674 557 679 l 528 669 q 492 644 507 663 q 464 582 478 626 l 288 3 q 269 -12 282 -12 z "},"w":{"ha":829,"x_min":-19,"x_max":840,"o":"m 260 -12 q 235 15 242 -12 l 67 615 q 48 658 57 649 q 19 672 39 668 l -1 676 q -19 694 -19 681 q 0 708 -19 708 l 225 708 q 244 694 244 708 q 226 676 244 679 l 204 674 q 163 658 171 669 q 163 615 154 646 l 272 211 q 285 197 276 197 q 299 211 294 197 l 393 571 q 397 593 396 582 q 393 617 397 604 q 374 659 383 650 q 346 672 365 668 l 325 676 q 307 694 307 681 q 326 708 307 708 l 551 708 q 571 694 571 708 q 553 676 571 679 l 531 674 q 490 658 497 669 q 489 615 483 646 l 578 214 q 590 200 581 200 q 603 214 599 200 l 708 590 q 715 647 719 628 q 675 671 710 665 l 646 676 q 628 694 628 681 q 647 708 628 708 l 821 708 q 840 693 840 708 q 824 674 840 679 l 811 669 q 775 644 790 663 q 747 582 760 626 l 589 15 q 563 -12 582 -12 q 539 15 546 -12 l 431 460 q 417 476 426 475 q 404 460 408 476 l 285 15 q 260 -12 278 -12 z "},"ẃ":{"ha":829,"x_min":-19,"x_max":840,"o":"m 260 -12 q 235 15 242 -12 l 67 615 q 48 658 57 649 q 19 672 39 668 l -1 676 q -19 694 -19 681 q 0 708 -19 708 l 225 708 q 244 694 244 708 q 226 676 244 679 l 204 674 q 163 658 171 669 q 163 615 154 646 l 272 211 q 285 197 276 197 q 299 211 294 197 l 393 571 q 397 593 396 582 q 393 617 397 604 q 374 659 383 650 q 346 672 365 668 l 325 676 q 307 694 307 681 q 326 708 307 708 l 551 708 q 571 694 571 708 q 553 676 571 679 l 531 674 q 490 658 497 669 q 489 615 483 646 l 578 214 q 590 200 581 200 q 603 214 599 200 l 708 590 q 715 647 719 628 q 675 671 710 665 l 646 676 q 628 694 628 681 q 647 708 628 708 l 821 708 q 840 693 840 708 q 824 674 840 679 l 811 669 q 775 644 790 663 q 747 582 760 626 l 589 15 q 563 -12 582 -12 q 539 15 546 -12 l 431 460 q 417 476 426 475 q 404 460 408 476 l 285 15 q 260 -12 278 -12 m 304 814 q 272 819 281 804 q 285 850 263 835 l 485 1006 q 511 1022 499 1017 q 542 1028 524 1028 q 581 1013 567 1028 q 594 982 594 999 q 585 951 594 964 q 551 926 576 938 l 304 814 z "},"ŵ":{"ha":829,"x_min":-19,"x_max":840,"o":"m 260 -12 q 235 15 242 -12 l 67 615 q 48 658 57 649 q 19 672 39 668 l -1 676 q -19 694 -19 681 q 0 708 -19 708 l 225 708 q 244 694 244 708 q 226 676 244 679 l 204 674 q 163 658 171 669 q 163 615 154 646 l 272 211 q 285 197 276 197 q 299 211 294 197 l 393 571 q 397 593 396 582 q 393 617 397 604 q 374 659 383 650 q 346 672 365 668 l 325 676 q 307 694 307 681 q 326 708 307 708 l 551 708 q 571 694 571 708 q 553 676 571 679 l 531 674 q 490 658 497 669 q 489 615 483 646 l 578 214 q 590 200 581 200 q 603 214 599 200 l 708 590 q 715 647 719 628 q 675 671 710 665 l 646 676 q 628 694 628 681 q 647 708 628 708 l 821 708 q 840 693 840 708 q 824 674 840 679 l 811 669 q 775 644 790 663 q 747 582 760 626 l 589 15 q 563 -12 582 -12 q 539 15 546 -12 l 431 460 q 417 476 426 475 q 404 460 408 476 l 285 15 q 260 -12 278 -12 m 246 814 q 218 817 229 803 q 222 843 208 828 l 383 1013 q 418 1028 399 1028 l 444 1028 q 479 1013 464 1028 l 640 843 q 644 817 654 828 q 617 815 636 803 l 431 940 l 246 814 z "},"ẅ":{"ha":829,"x_min":-19,"x_max":840,"o":"m 260 -12 q 235 15 242 -12 l 67 615 q 48 658 57 649 q 19 672 39 668 l -1 676 q -19 694 -19 681 q 0 708 -19 708 l 225 708 q 244 694 244 708 q 226 676 244 679 l 204 674 q 163 658 171 669 q 163 615 154 646 l 272 211 q 285 197 276 197 q 299 211 294 197 l 393 571 q 397 593 396 582 q 393 617 397 604 q 374 659 383 650 q 346 672 365 668 l 325 676 q 307 694 307 681 q 326 708 307 708 l 551 708 q 571 694 571 708 q 553 676 571 679 l 531 674 q 490 658 497 669 q 489 615 483 646 l 578 214 q 590 200 581 200 q 603 214 599 200 l 708 590 q 715 647 719 628 q 675 671 710 665 l 646 676 q 628 694 628 681 q 647 708 628 708 l 821 708 q 840 693 840 708 q 824 674 840 679 l 811 669 q 775 644 790 663 q 747 582 760 626 l 589 15 q 563 -12 582 -12 q 539 15 546 -12 l 431 460 q 417 476 426 475 q 404 460 408 476 l 285 15 q 260 -12 278 -12 m 300 840 q 251 860 271 840 q 231 911 231 881 q 251 961 231 942 q 300 981 271 981 q 349 961 329 981 q 368 911 368 942 q 349 860 368 881 q 300 840 329 840 m 564 840 q 515 860 535 840 q 494 911 494 881 q 515 961 494 942 q 564 981 535 981 q 613 961 593 981 q 632 911 632 942 q 613 860 632 881 q 564 840 593 840 z "},"ẁ":{"ha":829,"x_min":-19,"x_max":840,"o":"m 260 -12 q 235 15 242 -12 l 67 615 q 48 658 57 649 q 19 672 39 668 l -1 676 q -19 694 -19 681 q 0 708 -19 708 l 225 708 q 244 694 244 708 q 226 676 244 679 l 204 674 q 163 658 171 669 q 163 615 154 646 l 272 211 q 285 197 276 197 q 299 211 294 197 l 393 571 q 397 593 396 582 q 393 617 397 604 q 374 659 383 650 q 346 672 365 668 l 325 676 q 307 694 307 681 q 326 708 307 708 l 551 708 q 571 694 571 708 q 553 676 571 679 l 531 674 q 490 658 497 669 q 489 615 483 646 l 578 214 q 590 200 581 200 q 603 214 599 200 l 708 590 q 715 647 719 628 q 675 671 710 665 l 646 676 q 628 694 628 681 q 647 708 628 708 l 821 708 q 840 693 840 708 q 824 674 840 679 l 811 669 q 775 644 790 663 q 747 582 760 626 l 589 15 q 563 -12 582 -12 q 539 15 546 -12 l 431 460 q 417 476 426 475 q 404 460 408 476 l 285 15 q 260 -12 278 -12 m 558 814 l 311 926 q 277 951 286 938 q 268 982 268 964 q 282 1013 268 999 q 321 1028 296 1028 q 351 1022 339 1028 q 378 1006 364 1017 l 578 850 q 590 819 600 835 q 558 814 582 804 z "},"x":{"ha":535,"x_min":-11,"x_max":540,"o":"m 315 0 q 296 14 296 0 q 314 32 296 28 l 335 36 q 357 82 376 46 l 258 276 q 245 287 253 286 q 232 276 238 288 l 142 107 q 151 40 111 49 l 188 32 q 206 14 206 28 q 186 0 206 0 l 8 0 q -11 15 -11 0 q 6 35 -11 31 l 22 39 q 67 60 49 46 q 113 126 85 75 l 215 315 q 218 356 226 336 l 86 615 q 60 658 71 647 q 36 672 50 669 l 15 676 q -3 694 -3 681 q 17 708 -3 708 l 222 708 q 242 694 242 708 q 224 676 242 681 l 203 672 q 181 626 161 663 l 275 443 q 288 433 281 433 q 300 443 294 433 l 383 601 q 374 668 414 660 l 338 676 q 319 694 319 681 q 339 708 319 708 l 517 708 q 536 693 536 708 q 519 674 536 678 l 503 669 q 458 649 476 664 q 413 582 440 635 l 317 404 q 315 361 304 383 l 451 93 q 478 49 468 60 q 501 36 488 39 l 522 32 q 540 14 540 28 q 521 0 540 0 l 315 0 z "},"y":{"ha":557,"x_min":-19,"x_max":568,"o":"m 115 -285 q 56 -259 78 -285 q 33 -200 33 -233 q 49 -156 33 -174 q 90 -137 64 -137 q 122 -147 113 -137 q 136 -169 132 -157 q 144 -192 140 -182 q 161 -201 149 -201 q 189 -180 176 -201 q 224 -89 201 -158 q 241 -17 238 -47 q 240 49 244 14 q 218 133 235 83 l 67 615 q 48 658 57 649 q 19 672 39 668 l -1 676 q -19 694 -19 681 q 0 708 -19 708 l 229 708 q 249 694 249 708 q 231 676 249 679 l 208 674 q 166 658 175 669 q 167 615 157 646 l 289 208 q 302 194 293 194 q 315 208 311 194 l 433 590 q 440 647 444 628 q 400 671 435 665 l 371 676 q 353 694 353 681 q 372 708 353 708 l 549 708 q 568 693 568 708 q 551 674 568 679 l 539 669 q 504 644 518 663 q 475 582 490 626 l 268 -64 q 213 -208 238 -161 q 167 -270 189 -256 q 115 -285 144 -285 z "},"ý":{"ha":557,"x_min":-19,"x_max":568,"o":"m 115 -285 q 56 -259 78 -285 q 33 -200 33 -233 q 49 -156 33 -174 q 90 -137 64 -137 q 122 -147 113 -137 q 136 -169 132 -157 q 144 -192 140 -182 q 161 -201 149 -201 q 189 -180 176 -201 q 224 -89 201 -158 q 241 -17 238 -47 q 240 49 244 14 q 218 133 235 83 l 67 615 q 48 658 57 649 q 19 672 39 668 l -1 676 q -19 694 -19 681 q 0 708 -19 708 l 229 708 q 249 694 249 708 q 231 676 249 679 l 208 674 q 166 658 175 669 q 167 615 157 646 l 289 208 q 302 194 293 194 q 315 208 311 194 l 433 590 q 440 647 444 628 q 400 671 435 665 l 371 676 q 353 694 353 681 q 372 708 353 708 l 549 708 q 568 693 568 708 q 551 674 568 679 l 539 669 q 504 644 518 663 q 475 582 490 626 l 268 -64 q 213 -208 238 -161 q 167 -270 189 -256 q 115 -285 144 -285 m 151 814 q 119 819 128 804 q 132 850 110 835 l 332 1006 q 358 1022 346 1017 q 389 1028 371 1028 q 428 1013 414 1028 q 442 982 442 999 q 433 951 442 964 q 399 926 424 938 l 151 814 z "},"ŷ":{"ha":557,"x_min":-19,"x_max":568,"o":"m 115 -285 q 56 -259 78 -285 q 33 -200 33 -233 q 49 -156 33 -174 q 90 -137 64 -137 q 122 -147 113 -137 q 136 -169 132 -157 q 144 -192 140 -182 q 161 -201 149 -201 q 189 -180 176 -201 q 224 -89 201 -158 q 241 -17 238 -47 q 240 49 244 14 q 218 133 235 83 l 67 615 q 48 658 57 649 q 19 672 39 668 l -1 676 q -19 694 -19 681 q 0 708 -19 708 l 229 708 q 249 694 249 708 q 231 676 249 679 l 208 674 q 166 658 175 669 q 167 615 157 646 l 289 208 q 302 194 293 194 q 315 208 311 194 l 433 590 q 440 647 444 628 q 400 671 435 665 l 371 676 q 353 694 353 681 q 372 708 353 708 l 549 708 q 568 693 568 708 q 551 674 568 679 l 539 669 q 504 644 518 663 q 475 582 490 626 l 268 -64 q 213 -208 238 -161 q 167 -270 189 -256 q 115 -285 144 -285 m 93 814 q 65 817 76 803 q 69 843 56 828 l 231 1013 q 265 1028 246 1028 l 292 1028 q 326 1013 311 1028 l 488 843 q 492 817 501 828 q 464 815 483 803 l 278 940 l 93 814 z "},"ÿ":{"ha":557,"x_min":-19,"x_max":568,"o":"m 115 -285 q 56 -259 78 -285 q 33 -200 33 -233 q 49 -156 33 -174 q 90 -137 64 -137 q 122 -147 113 -137 q 136 -169 132 -157 q 144 -192 140 -182 q 161 -201 149 -201 q 189 -180 176 -201 q 224 -89 201 -158 q 241 -17 238 -47 q 240 49 244 14 q 218 133 235 83 l 67 615 q 48 658 57 649 q 19 672 39 668 l -1 676 q -19 694 -19 681 q 0 708 -19 708 l 229 708 q 249 694 249 708 q 231 676 249 679 l 208 674 q 166 658 175 669 q 167 615 157 646 l 289 208 q 302 194 293 194 q 315 208 311 194 l 433 590 q 440 647 444 628 q 400 671 435 665 l 371 676 q 353 694 353 681 q 372 708 353 708 l 549 708 q 568 693 568 708 q 551 674 568 679 l 539 669 q 504 644 518 663 q 475 582 490 626 l 268 -64 q 213 -208 238 -161 q 167 -270 189 -256 q 115 -285 144 -285 m 147 840 q 98 860 118 840 q 78 911 78 881 q 98 961 78 942 q 147 981 118 981 q 196 961 176 981 q 215 911 215 942 q 196 860 215 881 q 147 840 176 840 m 411 840 q 362 860 382 840 q 342 911 342 881 q 362 961 342 942 q 411 981 382 981 q 460 961 440 981 q 479 911 479 942 q 460 860 479 881 q 411 840 440 840 z "},"ỳ":{"ha":557,"x_min":-19,"x_max":568,"o":"m 115 -285 q 56 -259 78 -285 q 33 -200 33 -233 q 49 -156 33 -174 q 90 -137 64 -137 q 122 -147 113 -137 q 136 -169 132 -157 q 144 -192 140 -182 q 161 -201 149 -201 q 189 -180 176 -201 q 224 -89 201 -158 q 241 -17 238 -47 q 240 49 244 14 q 218 133 235 83 l 67 615 q 48 658 57 649 q 19 672 39 668 l -1 676 q -19 694 -19 681 q 0 708 -19 708 l 229 708 q 249 694 249 708 q 231 676 249 679 l 208 674 q 166 658 175 669 q 167 615 157 646 l 289 208 q 302 194 293 194 q 315 208 311 194 l 433 590 q 440 647 444 628 q 400 671 435 665 l 371 676 q 353 694 353 681 q 372 708 353 708 l 549 708 q 568 693 568 708 q 551 674 568 679 l 539 669 q 504 644 518 663 q 475 582 490 626 l 268 -64 q 213 -208 238 -161 q 167 -270 189 -256 q 115 -285 144 -285 m 406 814 l 158 926 q 124 951 133 938 q 115 982 115 964 q 129 1013 115 999 q 168 1028 143 1028 q 199 1022 186 1028 q 225 1006 211 1017 l 425 850 q 438 819 447 835 q 406 814 429 804 z "},"z":{"ha":490,"x_min":21,"x_max":474,"o":"m 42 0 q 21 18 21 0 q 25 32 21 24 q 35 53 29 40 l 346 644 q 348 664 353 656 q 329 672 343 672 l 271 672 q 170 649 203 672 q 117 581 138 625 l 86 517 q 65 499 78 499 q 51 519 47 499 l 85 708 q 110 742 90 742 q 125 733 122 742 q 135 717 128 725 q 169 708 143 708 l 447 708 q 468 690 468 708 q 465 676 468 685 q 454 656 461 668 l 144 64 q 142 44 139 53 q 161 36 146 36 l 224 36 q 339 59 306 36 q 393 133 372 82 l 435 235 q 456 253 443 253 q 469 229 474 253 l 433 25 q 404 0 429 0 l 42 0 z "},"ź":{"ha":490,"x_min":21,"x_max":474,"o":"m 42 0 q 21 18 21 0 q 25 32 21 24 q 35 53 29 40 l 346 644 q 348 664 353 656 q 329 672 343 672 l 271 672 q 170 649 203 672 q 117 581 138 625 l 86 517 q 65 499 78 499 q 51 519 47 499 l 85 708 q 110 742 90 742 q 125 733 122 742 q 135 717 128 725 q 169 708 143 708 l 447 708 q 468 690 468 708 q 465 676 468 685 q 454 656 461 668 l 144 64 q 142 44 139 53 q 161 36 146 36 l 224 36 q 339 59 306 36 q 393 133 372 82 l 435 235 q 456 253 443 253 q 469 229 474 253 l 433 25 q 404 0 429 0 l 42 0 m 154 814 q 122 819 131 804 q 135 850 113 835 l 335 1006 q 361 1022 349 1017 q 392 1028 374 1028 q 431 1013 417 1028 q 444 982 444 999 q 435 951 444 964 q 401 926 426 938 l 154 814 z "},"ž":{"ha":490,"x_min":21,"x_max":504,"o":"m 42 0 q 21 18 21 0 q 25 32 21 24 q 35 53 29 40 l 346 644 q 348 664 353 656 q 329 672 343 672 l 271 672 q 170 649 203 672 q 117 581 138 625 l 86 517 q 65 499 78 499 q 51 519 47 499 l 85 708 q 110 742 90 742 q 125 733 122 742 q 135 717 128 725 q 169 708 143 708 l 447 708 q 468 690 468 708 q 465 676 468 685 q 454 656 461 668 l 144 64 q 142 44 139 53 q 161 36 146 36 l 224 36 q 339 59 306 36 q 393 133 372 82 l 435 235 q 456 253 443 253 q 469 229 474 253 l 433 25 q 404 0 429 0 l 42 0 m 268 810 q 233 825 249 810 l 72 994 q 68 1021 58 1010 q 96 1024 79 1035 l 281 897 l 467 1022 q 494 1021 486 1035 q 490 994 504 1010 l 329 825 q 294 810 314 810 l 268 810 z "},"ż":{"ha":490,"x_min":21,"x_max":474,"o":"m 42 0 q 21 18 21 0 q 25 32 21 24 q 35 53 29 40 l 346 644 q 348 664 353 656 q 329 672 343 672 l 271 672 q 170 649 203 672 q 117 581 138 625 l 86 517 q 65 499 78 499 q 51 519 47 499 l 85 708 q 110 742 90 742 q 125 733 122 742 q 135 717 128 725 q 169 708 143 708 l 447 708 q 468 690 468 708 q 465 676 468 685 q 454 656 461 668 l 144 64 q 142 44 139 53 q 161 36 146 36 l 224 36 q 339 59 306 36 q 393 133 372 82 l 435 235 q 456 253 443 253 q 469 229 474 253 l 433 25 q 404 0 429 0 l 42 0 m 282 840 q 233 861 253 840 q 213 914 213 882 q 233 966 213 946 q 282 986 253 986 q 331 966 311 986 q 350 914 350 946 q 331 861 350 882 q 282 840 311 840 z "},"ª":{"ha":506,"x_min":47,"x_max":458,"o":"m 154 504 q 77 530 107 504 q 47 599 47 556 q 113 719 47 665 q 279 800 178 772 q 293 817 293 804 l 293 892 q 276 958 293 939 q 231 978 258 978 q 181 957 203 978 q 147 890 158 936 q 89 828 133 828 q 65 836 75 828 q 56 858 56 844 q 87 932 56 896 q 165 991 118 968 q 258 1014 211 1014 q 368 903 368 1014 l 368 606 q 392 564 368 564 q 416 581 407 564 q 425 639 425 599 q 442 660 425 660 q 458 638 458 660 q 431 535 458 567 q 367 504 403 504 q 324 523 340 504 q 303 568 308 542 q 293 578 301 578 q 278 569 285 579 q 223 521 251 538 q 154 504 194 504 m 185 557 q 260 596 226 557 q 293 692 293 635 l 293 754 q 269 764 293 772 q 165 706 201 742 q 128 619 128 669 q 185 557 128 557 z "},"º":{"ha":511,"x_min":56,"x_max":456,"o":"m 256 504 q 154 538 200 504 q 82 630 108 572 q 56 760 56 688 q 83 889 56 832 q 155 980 110 946 q 256 1014 200 1014 q 358 980 313 1014 q 429 889 403 946 q 456 760 456 832 q 429 630 456 688 q 358 538 403 572 q 256 504 313 504 m 256 538 q 372 760 372 538 q 256 981 372 981 q 140 760 140 981 q 256 538 140 538 z "}," ":{"ha":236,"x_min":0,"x_max":0,"o":""}," ":{"ha":236,"x_min":0,"x_max":0,"o":""},".":{"ha":296,"x_min":75,"x_max":221,"o":"m 149 -12 q 97 8 118 -12 q 75 61 75 28 q 97 113 75 93 q 149 133 118 133 q 199 113 176 133 q 221 61 221 93 q 199 8 221 28 q 149 -12 176 -12 z "},",":{"ha":301,"x_min":67,"x_max":226,"o":"m 106 -217 q 79 -222 90 -232 q 83 -196 67 -212 q 140 -121 124 -156 q 157 -49 157 -86 q 146 -15 157 -26 q 121 7 135 -3 q 96 30 107 17 q 85 68 85 43 q 103 115 85 96 q 151 133 122 133 q 206 108 186 133 q 226 40 226 83 q 192 -102 226 -33 q 106 -217 158 -171 z "},":":{"ha":296,"x_min":75,"x_max":221,"o":"m 149 -12 q 97 8 118 -12 q 75 61 75 28 q 97 113 75 93 q 149 133 118 133 q 199 113 176 133 q 221 61 221 93 q 199 8 221 28 q 149 -12 176 -12 m 149 515 q 97 535 118 515 q 75 589 75 556 q 97 641 75 621 q 149 661 118 661 q 199 641 176 661 q 221 589 221 621 q 199 535 221 556 q 149 515 176 515 z "},";":{"ha":301,"x_min":67,"x_max":226,"o":"m 106 -217 q 79 -222 90 -232 q 83 -196 67 -212 q 140 -121 124 -156 q 157 -49 157 -86 q 146 -15 157 -26 q 121 7 135 -3 q 96 30 107 17 q 85 68 85 43 q 103 115 85 96 q 151 133 122 133 q 206 108 186 133 q 226 40 226 83 q 192 -102 226 -33 q 106 -217 158 -171 m 151 515 q 99 535 121 515 q 78 589 78 556 q 99 641 78 621 q 151 661 121 661 q 201 641 179 661 q 224 589 224 621 q 201 535 224 556 q 151 515 179 515 z "},"…":{"ha":740,"x_min":75,"x_max":665,"o":"m 149 -12 q 97 8 118 -12 q 75 61 75 28 q 97 113 75 93 q 149 133 118 133 q 199 113 176 133 q 221 61 221 93 q 199 8 221 28 q 149 -12 176 -12 m 371 -12 q 319 8 340 -12 q 297 61 297 28 q 319 113 297 93 q 371 133 340 133 q 421 113 399 133 q 443 61 443 93 q 421 8 443 28 q 371 -12 399 -12 m 593 -12 q 541 8 563 -12 q 519 61 519 28 q 541 113 519 93 q 593 133 563 133 q 643 113 621 133 q 665 61 665 93 q 643 8 665 28 q 593 -12 621 -12 z "},"!":{"ha":329,"x_min":89,"x_max":235,"o":"m 163 249 q 146 271 146 249 q 140 428 144 344 q 128 597 135 513 q 115 757 121 682 q 103 887 108 832 q 99 964 99 942 q 115 1020 99 999 q 163 1042 132 1042 q 210 1020 193 1042 q 226 964 226 999 q 222 886 226 940 q 210 757 217 832 q 197 597 204 682 q 185 428 190 513 q 179 271 181 344 q 163 249 179 249 m 163 -12 q 110 8 132 -12 q 89 61 89 28 q 110 113 89 93 q 163 133 132 133 q 213 113 190 133 q 235 61 235 93 q 213 8 235 28 q 163 -12 190 -12 z "},"¡":{"ha":329,"x_min":94,"x_max":240,"o":"m 168 722 q 218 702 196 722 q 240 649 240 682 q 218 597 240 618 q 168 576 196 576 q 116 597 138 576 q 94 649 94 618 q 116 702 94 682 q 168 722 138 722 m 168 -299 q 121 -277 138 -299 q 104 -221 104 -256 q 111 -120 104 -192 q 127 47 118 -49 q 143 244 136 142 q 151 439 150 347 q 168 461 151 461 q 185 439 185 461 q 193 244 186 347 q 209 47 200 142 q 225 -120 218 -49 q 232 -221 232 -192 q 215 -277 232 -256 q 168 -299 199 -299 z "},"?":{"ha":440,"x_min":39,"x_max":396,"o":"m 172 249 q 156 271 156 249 l 150 517 q 158 594 149 565 q 192 649 167 624 l 225 682 q 293 766 269 726 q 317 875 317 806 q 292 972 317 944 q 232 1000 267 1000 q 138 952 172 1000 q 72 801 104 904 q 54 782 67 782 q 39 806 39 782 l 43 974 q 47 992 43 985 q 58 1004 51 999 q 121 1032 81 1022 q 192 1042 161 1042 q 342 991 288 1042 q 396 849 396 940 q 366 716 396 769 q 276 606 336 663 l 222 556 q 203 526 208 542 q 196 474 197 510 l 190 271 q 172 249 190 249 m 171 -12 q 119 8 140 -12 q 97 61 97 28 q 119 113 97 93 q 171 133 140 133 q 221 113 199 133 q 243 61 243 93 q 221 8 243 28 q 171 -12 199 -12 z "},"¿":{"ha":440,"x_min":44,"x_max":401,"o":"m 269 722 q 322 702 301 722 q 343 649 343 682 q 322 597 343 618 q 269 576 301 576 q 219 597 242 576 q 197 649 197 618 q 219 702 197 682 q 269 722 242 722 m 249 -299 q 99 -248 153 -299 q 44 -106 44 -197 q 74 28 44 -26 q 164 138 104 82 l 218 188 q 238 219 233 203 q 244 269 243 235 l 250 439 q 268 461 250 461 q 285 439 285 461 l 290 226 q 283 149 292 179 q 249 94 274 119 l 215 61 q 148 -22 172 18 q 124 -132 124 -62 q 149 -228 124 -200 q 208 -257 174 -257 q 303 -208 268 -257 q 368 -58 338 -160 q 386 -39 374 -39 q 401 -62 401 -39 l 397 -231 q 393 -248 397 -242 q 382 -261 389 -254 q 320 -289 360 -279 q 249 -299 281 -299 z "},"·":{"ha":146,"x_min":0,"x_max":146,"o":"m 74 439 q 22 459 43 439 q 0 513 0 479 q 22 565 0 544 q 74 585 43 585 q 124 565 101 585 q 146 513 146 544 q 124 459 146 479 q 74 439 101 439 z "},"•":{"ha":418,"x_min":100,"x_max":319,"o":"m 211 406 q 132 435 164 406 q 100 515 100 465 q 132 593 100 563 q 211 624 164 624 q 286 593 253 624 q 319 515 319 563 q 286 435 319 465 q 211 406 253 406 z "},"*":{"ha":617,"x_min":94,"x_max":522,"o":"m 308 578 q 268 594 282 578 q 254 632 254 611 q 263 673 254 654 q 283 716 272 692 q 297 775 293 740 q 294 785 299 783 q 282 782 289 788 q 224 718 240 747 q 181 674 208 689 q 142 667 163 664 q 107 693 121 671 q 101 738 94 717 q 126 768 108 758 q 167 781 146 779 q 215 785 189 782 q 272 801 240 788 q 281 810 281 804 q 272 818 281 815 q 215 835 240 833 q 167 839 189 838 q 126 851 146 840 q 101 883 108 863 q 107 926 94 904 q 142 953 121 949 q 181 946 163 957 q 213 917 200 935 q 240 879 225 900 q 283 836 256 858 q 294 833 290 831 q 297 844 299 836 q 283 904 293 881 q 263 947 272 928 q 254 988 254 967 q 268 1025 254 1008 q 308 1042 282 1042 q 349 1025 335 1042 q 363 988 363 1008 q 353 947 363 967 q 334 904 344 928 q 319 844 324 881 q 323 833 318 836 q 333 836 328 831 q 377 879 363 858 q 404 917 392 900 q 436 946 417 935 q 475 953 454 957 q 510 926 496 949 q 515 883 522 904 q 490 851 508 863 q 449 839 471 840 q 402 835 428 838 q 344 818 376 833 q 336 810 336 815 q 344 801 336 804 q 402 785 376 788 q 449 781 428 782 q 490 768 471 779 q 515 738 508 758 q 510 693 522 717 q 475 667 496 671 q 436 674 454 664 q 393 718 410 689 q 335 782 376 747 q 324 785 329 788 q 319 775 318 783 q 334 716 324 740 q 353 673 344 692 q 363 632 363 654 q 349 594 363 611 q 308 578 335 578 z "},"#":{"ha":882,"x_min":28,"x_max":854,"o":"m 147 0 l 215 296 q 197 319 219 319 l 28 319 l 28 361 l 206 361 q 236 386 229 361 l 289 615 q 271 639 293 639 l 101 639 l 101 681 l 279 681 q 310 704 303 681 l 378 1000 l 422 1000 l 354 704 q 372 681 350 681 l 592 681 q 622 704 615 681 l 690 1000 l 735 1000 l 667 704 q 685 681 663 681 l 854 681 l 854 639 l 676 639 q 646 614 653 639 l 593 385 q 611 361 589 361 l 781 361 l 781 319 l 603 319 q 572 296 579 319 l 504 0 l 460 0 l 528 296 q 510 319 532 319 l 290 319 q 260 296 267 319 l 192 0 l 147 0 m 299 361 l 518 361 q 549 386 542 361 l 601 615 q 583 639 606 639 l 364 639 q 333 614 340 639 l 281 385 q 299 361 276 361 z "},"/":{"ha":358,"x_min":11,"x_max":347,"o":"m 25 -181 q 14 -165 11 -181 l 301 1085 q 317 1097 304 1097 l 333 1097 q 344 1082 347 1097 l 57 -168 q 42 -181 54 -181 l 25 -181 z "},"\\":{"ha":358,"x_min":11,"x_max":347,"o":"m 317 -181 q 301 -168 304 -181 l 14 1082 q 25 1097 11 1097 l 42 1097 q 57 1085 54 1097 l 344 -165 q 333 -181 347 -181 l 317 -181 z "},"-":{"ha":597,"x_min":114,"x_max":483,"o":"m 128 360 q 114 374 114 360 l 114 393 q 128 407 114 407 l 469 407 q 483 393 483 407 l 483 374 q 469 360 483 360 l 128 360 z "},"–":{"ha":708,"x_min":114,"x_max":594,"o":"m 128 360 q 114 374 114 360 l 114 393 q 128 407 114 407 l 581 407 q 594 393 594 407 l 594 374 q 581 360 594 360 l 128 360 z "},"—":{"ha":1000,"x_min":114,"x_max":886,"o":"m 128 360 q 114 374 114 360 l 114 393 q 128 407 114 407 l 872 407 q 886 393 886 407 l 886 374 q 872 360 886 360 l 128 360 z "},"_":{"ha":522,"x_min":21,"x_max":501,"o":"m 35 -151 q 21 -137 21 -151 l 21 -118 q 35 -104 21 -104 l 488 -104 q 501 -118 501 -104 l 501 -137 q 488 -151 501 -151 l 35 -151 z "},"(":{"ha":472,"x_min":97,"x_max":419,"o":"m 407 -150 q 394 -146 401 -150 q 294 -55 346 -111 q 197 77 242 1 q 125 246 153 153 q 97 447 97 339 q 125 649 97 556 q 197 817 153 742 q 294 949 242 893 q 394 1040 346 1006 q 407 1044 401 1044 q 419 1033 419 1044 q 411 1018 419 1026 q 244 766 297 915 q 192 447 192 617 q 244 128 192 278 q 411 -124 297 -21 q 419 -139 419 -132 q 407 -150 419 -150 z "},")":{"ha":472,"x_min":53,"x_max":375,"o":"m 65 -150 q 53 -139 53 -150 q 61 -124 53 -132 q 228 128 176 -21 q 281 447 281 278 q 228 766 281 617 q 61 1018 176 915 q 53 1033 53 1026 q 65 1044 53 1044 q 78 1040 72 1044 q 178 949 126 1006 q 275 817 231 893 q 347 649 319 742 q 375 447 375 556 q 347 246 375 339 q 275 77 319 153 q 178 -55 231 1 q 78 -146 126 -111 q 65 -150 72 -150 z "},"{":{"ha":442,"x_min":56,"x_max":358,"o":"m 342 -133 q 167 56 167 -133 l 167 253 q 144 391 167 351 q 72 431 121 431 q 56 447 56 431 q 72 464 56 464 q 144 504 121 464 q 167 642 167 544 l 167 839 q 342 1028 167 1028 q 358 1011 358 1028 q 342 994 358 994 q 247 844 247 994 l 247 647 q 223 511 247 554 q 144 447 199 468 q 223 383 199 426 q 247 247 247 340 l 247 50 q 342 -100 247 -100 q 358 -117 358 -100 q 342 -133 358 -133 z "},"}":{"ha":442,"x_min":83,"x_max":386,"o":"m 100 -133 q 83 -117 83 -133 q 100 -100 83 -100 q 194 50 194 -100 l 194 247 q 219 383 194 340 q 297 447 243 426 q 219 511 243 468 q 194 647 194 554 l 194 844 q 100 994 194 994 q 83 1011 83 994 q 100 1028 83 1028 q 275 839 275 1028 l 275 642 q 298 504 275 544 q 369 464 321 464 q 386 447 386 464 q 369 431 386 431 q 298 391 321 431 q 275 253 275 351 l 275 56 q 100 -133 275 -133 z "},"[":{"ha":451,"x_min":119,"x_max":368,"o":"m 153 -136 q 119 -103 119 -136 l 119 994 q 153 1028 119 1028 l 349 1028 q 368 1011 368 1028 q 349 994 368 994 l 217 994 q 200 978 200 994 l 200 -86 q 217 -103 200 -103 l 349 -103 q 368 -119 368 -103 q 349 -136 368 -136 l 153 -136 z "},"]":{"ha":451,"x_min":83,"x_max":332,"o":"m 299 -136 l 103 -136 q 83 -119 83 -136 q 103 -103 83 -103 l 235 -103 q 251 -86 251 -103 l 251 978 q 235 994 251 994 l 103 994 q 83 1011 83 994 q 103 1028 83 1028 l 299 1028 q 332 994 332 1028 l 332 -103 q 299 -136 332 -136 z "}}}
